<?xml version="1.0" encoding="utf-8"?>
<!-- Generator: Adobe Illustrator 24.0.2, SVG Export Plug-In . SVG Version: 6.00 Build 0)  -->
<svg version="1.1" id="Layer_1" xmlns="http://www.w3.org/2000/svg" xmlns:xlink="http://www.w3.org/1999/xlink" x="0px" y="0px"
	 width="40px" height="200px" viewBox="0 0 40 200" style="enable-background:new 0 0 40 200;" xml:space="preserve">
<style type="text/css">
	.st0{fill:none;stroke:#464850;stroke-width:2;stroke-linecap:round;stroke-linejoin:round;stroke-miterlimit:10;}
	.st1{fill:none;stroke:#FF5B56;stroke-width:2;stroke-linecap:round;stroke-linejoin:round;stroke-miterlimit:10;}
	.st2{fill:none;stroke:#B3B9CB;stroke-width:2;stroke-linecap:round;stroke-linejoin:round;stroke-miterlimit:10;}
	.st3{fill:none;stroke:#FFFFFF;stroke-width:2;stroke-linecap:round;stroke-linejoin:round;stroke-miterlimit:10;}
	.st4{fill:none;stroke:#46474F;stroke-width:2;stroke-linecap:round;stroke-linejoin:round;stroke-miterlimit:10;}
	.st5{fill:#FFFFFF;stroke:#46474F;stroke-width:2;stroke-linecap:round;stroke-linejoin:round;stroke-miterlimit:10;}
</style>
<path class="st0" d="M16,34H4c-1.1,0-2-0.9-2-2v-7c0-1.1,0.9-2,2-2h12c1.1,0,2,0.9,2,2v7C18,33.1,17.1,34,16,34z"/>
<line class="st0" x1="7" y1="37" x2="13" y2="37"/>
<line class="st0" x1="6" y1="66" x2="15" y2="75"/>
<line class="st0" x1="15" y1="66" x2="6" y2="75"/>
<line class="st0" x1="4" y1="90" x2="16" y2="90"/>
<rect x="8" y="128" class="st0" width="4" height="4"/>
<rect x="5" y="125" class="st0" width="10" height="10"/>
<line class="st0" x1="7" y1="123" x2="7" y2="125"/>
<line class="st0" x1="13" y1="123" x2="13" y2="125"/>
<line class="st0" x1="7" y1="135" x2="7" y2="137"/>
<line class="st0" x1="13" y1="135" x2="13" y2="137"/>
<line class="st0" x1="17" y1="127" x2="15" y2="127"/>
<line class="st0" x1="17" y1="133" x2="15" y2="133"/>
<line class="st0" x1="5" y1="127" x2="3" y2="127"/>
<line class="st0" x1="5" y1="133" x2="3" y2="133"/>
<polygon class="st1" points="22,137 30,123 38,137 "/>
<line class="st1" x1="30" y1="129" x2="30" y2="131"/>
<line class="st1" x1="30" y1="134" x2="30" y2="134"/>
<circle class="st2" cx="10" cy="113" r="2"/>
<path class="st3" d="M16,159H4c-1.7,0-3-1.4-3-3v-12c0-1.6,1.3-3,3-3h12c1.6,0,3,1.4,3,3v12C19,157.6,17.6,159,16,159z"/>
<path class="st3" d="M7,146v8.1c0,0.4,0.5,0.6,0.8,0.4l5.6-4c0.3-0.2,0.3-0.6,0-0.8l-5.6-4C7.5,145.3,7,145.6,7,146z"/>
<path class="st3" d="M36,159H24c-1.6,0-3-1.4-3-3v-12c0-1.6,1.4-3,3-3h12c1.7,0,3,1.4,3,3v12C39,157.6,37.7,159,36,159z"/>
<path class="st3" d="M33,154h-6c-0.5,0-1-0.4-1-1v-6c0-0.6,0.5-1,1-1h6c0.5,0,1,0.4,1,1v6C34,153.6,33.5,154,33,154z"/>
<path class="st2" d="M5.5,109c1.1-1.2,2.7-2,4.5-2s3.4,0.8,4.5,2"/>
<path class="st2" d="M2.6,106.3c1.8-2,4.5-3.3,7.4-3.3s5.6,1.3,7.4,3.3"/>
<ellipse class="st4" cx="30" cy="166" rx="6" ry="3"/>
<path class="st4" d="M36,170c0,1.7-2.7,3-6,3s-6-1.3-6-3"/>
<path class="st4" d="M36,174c0,1.7-2.7,3-6,3s-6-1.3-6-3"/>
<path class="st4" d="M13,190v-6c0-1.7-1.3-3-3-3l0,0c-1.7,0-3,1.3-3,3v6c-1.4,1.1-2.3,2.9-1.9,4.9c0.4,1.9,1.9,3.6,3.8,4
	c3.2,0.7,6.1-1.8,6.1-4.9C15,192.4,14.2,190.9,13,190z"/>
<line class="st4" x1="9" y1="185" x2="7" y2="185"/>
<circle class="st4" cx="10" cy="194" r="1"/>
<line class="st4" x1="10" y1="188" x2="10" y2="194"/>
<path class="st4" d="M36,28c0-3.6-3.1-6.4-6.7-6c-2.6,0.3-4.8,2.4-5.2,5c-0.4,2.5,0.8,4.8,2.8,6.1c0.1,0.1,0.2,0.2,0.2,0.3v2.1
	c0,1.4,1.3,2.5,3,2.5s3-1.1,3-2.5v-2.1c0-0.1,0.1-0.2,0.2-0.3C34.9,32,36,30.2,36,28z"/>
<path class="st4" d="M32,28c0,1.1-0.9,2-2,2s-2-0.9-2-2"/>
<line class="st4" x1="30" y1="34" x2="30" y2="30"/>
<line class="st4" x1="27" y1="35" x2="33" y2="35"/>
<line class="st0" x1="15" y1="10" x2="8" y2="10"/>
<polyline class="st0" points="15,8 17,10 15,12 "/>
<rect x="3" y="43" class="st0" width="14" height="11"/>
<line class="st0" x1="10" y1="57" x2="10" y2="54"/>
<line class="st0" x1="7" y1="58" x2="13" y2="58"/>
<line class="st0" x1="2" y1="43" x2="18" y2="43"/>
<line class="st0" x1="10" y1="41" x2="10" y2="43"/>
<line class="st0" x1="7" y1="49" x2="7" y2="51"/>
<line class="st0" x1="10" y1="48" x2="10" y2="51"/>
<line class="st0" x1="13" y1="47" x2="13" y2="51"/>
<circle class="st4" cx="30" cy="10" r="3"/>
<path class="st4" d="M37.3,6.6l-0.7-1.2c-0.4-0.6-1.2-0.8-1.8-0.5l0,0C33.5,5.6,32,4.8,32,3.3l0,0C32,2.6,31.4,2,30.7,2h-1.4
	C28.6,2,28,2.6,28,3.3l0,0c0,1.4-1.5,2.3-2.8,1.6l0,0c-0.6-0.4-1.4-0.1-1.8,0.5l-0.7,1.2c-0.4,0.6-0.1,1.4,0.5,1.8l0,0
	c1.2,0.7,1.2,2.5,0,3.2l0,0c-0.6,0.4-0.8,1.2-0.5,1.8l0.7,1.2c0.4,0.6,1.2,0.8,1.8,0.5l0,0c1.2-0.7,2.8,0.2,2.8,1.6l0,0
	c0,0.7,0.6,1.3,1.3,1.3h1.4c0.7,0,1.3-0.6,1.3-1.3l0,0c0-1.4,1.5-2.3,2.8-1.6l0,0c0.6,0.4,1.4,0.1,1.8-0.5l0.7-1.2
	c0.4-0.6,0.1-1.4-0.5-1.8l0,0c-1.2-0.7-1.2-2.5,0-3.2l0,0C37.4,8,37.6,7.2,37.3,6.6z"/>
<circle class="st2" cx="30" cy="49" r="3"/>
<path class="st2" d="M26,56c0-2.2,1.8-4,4-4s4,1.8,4,4"/>
<circle class="st2" cx="30" cy="50" r="8"/>
<path class="st0" d="M13,15v1l0,0c0,1.1-0.9,2-2,2H5c-1.1,0-2-0.9-2-2V4c0-1.1,0.9-2,2-2h6c1.1,0,2,0.9,2,2v1"/>
<path class="st4" d="M4.3,175.7C2.9,174.2,2,172.2,2,170c0-4.4,3.6-8,8-8s8,3.6,8,8c0,2.2-0.9,4.2-2.3,5.7"/>
<line class="st4" x1="10" y1="164" x2="10" y2="162"/>
<line class="st4" x1="16" y1="170" x2="18" y2="170"/>
<line class="st4" x1="4" y1="170" x2="2" y2="170"/>
<line class="st4" x1="6" y1="166" x2="4.3" y2="164.4"/>
<line class="st4" x1="14" y1="166" x2="15" y2="165"/>
<line class="st4" x1="10" y1="172" x2="11" y2="167"/>
<circle class="st5" cx="10" cy="172" r="2"/>
<line class="st4" x1="8" y1="178" x2="12" y2="178"/>
<line class="st4" x1="24" y1="166" x2="24" y2="174"/>
<line class="st4" x1="36" y1="166" x2="36" y2="174"/>
</svg>
