<?xml version="1.0" encoding="utf-8"?>
<!-- Generator: Adobe Illustrator 24.2.1, SVG Export Plug-In . SVG Version: 6.00 Build 0)  -->
<svg version="1.1" xmlns="http://www.w3.org/2000/svg" xmlns:xlink="http://www.w3.org/1999/xlink" x="0px" y="0px" width="800px"
	 height="800px" viewBox="0 0 800 800" style="enable-background:new 0 0 800 800;" xml:space="preserve">
<style type="text/css">
	.st0{fill:#E1E5FF;}
	.st1{fill:none;stroke:#7892FF;stroke-width:2;stroke-linecap:round;stroke-linejoin:round;stroke-miterlimit:10;}
	.st2{fill:#7892FF;}
	.st3{fill:none;stroke:#FFFFFF;stroke-width:2;stroke-linecap:round;stroke-linejoin:round;stroke-miterlimit:10;}
	.st4{fill:url(#SVGID_1_);}
	.st5{fill:url(#SVGID_2_);}
	.st6{fill:url(#SVGID_3_);}
	.st7{fill:url(#SVGID_4_);}
	.st8{fill:url(#SVGID_5_);}
	.st9{fill:url(#SVGID_6_);}
	.st10{fill:none;stroke:#FFFFFF;stroke-width:2;stroke-linecap:round;stroke-miterlimit:10;}
	.st11{fill:url(#SVGID_7_);}
	.st12{fill:url(#SVGID_8_);}
	.st13{fill:url(#SVGID_9_);}
	.st14{fill:url(#SVGID_10_);}
	.st15{fill:url(#SVGID_11_);}
	.st16{fill:#FFFFFF;}
	.st17{fill:url(#SVGID_12_);}
	.st18{fill:url(#SVGID_13_);}
	.st19{fill:url(#SVGID_14_);}
	.st20{fill:url(#SVGID_15_);}
	.st21{fill:url(#SVGID_16_);}
	.st22{fill:url(#SVGID_17_);}
	.st23{fill:url(#SVGID_18_);}
	.st24{fill:url(#SVGID_19_);}
	.st25{fill:url(#SVGID_20_);}
	.st26{fill:url(#SVGID_21_);}
	.st27{fill:url(#SVGID_22_);}
	.st28{fill:url(#SVGID_23_);}
	.st29{fill:url(#SVGID_24_);}
	.st30{fill:url(#SVGID_25_);}
	.st31{fill:url(#SVGID_26_);}
	.st32{fill:#FFFFFF;stroke:#FFFFFF;stroke-width:2;stroke-linecap:round;stroke-linejoin:round;stroke-miterlimit:10;}
	.st33{fill:url(#SVGID_27_);}
	.st34{fill:url(#SVGID_28_);}
	.st35{fill:url(#SVGID_29_);}
	.st36{fill:url(#SVGID_30_);}
	.st37{fill:url(#SVGID_31_);}
	.st38{fill:url(#SVGID_32_);}
	.st39{fill:url(#SVGID_33_);}
	.st40{fill:url(#SVGID_34_);}
	.st41{fill:url(#SVGID_35_);}
	.st42{fill:url(#SVGID_36_);}
	.st43{fill:url(#SVGID_37_);}
	.st44{fill:url(#SVGID_38_);}
	.st45{fill:url(#SVGID_39_);}
	.st46{fill:url(#SVGID_40_);}
	.st47{fill:url(#SVGID_41_);}
	.st48{fill:url(#SVGID_42_);}
	.st49{fill:url(#SVGID_43_);}
	.st50{fill:url(#SVGID_44_);}
	.st51{fill:url(#SVGID_45_);}
	.st52{fill:url(#SVGID_46_);}
	.st53{fill:url(#SVGID_47_);}
	.st54{fill:url(#SVGID_48_);}
	.st55{fill:url(#SVGID_49_);}
	.st56{fill:url(#SVGID_50_);}
	.st57{fill:url(#SVGID_51_);}
	.st58{fill:url(#SVGID_52_);}
	.st59{fill:url(#SVGID_53_);}
	.st60{fill:url(#SVGID_54_);}
	.st61{fill:url(#SVGID_55_);}
	.st62{fill:url(#SVGID_56_);}
	.st63{fill:url(#SVGID_57_);}
</style>
<g id="Layer_2">
	<g id="Layer_7">
		<path class="st0" d="M348.7,65.7l-24.4-24.4c-3.5-3.5-3.5-9.1,0-12.6l24.4-24.4c3.5-3.5,9.1-3.5,12.6,0l24.4,24.4
			c3.5,3.5,3.5,9.1,0,12.6l-24.4,24.4C357.8,69.2,352.2,69.2,348.7,65.7z"/>
		<path class="st0" d="M428.7,65.7l-24.4-24.4c-3.5-3.5-3.5-9.1,0-12.6l24.4-24.4c3.5-3.5,9.1-3.5,12.6,0l24.4,24.4
			c3.5,3.5,3.5,9.1,0,12.6l-24.4,24.4C437.8,69.2,432.2,69.2,428.7,65.7z"/>
		<path class="st0" d="M508.7,65.7l-24.4-24.4c-3.5-3.5-3.5-9.1,0-12.6l24.4-24.4c3.5-3.5,9.1-3.5,12.6,0l24.4,24.4
			c3.5,3.5,3.5,9.1,0,12.6l-24.4,24.4C517.8,69.2,512.2,69.2,508.7,65.7z"/>
		<path class="st0" d="M588.7,65.7l-24.4-24.4c-3.5-3.5-3.5-9.1,0-12.6l24.4-24.4c3.5-3.5,9.1-3.5,12.6,0l24.4,24.4
			c3.5,3.5,3.5,9.1,0,12.6l-24.4,24.4C597.8,69.2,592.2,69.2,588.7,65.7z"/>
		<path class="st0" d="M668.7,65.7l-24.4-24.4c-3.5-3.5-3.5-9.1,0-12.6l24.4-24.4c3.5-3.5,9.1-3.5,12.6,0l24.4,24.4
			c3.5,3.5,3.5,9.1,0,12.6l-24.4,24.4C677.8,69.2,672.2,69.2,668.7,65.7z"/>
		<path class="st0" d="M268.7,65.7l-24.4-24.4c-3.5-3.5-3.5-9.1,0-12.6l24.4-24.4c3.5-3.5,9.1-3.5,12.6,0l24.4,24.4
			c3.5,3.5,3.5,9.1,0,12.6l-24.4,24.4C277.8,69.2,272.2,69.2,268.7,65.7z"/>
		<path class="st0" d="M188.7,65.7l-24.4-24.4c-3.5-3.5-3.5-9.1,0-12.6l24.4-24.4c3.5-3.5,9.1-3.5,12.6,0l24.4,24.4
			c3.5,3.5,3.5,9.1,0,12.6l-24.4,24.4C197.8,69.2,192.2,69.2,188.7,65.7z"/>
		<path class="st0" d="M108.7,65.7L84.3,41.3c-3.5-3.5-3.5-9.1,0-12.6l24.4-24.4c3.5-3.5,9.1-3.5,12.6,0l24.4,24.4
			c3.5,3.5,3.5,9.1,0,12.6l-24.4,24.4C117.8,69.2,112.2,69.2,108.7,65.7z"/>
		<path class="st0" d="M28.7,65.7L4.3,41.3c-3.5-3.5-3.5-9.1,0-12.6L28.7,4.3c3.5-3.5,9.1-3.5,12.6,0l24.4,24.4
			c3.5,3.5,3.5,9.1,0,12.6L41.3,65.7C37.8,69.2,32.2,69.2,28.7,65.7z"/>
	</g>
	<g id="Layer_7_1_">
		<path class="st0" d="M348.7,145.7l-24.4-24.4c-3.5-3.5-3.5-9.1,0-12.6l24.4-24.4c3.5-3.5,9.1-3.5,12.6,0l24.4,24.4
			c3.5,3.5,3.5,9.1,0,12.6l-24.4,24.4C357.8,149.2,352.2,149.2,348.7,145.7z"/>
		<path class="st0" d="M428.7,145.7l-24.4-24.4c-3.5-3.5-3.5-9.1,0-12.6l24.4-24.4c3.5-3.5,9.1-3.5,12.6,0l24.4,24.4
			c3.5,3.5,3.5,9.1,0,12.6l-24.4,24.4C437.8,149.2,432.2,149.2,428.7,145.7z"/>
		<path class="st0" d="M508.7,145.7l-24.4-24.4c-3.5-3.5-3.5-9.1,0-12.6l24.4-24.4c3.5-3.5,9.1-3.5,12.6,0l24.4,24.4
			c3.5,3.5,3.5,9.1,0,12.6l-24.4,24.4C517.8,149.2,512.2,149.2,508.7,145.7z"/>
		<path class="st0" d="M588.7,145.7l-24.4-24.4c-3.5-3.5-3.5-9.1,0-12.6l24.4-24.4c3.5-3.5,9.1-3.5,12.6,0l24.4,24.4
			c3.5,3.5,3.5,9.1,0,12.6l-24.4,24.4C597.8,149.2,592.2,149.2,588.7,145.7z"/>
		<path class="st0" d="M668.7,145.7l-24.4-24.4c-3.5-3.5-3.5-9.1,0-12.6l24.4-24.4c3.5-3.5,9.1-3.5,12.6,0l24.4,24.4
			c3.5,3.5,3.5,9.1,0,12.6l-24.4,24.4C677.8,149.2,672.2,149.2,668.7,145.7z"/>
		<path class="st0" d="M268.7,145.7l-24.4-24.4c-3.5-3.5-3.5-9.1,0-12.6l24.4-24.4c3.5-3.5,9.1-3.5,12.6,0l24.4,24.4
			c3.5,3.5,3.5,9.1,0,12.6l-24.4,24.4C277.8,149.2,272.2,149.2,268.7,145.7z"/>
		<path class="st0" d="M188.7,145.7l-24.4-24.4c-3.5-3.5-3.5-9.1,0-12.6l24.4-24.4c3.5-3.5,9.1-3.5,12.6,0l24.4,24.4
			c3.5,3.5,3.5,9.1,0,12.6l-24.4,24.4C197.8,149.2,192.2,149.2,188.7,145.7z"/>
		<path class="st0" d="M108.7,145.7l-24.4-24.4c-3.5-3.5-3.5-9.1,0-12.6l24.4-24.4c3.5-3.5,9.1-3.5,12.6,0l24.4,24.4
			c3.5,3.5,3.5,9.1,0,12.6l-24.4,24.4C117.8,149.2,112.2,149.2,108.7,145.7z"/>
		<path class="st0" d="M28.7,145.7L4.3,121.3c-3.5-3.5-3.5-9.1,0-12.6l24.4-24.4c3.5-3.5,9.1-3.5,12.6,0l24.4,24.4
			c3.5,3.5,3.5,9.1,0,12.6l-24.4,24.4C37.8,149.2,32.2,149.2,28.7,145.7z"/>
	</g>
	<g id="Layer_7_3_">
		<path class="st0" d="M348.7,225.7l-24.4-24.4c-3.5-3.5-3.5-9.1,0-12.6l24.4-24.4c3.5-3.5,9.1-3.5,12.6,0l24.4,24.4
			c3.5,3.5,3.5,9.1,0,12.6l-24.4,24.4C357.8,229.2,352.2,229.2,348.7,225.7z"/>
		<path class="st0" d="M428.7,225.7l-24.4-24.4c-3.5-3.5-3.5-9.1,0-12.6l24.4-24.4c3.5-3.5,9.1-3.5,12.6,0l24.4,24.4
			c3.5,3.5,3.5,9.1,0,12.6l-24.4,24.4C437.8,229.2,432.2,229.2,428.7,225.7z"/>
		<path class="st0" d="M508.7,225.7l-24.4-24.4c-3.5-3.5-3.5-9.1,0-12.6l24.4-24.4c3.5-3.5,9.1-3.5,12.6,0l24.4,24.4
			c3.5,3.5,3.5,9.1,0,12.6l-24.4,24.4C517.8,229.2,512.2,229.2,508.7,225.7z"/>
		<path class="st0" d="M588.7,225.7l-24.4-24.4c-3.5-3.5-3.5-9.1,0-12.6l24.4-24.4c3.5-3.5,9.1-3.5,12.6,0l24.4,24.4
			c3.5,3.5,3.5,9.1,0,12.6l-24.4,24.4C597.8,229.2,592.2,229.2,588.7,225.7z"/>
		<path class="st0" d="M668.7,225.7l-24.4-24.4c-3.5-3.5-3.5-9.1,0-12.6l24.4-24.4c3.5-3.5,9.1-3.5,12.6,0l24.4,24.4
			c3.5,3.5,3.5,9.1,0,12.6l-24.4,24.4C677.8,229.2,672.2,229.2,668.7,225.7z"/>
		<path class="st0" d="M268.7,225.7l-24.4-24.4c-3.5-3.5-3.5-9.1,0-12.6l24.4-24.4c3.5-3.5,9.1-3.5,12.6,0l24.4,24.4
			c3.5,3.5,3.5,9.1,0,12.6l-24.4,24.4C277.8,229.2,272.2,229.2,268.7,225.7z"/>
		<path class="st0" d="M188.7,225.7l-24.4-24.4c-3.5-3.5-3.5-9.1,0-12.6l24.4-24.4c3.5-3.5,9.1-3.5,12.6,0l24.4,24.4
			c3.5,3.5,3.5,9.1,0,12.6l-24.4,24.4C197.8,229.2,192.2,229.2,188.7,225.7z"/>
		<path class="st0" d="M108.7,225.7l-24.4-24.4c-3.5-3.5-3.5-9.1,0-12.6l24.4-24.4c3.5-3.5,9.1-3.5,12.6,0l24.4,24.4
			c3.5,3.5,3.5,9.1,0,12.6l-24.4,24.4C117.8,229.2,112.2,229.2,108.7,225.7z"/>
		<path class="st0" d="M28.7,225.7L4.3,201.3c-3.5-3.5-3.5-9.1,0-12.6l24.4-24.4c3.5-3.5,9.1-3.5,12.6,0l24.4,24.4
			c3.5,3.5,3.5,9.1,0,12.6l-24.4,24.4C37.8,229.2,32.2,229.2,28.7,225.7z"/>
	</g>
	<g id="Layer_7_2_">
		<path class="st0" d="M348.7,305.7l-24.4-24.4c-3.5-3.5-3.5-9.1,0-12.6l24.4-24.4c3.5-3.5,9.1-3.5,12.6,0l24.4,24.4
			c3.5,3.5,3.5,9.1,0,12.6l-24.4,24.4C357.8,309.2,352.2,309.2,348.7,305.7z"/>
		<path class="st0" d="M428.7,305.7l-24.4-24.4c-3.5-3.5-3.5-9.1,0-12.6l24.4-24.4c3.5-3.5,9.1-3.5,12.6,0l24.4,24.4
			c3.5,3.5,3.5,9.1,0,12.6l-24.4,24.4C437.8,309.2,432.2,309.2,428.7,305.7z"/>
		<path class="st0" d="M508.7,305.7l-24.4-24.4c-3.5-3.5-3.5-9.1,0-12.6l24.4-24.4c3.5-3.5,9.1-3.5,12.6,0l24.4,24.4
			c3.5,3.5,3.5,9.1,0,12.6l-24.4,24.4C517.8,309.2,512.2,309.2,508.7,305.7z"/>
		<path class="st0" d="M588.7,305.7l-24.4-24.4c-3.5-3.5-3.5-9.1,0-12.6l24.4-24.4c3.5-3.5,9.1-3.5,12.6,0l24.4,24.4
			c3.5,3.5,3.5,9.1,0,12.6l-24.4,24.4C597.8,309.2,592.2,309.2,588.7,305.7z"/>
		<path class="st0" d="M668.7,305.7l-24.4-24.4c-3.5-3.5-3.5-9.1,0-12.6l24.4-24.4c3.5-3.5,9.1-3.5,12.6,0l24.4,24.4
			c3.5,3.5,3.5,9.1,0,12.6l-24.4,24.4C677.8,309.2,672.2,309.2,668.7,305.7z"/>
		<path class="st0" d="M268.7,305.7l-24.4-24.4c-3.5-3.5-3.5-9.1,0-12.6l24.4-24.4c3.5-3.5,9.1-3.5,12.6,0l24.4,24.4
			c3.5,3.5,3.5,9.1,0,12.6l-24.4,24.4C277.8,309.2,272.2,309.2,268.7,305.7z"/>
		<path class="st0" d="M188.7,305.7l-24.4-24.4c-3.5-3.5-3.5-9.1,0-12.6l24.4-24.4c3.5-3.5,9.1-3.5,12.6,0l24.4,24.4
			c3.5,3.5,3.5,9.1,0,12.6l-24.4,24.4C197.8,309.2,192.2,309.2,188.7,305.7z"/>
		<path class="st0" d="M108.7,305.7l-24.4-24.4c-3.5-3.5-3.5-9.1,0-12.6l24.4-24.4c3.5-3.5,9.1-3.5,12.6,0l24.4,24.4
			c3.5,3.5,3.5,9.1,0,12.6l-24.4,24.4C117.8,309.2,112.2,309.2,108.7,305.7z"/>
		<path class="st0" d="M28.7,305.7L4.3,281.3c-3.5-3.5-3.5-9.1,0-12.6l24.4-24.4c3.5-3.5,9.1-3.5,12.6,0l24.4,24.4
			c3.5,3.5,3.5,9.1,0,12.6l-24.4,24.4C37.8,309.2,32.2,309.2,28.7,305.7z"/>
	</g>
</g>
<g id="Layer_1">
	<path class="st1" d="M378,259"/>
	<path class="st1" d="M331,272c0-6,10-16,24-10"/>
	<path class="st2" d="M145.6,279.9l-5.5-1.4c-0.7-0.2-1.1-0.8-1.1-1.4v-0.8l1.3-0.8c1.4-0.8,2.2-2.2,2.4-3.7c0,0,0,0,0,0
		c0.8,0,1.5-1.8,1.5-3s-0.7-2.3-1.5-2.3v-0.8c0-3.7-3-6.8-6.8-6.8s-6.8,3-6.8,6.8v0.8c-0.8,0-1.5,1-1.5,2.3s0.7,3,1.5,3c0,0,0,0,0,0
		c0.2,1.5,1.1,2.9,2.4,3.7l1.3,0.8v0.8c0,0.7-0.5,1.3-1.1,1.4l-5.5,1.4c-1.4,0.4-2.4,1.6-2.4,3.1v4.5c0,0.8,0.7,1.5,1.5,1.5h20.9
		c0.8,0,1.5-0.7,1.5-1.5V283C148,281.5,147,280.3,145.6,279.9z"/>
	<path class="st3" d="M132.1,264.3c0.3-1.4,1.3-2.6,2.7-3.1"/>
	<path class="st2" d="M103.6,279.9l-5.5-1.4c-0.7-0.2-1.1-0.8-1.1-1.4v-0.8l1.3-0.8c1.4-0.8,2.2-2.2,2.4-3.7c0,0,0,0,0,0
		c0.8,0,1.5-1.8,1.5-3s-0.7-2.3-1.5-2.3v-0.8c0-3.7-3-6.8-6.8-6.8s-6.8,3-6.8,6.8v0.8c-0.8,0-1.5,1-1.5,2.3s0.7,3,1.5,3c0,0,0,0,0,0
		c0.2,1.5,1.1,2.9,2.4,3.7l1.3,0.8v0.8c0,0.7-0.5,1.3-1.1,1.4l-5.5,1.4c-1.4,0.4-2.4,1.6-2.4,3.1v4.5c0,0.8,0.7,1.5,1.5,1.5h20.9
		c0.8,0,1.5-0.7,1.5-1.5V283C106,281.5,105,280.3,103.6,279.9z"/>
	<path class="st3" d="M90.1,265.3c0.3-1.4,1.3-2.6,2.7-3.1"/>
	<line class="st1" x1="195" y1="277" x2="195" y2="286"/>
	<path class="st1" d="M175,287v-9.4c0-2,1.6-3.6,3.6-3.6H195"/>
	<path class="st1" d="M215,286v-8.4c0-2-1.6-3.6-3.6-3.6H195"/>
	<path class="st2" d="M336,187h38v-12c0-2.2-1.8-4-4-4h-30c-2.2,0-4,1.8-4,4V187z"/>
	<linearGradient id="SVGID_1_" gradientUnits="userSpaceOnUse" x1="275" y1="217" x2="275" y2="173">
		<stop  offset="0" style="stop-color:#344BD1"/>
		<stop  offset="1" style="stop-color:#5767FF"/>
	</linearGradient>
	<circle class="st4" cx="275" cy="195" r="22"/>
	<linearGradient id="SVGID_2_" gradientUnits="userSpaceOnUse" x1="115" y1="215.5584" x2="115" y2="166">
		<stop  offset="0" style="stop-color:#344BD1"/>
		<stop  offset="1" style="stop-color:#5767FF"/>
	</linearGradient>
	<path class="st5" d="M117,215.6v-46.5V168c0-1.1-0.9-2-2-2l0,0c-1.1,0-2,0.9-2,2v1.4v45.2"/>
	<linearGradient id="SVGID_3_" gradientUnits="userSpaceOnUse" x1="409" y1="100" x2="461" y2="100">
		<stop  offset="0" style="stop-color:#344BD1"/>
		<stop  offset="1" style="stop-color:#5767FF"/>
	</linearGradient>
	<path class="st6" d="M456,98h-6v-1.9c0-3.4-2.7-6.1-6.1-6.1h-17.8c-3.4,0-6.1,2.7-6.1,6.1V98h-6c-2.8,0-5,2.2-5,5v7h52v-7
		C461,100.2,458.8,98,456,98z M424,96.1c0-1.2,0.9-2.1,2.1-2.1h17.8c1.2,0,2.1,0.9,2.1,2.1V98h-22V96.1z"/>
	<path class="st1" d="M265,87v19.1c0,1.6,1.3,2.9,2.9,2.9h14.1c1.6,0,2.9,1.3,2.9,2.9v6.1c0,1.6-1.3,2.9-2.9,2.9h-14.1
		c-1.6,0-2.9,1.3-2.9,2.9v6.1c0,1.6,1.3,2.9,2.9,2.9h14.1c1.6,0,2.9,1.3,2.9,2.9v7.1"/>
	<linearGradient id="SVGID_4_" gradientUnits="userSpaceOnUse" x1="207" y1="138" x2="207" y2="94">
		<stop  offset="0" style="stop-color:#344BD1"/>
		<stop  offset="1" style="stop-color:#5767FF"/>
	</linearGradient>
	<path class="st7" d="M214.4,138h-14.9c-2,0-3.6-1.6-3.6-3.6V97.6c0-2,1.6-3.6,3.6-3.6h14.9c2,0,3.6,1.6,3.6,3.6v36.9
		C218,136.4,216.4,138,214.4,138z"/>
	<linearGradient id="SVGID_5_" gradientUnits="userSpaceOnUse" x1="35" y1="137" x2="35" y2="87">
		<stop  offset="0" style="stop-color:#344BD1"/>
		<stop  offset="1" style="stop-color:#5767FF"/>
	</linearGradient>
	<path class="st8" d="M37,93.1V91h2c1.1,0,2-0.9,2-2s-0.9-2-2-2h-8c-1.1,0-2,0.9-2,2s0.9,2,2,2h2v2.1c-11.2,1-20,10.4-20,21.9
		c0,12.2,9.8,22,22,22s22-9.8,22-22C57,103.5,48.2,94.1,37,93.1z"/>
	<g id="Layer_1_1_">
	</g>
	
		<linearGradient id="SVGID_6_" gradientUnits="userSpaceOnUse" x1="35" y1="789" x2="35" y2="740" gradientTransform="matrix(1 0 0 -1 0 800)">
		<stop  offset="0" style="stop-color:#344BD1"/>
		<stop  offset="1" style="stop-color:#5767FF"/>
	</linearGradient>
	<path class="st9" d="M51.6,60H18.5c-1.9,0-3.5-1.6-3.5-3.5v-42c0-1.9,1.6-3.5,3.5-3.5h33c1.9,0,3.5,1.6,3.5,3.5v41.9
		C55.1,58.4,53.5,60,51.6,60z"/>
	<path class="st2" d="M46.9,9h-2.1c-1.1,0-2.2-0.6-2.8-1.5l0,0C41.4,6.6,40.3,6,39.2,6h-8.4c-1.1,0-2.2,0.6-2.8,1.5l0,0
		C27.4,8.4,26.3,9,25.2,9h-2.1c-1.7,0-3.1,1.4-3.1,3.1V14c0,0.6,0.4,1,1,1h28c0.6,0,1-0.4,1-1v-1.9C50,10.4,48.6,9,46.9,9z"/>
	<line class="st10" x1="23" y1="23" x2="32" y2="23"/>
	<line class="st10" x1="23" y1="27" x2="26" y2="27"/>
	<line class="st10" x1="23" y1="35" x2="32" y2="35"/>
	<line class="st10" x1="23" y1="39" x2="26" y2="39"/>
	<line class="st10" x1="23" y1="47" x2="32" y2="47"/>
	<line class="st10" x1="23" y1="51" x2="26" y2="51"/>
	<line class="st10" x1="45" y1="23" x2="47" y2="23"/>
	<line class="st10" x1="45" y1="27" x2="47" y2="27"/>
	<line class="st10" x1="45" y1="35" x2="47" y2="35"/>
	<line class="st10" x1="45" y1="39" x2="47" y2="39"/>
	<line class="st10" x1="45" y1="47" x2="47" y2="47"/>
	<line class="st10" x1="45" y1="51" x2="47" y2="51"/>
	<g id="Layer_5">
		
			<linearGradient id="SVGID_7_" gradientUnits="userSpaceOnUse" x1="115" y1="747" x2="115" y2="787" gradientTransform="matrix(1 0 0 -1 0 800)">
			<stop  offset="0" style="stop-color:#344BD1"/>
			<stop  offset="1" style="stop-color:#5767FF"/>
		</linearGradient>
		<path class="st11" d="M137.7,39.1c-1.5-0.4-2.7-1.8-2.7-3.3l0,0c0-7.9-4.4-14.9-11-18.3v-2.6c0-1.1-0.9-2-2-2h-14
			c-1.1,0-2,0.9-2,2v2.5c-6.5,3.3-11,10.1-11,17.9v0.5c0,1.5-1.2,2.9-2.7,3.3C91,39.4,90,40.6,90,42v7c0,2.2,1.8,4,4,4h42
			c2.2,0,4-1.8,4-4v-7C140,40.6,139,39.4,137.7,39.1z"/>
		<path class="st2" d="M115,32c-7.7,0-14,6.3-14,14s6.3,14,14,14s14-6.3,14-14S122.7,32,115,32z M115,54c-4.4,0-8-3.6-8-8s3.6-8,8-8
			s8,3.6,8,8S119.4,54,115,54z"/>
		
			<linearGradient id="SVGID_8_" gradientUnits="userSpaceOnUse" x1="105" y1="754" x2="125" y2="754" gradientTransform="matrix(1 0 0 -1 0 800)">
			<stop  offset="0" style="stop-color:#344BD1"/>
			<stop  offset="1" style="stop-color:#5767FF"/>
		</linearGradient>
		<circle class="st12" cx="115" cy="46" r="10"/>
	</g>
	<g id="Layer_4">
		<g>
			
				<linearGradient id="SVGID_9_" gradientUnits="userSpaceOnUse" x1="193.4125" y1="766.5875" x2="172.5875" y2="787.4125" gradientTransform="matrix(1 0 0 -1 0 800)">
				<stop  offset="0" style="stop-color:#344BD1"/>
				<stop  offset="1" style="stop-color:#5767FF"/>
			</linearGradient>
			<path class="st13" d="M192,12h-18c-1.1,0-2,0.9-2,2v18c0,1.1,0.9,2,2,2h18c1.1,0,2-0.9,2-2V14C194,12.9,193.1,12,192,12z"/>
			
				<linearGradient id="SVGID_10_" gradientUnits="userSpaceOnUse" x1="217.4125" y1="766.5875" x2="196.5875" y2="787.4125" gradientTransform="matrix(1 0 0 -1 0 800)">
				<stop  offset="0" style="stop-color:#344BD1"/>
				<stop  offset="1" style="stop-color:#5767FF"/>
			</linearGradient>
			<path class="st14" d="M216,12h-18c-1.1,0-2,0.9-2,2v18c0,1.1,0.9,2,2,2h18c1.1,0,2-0.9,2-2V14C218,12.9,217.1,12,216,12z"/>
			
				<linearGradient id="SVGID_11_" gradientUnits="userSpaceOnUse" x1="193.4125" y1="742.5875" x2="172.5875" y2="763.4125" gradientTransform="matrix(1 0 0 -1 0 800)">
				<stop  offset="0" style="stop-color:#344BD1"/>
				<stop  offset="1" style="stop-color:#5767FF"/>
			</linearGradient>
			<path class="st15" d="M192,36h-18c-1.1,0-2,0.9-2,2v18c0,1.1,0.9,2,2,2h18c1.1,0,2-0.9,2-2V38C194,36.9,193.1,36,192,36z"/>
		</g>
		<path class="st10" d="M100.6,28c1.4-2.9,3.7-5.4,6.6-7"/>
		<path class="st10" d="M109,46c0-3.3,2.7-6,6-6"/>
		<path class="st16" d="M186,17h-10c-0.6,0-1-0.4-1-1l0,0c0-0.5,0.4-1,1-1h10c0.6,0,1,0.4,1,1l0,0C187,16.6,186.6,17,186,17z"/>
		<path class="st16" d="M179,21h-3c-0.6,0-1-0.4-1-1l0,0c0-0.5,0.4-1,1-1h3c0.6,0,1,0.4,1,1l0,0C180,20.6,179.6,21,179,21z"/>
		<path class="st16" d="M210,17h-10c-0.6,0-1-0.4-1-1l0,0c0-0.5,0.4-1,1-1h10c0.6,0,1,0.4,1,1l0,0C211,16.6,210.6,17,210,17z"/>
		<path class="st16" d="M203,21h-3c-0.6,0-1-0.4-1-1l0,0c0-0.5,0.4-1,1-1h3c0.6,0,1,0.4,1,1l0,0C204,20.6,203.6,21,203,21z"/>
		<path class="st16" d="M186,41h-10c-0.6,0-1-0.5-1-1l0,0c0-0.5,0.4-1,1-1h10c0.6,0,1,0.5,1,1l0,0C187,40.5,186.6,41,186,41z"/>
		<path class="st16" d="M179,45h-3c-0.6,0-1-0.5-1-1l0,0c0-0.5,0.4-1,1-1h3c0.6,0,1,0.5,1,1l0,0C180,44.5,179.6,45,179,45z"/>
		<path class="st2" d="M216,58h-18c-1.1,0-2-0.9-2-2V38c0-1.1,0.9-2,2-2h18c1.1,0,2,0.9,2,2v18C218,57.1,217.1,58,216,58z"/>
		<path class="st16" d="M210,41h-10c-0.6,0-1-0.5-1-1l0,0c0-0.5,0.4-1,1-1h10c0.6,0,1,0.5,1,1l0,0C211,40.5,210.6,41,210,41z"/>
		<path class="st16" d="M203,45h-3c-0.6,0-1-0.5-1-1l0,0c0-0.5,0.4-1,1-1h3c0.6,0,1,0.5,1,1l0,0C204,44.5,203.6,45,203,45z"/>
	</g>
	<g id="Layer_8">
		<path class="st2" d="M263,58h-6c-1.1,0-2-0.9-2-2V14c0-1.1,0.9-2,2-2h6V58z"/>
		
			<linearGradient id="SVGID_12_" gradientUnits="userSpaceOnUse" x1="278.5" y1="742" x2="278.5" y2="788" gradientTransform="matrix(1 0 0 -1 0 800)">
			<stop  offset="0" style="stop-color:#344BD1"/>
			<stop  offset="1" style="stop-color:#5767FF"/>
		</linearGradient>
		<path class="st17" d="M290,58h-27V12h27c2.2,0,4,1.8,4,4v38C294,56.2,292.2,58,290,58z"/>
		
			<linearGradient id="SVGID_13_" gradientUnits="userSpaceOnUse" x1="259" y1="783" x2="253" y2="783" gradientTransform="matrix(1 0 0 -1 0 800)">
			<stop  offset="0" style="stop-color:#344BD1"/>
			<stop  offset="1" style="stop-color:#5767FF"/>
		</linearGradient>
		<path class="st18" d="M258,18h-4c-0.6,0-1-0.4-1-1l0,0c0-0.6,0.4-1,1-1h4c0.6,0,1,0.4,1,1l0,0C259,17.6,258.6,18,258,18z"/>
		
			<linearGradient id="SVGID_14_" gradientUnits="userSpaceOnUse" x1="259" y1="777" x2="253" y2="777" gradientTransform="matrix(1 0 0 -1 0 800)">
			<stop  offset="0" style="stop-color:#344BD1"/>
			<stop  offset="1" style="stop-color:#5767FF"/>
		</linearGradient>
		<path class="st19" d="M258,24h-4c-0.6,0-1-0.4-1-1l0,0c0-0.6,0.4-1,1-1h4c0.6,0,1,0.4,1,1l0,0C259,23.6,258.6,24,258,24z"/>
		
			<linearGradient id="SVGID_15_" gradientUnits="userSpaceOnUse" x1="259" y1="771" x2="253" y2="771" gradientTransform="matrix(1 0 0 -1 0 800)">
			<stop  offset="0" style="stop-color:#344BD1"/>
			<stop  offset="1" style="stop-color:#5767FF"/>
		</linearGradient>
		<path class="st20" d="M258,30h-4c-0.6,0-1-0.4-1-1l0,0c0-0.6,0.4-1,1-1h4c0.6,0,1,0.4,1,1l0,0C259,29.6,258.6,30,258,30z"/>
		
			<linearGradient id="SVGID_16_" gradientUnits="userSpaceOnUse" x1="259" y1="765" x2="253" y2="765" gradientTransform="matrix(1 0 0 -1 0 800)">
			<stop  offset="0" style="stop-color:#344BD1"/>
			<stop  offset="1" style="stop-color:#5767FF"/>
		</linearGradient>
		<path class="st21" d="M258,36h-4c-0.6,0-1-0.4-1-1l0,0c0-0.6,0.4-1,1-1h4c0.6,0,1,0.4,1,1l0,0C259,35.6,258.6,36,258,36z"/>
		
			<linearGradient id="SVGID_17_" gradientUnits="userSpaceOnUse" x1="259" y1="759" x2="253" y2="759" gradientTransform="matrix(1 0 0 -1 0 800)">
			<stop  offset="0" style="stop-color:#344BD1"/>
			<stop  offset="1" style="stop-color:#5767FF"/>
		</linearGradient>
		<path class="st22" d="M258,42h-4c-0.6,0-1-0.4-1-1l0,0c0-0.6,0.4-1,1-1h4c0.6,0,1,0.4,1,1l0,0C259,41.6,258.6,42,258,42z"/>
		
			<linearGradient id="SVGID_18_" gradientUnits="userSpaceOnUse" x1="259" y1="753" x2="253" y2="753" gradientTransform="matrix(1 0 0 -1 0 800)">
			<stop  offset="0" style="stop-color:#344BD1"/>
			<stop  offset="1" style="stop-color:#5767FF"/>
		</linearGradient>
		<path class="st23" d="M258,48h-4c-0.6,0-1-0.4-1-1l0,0c0-0.6,0.4-1,1-1h4c0.6,0,1,0.4,1,1l0,0C259,47.6,258.6,48,258,48z"/>
		
			<linearGradient id="SVGID_19_" gradientUnits="userSpaceOnUse" x1="259" y1="747" x2="253" y2="747" gradientTransform="matrix(1 0 0 -1 0 800)">
			<stop  offset="0" style="stop-color:#344BD1"/>
			<stop  offset="1" style="stop-color:#5767FF"/>
		</linearGradient>
		<path class="st24" d="M258,54h-4c-0.6,0-1-0.4-1-1l0,0c0-0.6,0.4-1,1-1h4c0.6,0,1,0.4,1,1l0,0C259,53.6,258.6,54,258,54z"/>
		<path class="st3" d="M280,35h-6v-6h6c1.7,0,3,1.3,3,3l0,0C283,33.7,281.7,35,280,35z"/>
		<path class="st3" d="M280,41h-6v-6h6c1.7,0,3,1.3,3,3l0,0C283,39.7,281.7,41,280,41z"/>
		<line class="st3" x1="278" y1="27" x2="278" y2="29"/>
		<line class="st3" x1="278" y1="41" x2="278" y2="43"/>
	</g>
	<g id="Layer_9">
		
			<linearGradient id="SVGID_20_" gradientUnits="userSpaceOnUse" x1="354.8" y1="741" x2="354.8" y2="789" gradientTransform="matrix(1 0 0 -1 0 800)">
			<stop  offset="0" style="stop-color:#344BD1"/>
			<stop  offset="1" style="stop-color:#5767FF"/>
		</linearGradient>
		<path class="st25" d="M377,40.8l-0.8-0.4c-4.1-2.4-4.1-8.3,0-10.7l0.8-0.4c1-0.6,1.3-1.8,0.7-2.8l-4-6.9c-0.6-1-1.8-1.3-2.8-0.7
			l-0.8,0.4c-4.1,2.4-9.3-0.6-9.3-5.3v-1c0-1.1-0.9-2-2-2h-8c-1.1,0-2,0.9-2,2v0.9c0,4.8-5.1,7.7-9.3,5.3l-0.8-0.4
			c-1-0.6-2.2-0.2-2.8,0.7l-4,6.9c-0.6,1-0.2,2.2,0.7,2.8l0.8,0.4c4.1,2.4,4.1,8.3,0,10.7l-0.8,0.4c-1,0.6-1.3,1.8-0.7,2.8l4,6.9
			c0.6,1,1.8,1.3,2.8,0.7l0.8-0.4c4.1-2.4,9.3,0.6,9.3,5.3v1c0,1.1,0.9,2,2,2h8c1.1,0,2-0.9,2-2v-0.9c0-4.8,5.1-7.7,9.3-5.3l0.8,0.4
			c1,0.6,2.2,0.2,2.8-0.7l4-6.9C378.3,42.6,378,41.4,377,40.8z M355,47c-6.6,0-12-5.4-12-12s5.4-12,12-12s12,5.4,12,12
			S361.6,47,355,47z"/>
		<circle class="st2" cx="355" cy="35" r="14"/>
		
			<linearGradient id="SVGID_21_" gradientUnits="userSpaceOnUse" x1="355" y1="755" x2="355" y2="775" gradientTransform="matrix(1 0 0 -1 0 800)">
			<stop  offset="0" style="stop-color:#344BD1"/>
			<stop  offset="1" style="stop-color:#5767FF"/>
		</linearGradient>
		<circle class="st26" cx="355" cy="35" r="10"/>
		<path class="st3" d="M350,35c0-2.8,2.2-5,5-5"/>
	</g>
	<g id="Layer_10">
		
			<linearGradient id="SVGID_22_" gradientUnits="userSpaceOnUse" x1="435" y1="739" x2="435" y2="789" gradientTransform="matrix(1 0 0 -1 0 800)">
			<stop  offset="0" style="stop-color:#344BD1"/>
			<stop  offset="1" style="stop-color:#5767FF"/>
		</linearGradient>
		<path class="st27" d="M451.9,61h-33.8c-1.7,0-3.1-1.4-3.1-3.1V14.1c0-1.7,1.4-3.1,3.1-3.1h33.8c1.7,0,3.1,1.4,3.1,3.1v43.8
			C455,59.6,453.6,61,451.9,61z"/>
		<path class="st2" d="M422.7,37h-15.4c-1.3,0-2.3-1-2.3-2.3V19.3c0-1.3,1-2.3,2.3-2.3h15.4c1.3,0,2.3,1,2.3,2.3v15.4
			C425,36,424,37,422.7,37z"/>
		<path class="st3" d="M419,25.5c0,1.4-1.1,2.5-2.5,2.5s-2.5-1.1-2.5-2.5s1.1-2.5,2.5-2.5"/>
		<line class="st3" x1="411" y1="31" x2="414.2" y2="27.8"/>
		<path class="st2" d="M462.7,57h-15.4c-1.3,0-2.3-1-2.3-2.3V39.3c0-1.3,1-2.3,2.3-2.3h15.4c1.3,0,2.3,1,2.3,2.3v15.4
			C465,56,464,57,462.7,57z"/>
		<circle class="st3" cx="455" cy="47" r="3"/>
		<line class="st3" x1="455" y1="42" x2="455" y2="44"/>
		<line class="st3" x1="455" y1="50" x2="455" y2="52"/>
		<line class="st3" x1="458.5" y1="43.5" x2="457.1" y2="44.9"/>
		<line class="st3" x1="452.9" y1="49.1" x2="451.5" y2="50.5"/>
		<line class="st3" x1="460" y1="47" x2="458" y2="47"/>
		<line class="st3" x1="452" y1="47" x2="450" y2="47"/>
		<line class="st3" x1="458.5" y1="50.5" x2="457.1" y2="49.1"/>
		<line class="st3" x1="452.9" y1="44.9" x2="451.5" y2="43.5"/>
		<g>
			<line class="st3" x1="431" y1="22" x2="441" y2="22"/>
			<line class="st3" x1="443" y1="22" x2="447" y2="22"/>
			<line class="st3" x1="431" y1="32" x2="436" y2="32"/>
			<line class="st3" x1="438" y1="32" x2="447" y2="32"/>
			<line class="st3" x1="423" y1="42" x2="427" y2="42"/>
			<line class="st3" x1="429" y1="42" x2="439" y2="42"/>
			<line class="st3" x1="423" y1="52" x2="434" y2="52"/>
			<line class="st3" x1="434" y1="52" x2="439" y2="52"/>
			<line class="st3" x1="442" y1="20" x2="442" y2="24"/>
			<line class="st3" x1="437" y1="30" x2="437" y2="34"/>
			<line class="st3" x1="428" y1="40" x2="428" y2="44"/>
			<line class="st3" x1="434" y1="50" x2="434" y2="54"/>
		</g>
	</g>
	<g id="Layer_11">
		<circle class="st2" cx="515" cy="53" r="9"/>
		
			<linearGradient id="SVGID_23_" gradientUnits="userSpaceOnUse" x1="515" y1="745" x2="515" y2="788.0036" gradientTransform="matrix(1 0 0 -1 0 800)">
			<stop  offset="0" style="stop-color:#344BD1"/>
			<stop  offset="1" style="stop-color:#5767FF"/>
		</linearGradient>
		<path class="st28" d="M532,38.1v-8.6c0-9.5-7.8-17.6-17.3-17.4c-9.2,0.2-16.7,7.7-16.7,17v9.1c0,2.2-1.8,3.9-3.9,3.9l0,0
			c-1.1,0-2.1,0.9-2.1,2.1v4.4c0,3.6,2.9,6.5,6.5,6.5h33c3.6,0,6.5-2.9,6.5-6.5v-4.4c0-1.1-0.9-2.1-2.1-2.1l0,0
			C533.8,42,532,40.2,532,38.1z"/>
		<path class="st2" d="M539,38h-18c-2.8,0-5-2.2-5-5l0,0c0-2.8,2.2-5,5-5h18c2.8,0,5,2.2,5,5l0,0C544,35.8,541.8,38,539,38z"/>
		<line class="st3" x1="527" y1="33" x2="533" y2="33"/>
		<path class="st3" d="M503.3,26.3c1-4.4,4.5-7.9,8.9-9"/>
		<circle class="st3" cx="522" cy="33" r="1"/>
	</g>
	<g id="Layer_12">
		<path class="st2" d="M614,23h-43v-5.1c0-3.2,2.6-5.9,5.9-5.9h31.3c3.2,0,5.9,2.6,5.9,5.9V23H614z"/>
		
			<linearGradient id="SVGID_24_" gradientUnits="userSpaceOnUse" x1="595" y1="744" x2="595" y2="782" gradientTransform="matrix(1 0 0 -1 0 800)">
			<stop  offset="0" style="stop-color:#344BD1"/>
			<stop  offset="1" style="stop-color:#5767FF"/>
		</linearGradient>
		<path class="st29" d="M610.8,56h-31.6c-4.5,0-8.2-3.7-8.2-8.2V18h39.8c4.5,0,8.2,3.7,8.2,8.2v21.6C619,52.3,615.3,56,610.8,56z"/>
		<path class="st2" d="M618.6,44H597c-3.8,0-7-3.1-7-7l0,0c0-3.8,3.2-7,7-7h21.6c2.4,0,4.4,2,4.4,4.4v5.2C623,42,621,44,618.6,44z"
			/>
		<circle class="st3" cx="597" cy="37" r="2"/>
		<path class="st3" d="M579,25v3h3.5c0.8,0,1.5-0.7,1.5-1.5l0,0c0-0.8-0.7-1.5-1.5-1.5H579z"/>
		<line class="st3" x1="581" y1="24" x2="581" y2="25"/>
		<line class="st3" x1="581" y1="31" x2="581" y2="32"/>
		<path class="st3" d="M579,28v3h3.5c0.8,0,1.5-0.7,1.5-1.5l0,0c0-0.8-0.7-1.5-1.5-1.5H579z"/>
	</g>
	<g id="Layer_13">
		<path class="st2" d="M700,21h-50v-3c0-2.8,2.2-5,5-5h40c2.8,0,5,2.2,5,5V21z"/>
		
			<linearGradient id="SVGID_25_" gradientUnits="userSpaceOnUse" x1="675" y1="743" x2="675" y2="779" gradientTransform="matrix(1 0 0 -1 0 800)">
			<stop  offset="0" style="stop-color:#344BD1"/>
			<stop  offset="1" style="stop-color:#5767FF"/>
		</linearGradient>
		<path class="st30" d="M695,57h-40c-2.8,0-5-2.3-5-5V21h50v31C700,54.8,697.8,57,695,57z"/>
		<line class="st3" x1="656" y1="27" x2="658" y2="27"/>
		<line class="st3" x1="656" y1="33" x2="658" y2="33"/>
		<line class="st3" x1="656" y1="39" x2="658" y2="39"/>
		<line class="st3" x1="656" y1="45" x2="658" y2="45"/>
		<line class="st3" x1="656" y1="51" x2="658" y2="51"/>
		<line class="st3" x1="662" y1="27" x2="667" y2="27"/>
		<line class="st3" x1="662" y1="33" x2="675" y2="33"/>
		<line class="st3" x1="662" y1="39" x2="666" y2="39"/>
		<line class="st3" x1="662" y1="45" x2="673" y2="45"/>
		<line class="st3" x1="662" y1="51" x2="667" y2="51"/>
		<line class="st3" x1="671" y1="27" x2="682" y2="27"/>
		<line class="st3" x1="679" y1="33" x2="687" y2="33"/>
		<line class="st3" x1="670" y1="39" x2="681" y2="39"/>
		<line class="st3" x1="686" y1="27" x2="694" y2="27"/>
		<circle class="st16" cx="656" cy="17" r="1"/>
		<circle class="st16" cx="660" cy="17" r="1"/>
		<circle class="st16" cx="664" cy="17" r="1"/>
	</g>
	<line class="st3" x1="35" y1="95" x2="35" y2="97"/>
	<line class="st3" x1="17" y1="116" x2="15" y2="116"/>
	<line class="st3" x1="55" y1="116" x2="53" y2="116"/>
	<line class="st3" x1="22" y1="103" x2="20.6" y2="101.6"/>
	<line class="st3" x1="48.4" y1="129.4" x2="47" y2="128"/>
	<line class="st3" x1="23" y1="128" x2="21.6" y2="129.4"/>
	<line class="st3" x1="49.4" y1="101.6" x2="48" y2="103"/>
	<path class="st1" d="M41.4,121.4c-1.6,1.6-3.9,2.6-6.4,2.6c-5,0-9-4-9-9s4-9,9-9"/>
	<path class="st1" d="M44.2,124.2c-2.4,2.4-5.6,3.8-9.2,3.8c-7.2,0-13-5.8-13-13s5.8-13,13-13"/>
	<path class="st1" d="M38.5,118.5c-0.9,0.9-2.2,1.5-3.5,1.5c-2.8,0-5-2.2-5-5s2.2-5,5-5"/>
	<circle class="st3" cx="35" cy="115" r="1"/>
	<line class="st3" x1="35" y1="102" x2="35" y2="113"/>
	<linearGradient id="SVGID_26_" gradientUnits="userSpaceOnUse" x1="115" y1="141" x2="115" y2="89">
		<stop  offset="0" style="stop-color:#344BD1"/>
		<stop  offset="1" style="stop-color:#5767FF"/>
	</linearGradient>
	<circle class="st31" cx="115" cy="115" r="26"/>
	<circle class="st1" cx="115" cy="115" r="21"/>
	<polygon class="st32" points="119,109 116,114 120,114 110,122 113,116 109,116 113,109 	"/>
	<circle class="st3" cx="115" cy="115" r="15"/>
	<linearGradient id="SVGID_27_" gradientUnits="userSpaceOnUse" x1="183" y1="138" x2="183" y2="94">
		<stop  offset="0" style="stop-color:#344BD1"/>
		<stop  offset="1" style="stop-color:#5767FF"/>
	</linearGradient>
	<path class="st33" d="M190.4,138h-14.9c-2,0-3.6-1.6-3.6-3.6V97.6c0-2,1.6-3.6,3.6-3.6h14.9c2,0,3.6,1.6,3.6,3.6v36.9
		C194,136.4,192.4,138,190.4,138z"/>
	<polyline class="st3" points="187,109 183,101 179,109 	"/>
	<path class="st3" d="M208,105h-4v-4h4c1.1,0,2,0.9,2,2l0,0C210,104.1,209.1,105,208,105z"/>
	<path class="st3" d="M208,109h-4v-4h4c1.1,0,2,0.9,2,2l0,0C210,108.1,209.1,109,208,109z"/>
	<path class="st3" d="M183,109"/>
	<line class="st3" x1="181" y1="106" x2="185" y2="106"/>
	<line class="st3" x1="177" y1="116" x2="189" y2="116"/>
	<line class="st3" x1="201" y1="116" x2="213" y2="116"/>
	<line class="st1" x1="177" y1="120" x2="189" y2="120"/>
	<line class="st1" x1="201" y1="120" x2="213" y2="120"/>
	<line class="st1" x1="180" y1="124" x2="186" y2="124"/>
	<line class="st1" x1="204" y1="124" x2="210" y2="124"/>
	<linearGradient id="SVGID_28_" gradientUnits="userSpaceOnUse" x1="265" y1="102" x2="265" y2="92">
		<stop  offset="0" style="stop-color:#344BD1"/>
		<stop  offset="1" style="stop-color:#5767FF"/>
	</linearGradient>
	<path class="st34" d="M275.8,102h-21.7c-1.7,0-3.2-1.4-3.2-3.2v-3.7c0-1.7,1.4-3.2,3.2-3.2h21.7c1.7,0,3.2,1.4,3.2,3.2v3.7
		C279,100.6,277.6,102,275.8,102z"/>
	<linearGradient id="SVGID_29_" gradientUnits="userSpaceOnUse" x1="285" y1="114" x2="285" y2="104">
		<stop  offset="0" style="stop-color:#344BD1"/>
		<stop  offset="1" style="stop-color:#5767FF"/>
	</linearGradient>
	<path class="st35" d="M295.8,114h-21.7c-1.7,0-3.2-1.4-3.2-3.2v-3.7c0-1.7,1.4-3.2,3.2-3.2h21.7c1.7,0,3.2,1.4,3.2,3.2v3.7
		C299,112.6,297.6,114,295.8,114z"/>
	<path class="st2" d="M275.8,126h-21.7c-1.7,0-3.2-1.4-3.2-3.2v-3.7c0-1.7,1.4-3.2,3.2-3.2h21.7c1.7,0,3.2,1.4,3.2,3.2v3.7
		C279,124.6,277.6,126,275.8,126z"/>
	<path class="st2" d="M377,104h-44v-3c0-2.8,2.2-5,5-5h34c2.8,0,5,2.2,5,5V104z"/>
	<linearGradient id="SVGID_30_" gradientUnits="userSpaceOnUse" x1="285" y1="138" x2="285" y2="128">
		<stop  offset="0" style="stop-color:#344BD1"/>
		<stop  offset="1" style="stop-color:#5767FF"/>
	</linearGradient>
	<path class="st36" d="M295.8,138h-21.7c-1.7,0-3.2-1.4-3.2-3.2v-3.7c0-1.7,1.4-3.2,3.2-3.2h21.7c1.7,0,3.2,1.4,3.2,3.2v3.7
		C299,136.6,297.6,138,295.8,138z"/>
	<line class="st3" x1="257" y1="97" x2="264" y2="97"/>
	<line class="st3" x1="277" y1="109" x2="284" y2="109"/>
	<line class="st3" x1="257" y1="121" x2="264" y2="121"/>
	<line class="st3" x1="277" y1="133" x2="284" y2="133"/>
	<linearGradient id="SVGID_31_" gradientUnits="userSpaceOnUse" x1="355" y1="134" x2="355" y2="104">
		<stop  offset="0" style="stop-color:#344BD1"/>
		<stop  offset="1" style="stop-color:#5767FF"/>
	</linearGradient>
	<path class="st37" d="M372,134h-34c-2.8,0-5-2.2-5-5v-25h44v25C377,131.8,374.8,134,372,134z"/>
	<linearGradient id="SVGID_32_" gradientUnits="userSpaceOnUse" x1="409" y1="126" x2="461" y2="126">
		<stop  offset="0" style="stop-color:#344BD1"/>
		<stop  offset="1" style="stop-color:#5767FF"/>
	</linearGradient>
	<path class="st38" d="M456,140h-42c-2.8,0-5-2.2-5-5v-23h52v23C461,137.8,458.8,140,456,140z"/>
	<linearGradient id="SVGID_33_" gradientUnits="userSpaceOnUse" x1="355" y1="100" x2="355" y2="94">
		<stop  offset="0" style="stop-color:#344BD1"/>
		<stop  offset="1" style="stop-color:#5767FF"/>
	</linearGradient>
	<path class="st39" d="M354.9,100h0.3c0.5,0,0.9-0.4,0.9-0.9v-4.3c0-0.5-0.4-0.9-0.9-0.9h-0.3c-0.5,0-0.9,0.4-0.9,0.9v4.3
		C354,99.6,354.4,100,354.9,100z"/>
	<linearGradient id="SVGID_34_" gradientUnits="userSpaceOnUse" x1="361" y1="100" x2="361" y2="94">
		<stop  offset="0" style="stop-color:#344BD1"/>
		<stop  offset="1" style="stop-color:#5767FF"/>
	</linearGradient>
	<path class="st40" d="M360.9,100h0.3c0.5,0,0.9-0.4,0.9-0.9v-4.3c0-0.5-0.4-0.9-0.9-0.9h-0.3c-0.5,0-0.9,0.4-0.9,0.9v4.3
		C360,99.6,360.4,100,360.9,100z"/>
	<linearGradient id="SVGID_35_" gradientUnits="userSpaceOnUse" x1="367" y1="100" x2="367" y2="94">
		<stop  offset="0" style="stop-color:#344BD1"/>
		<stop  offset="1" style="stop-color:#5767FF"/>
	</linearGradient>
	<path class="st41" d="M366.9,100h0.3c0.5,0,0.9-0.4,0.9-0.9v-4.3c0-0.5-0.4-0.9-0.9-0.9h-0.3c-0.5,0-0.9,0.4-0.9,0.9v4.3
		C366,99.6,366.4,100,366.9,100z"/>
	<linearGradient id="SVGID_36_" gradientUnits="userSpaceOnUse" x1="373" y1="100" x2="373" y2="94">
		<stop  offset="0" style="stop-color:#344BD1"/>
		<stop  offset="1" style="stop-color:#5767FF"/>
	</linearGradient>
	<path class="st42" d="M372.9,100h0.3c0.5,0,0.9-0.4,0.9-0.9v-4.3c0-0.5-0.4-0.9-0.9-0.9h-0.3c-0.5,0-0.9,0.4-0.9,0.9v4.3
		C372,99.6,372.4,100,372.9,100z"/>
	<linearGradient id="SVGID_37_" gradientUnits="userSpaceOnUse" x1="349" y1="100" x2="349" y2="94">
		<stop  offset="0" style="stop-color:#344BD1"/>
		<stop  offset="1" style="stop-color:#5767FF"/>
	</linearGradient>
	<path class="st43" d="M348.9,100h0.3c0.5,0,0.9-0.4,0.9-0.9v-4.3c0-0.5-0.4-0.9-0.9-0.9h-0.3c-0.5,0-0.9,0.4-0.9,0.9v4.3
		C348,99.6,348.4,100,348.9,100z"/>
	<linearGradient id="SVGID_38_" gradientUnits="userSpaceOnUse" x1="343" y1="100" x2="343" y2="94">
		<stop  offset="0" style="stop-color:#344BD1"/>
		<stop  offset="1" style="stop-color:#5767FF"/>
	</linearGradient>
	<path class="st44" d="M342.9,100h0.3c0.5,0,0.9-0.4,0.9-0.9v-4.3c0-0.5-0.4-0.9-0.9-0.9h-0.3c-0.5,0-0.9,0.4-0.9,0.9v4.3
		C342,99.6,342.4,100,342.9,100z"/>
	<linearGradient id="SVGID_39_" gradientUnits="userSpaceOnUse" x1="337" y1="100" x2="337" y2="94">
		<stop  offset="0" style="stop-color:#344BD1"/>
		<stop  offset="1" style="stop-color:#5767FF"/>
	</linearGradient>
	<path class="st45" d="M336.9,100h0.3c0.5,0,0.9-0.4,0.9-0.9v-4.3c0-0.5-0.4-0.9-0.9-0.9h-0.3c-0.5,0-0.9,0.4-0.9,0.9v4.3
		C336,99.6,336.4,100,336.9,100z"/>
	<line class="st3" x1="340" y1="111" x2="342" y2="111"/>
	<line class="st3" x1="347" y1="111" x2="349" y2="111"/>
	<line class="st3" x1="354" y1="111" x2="356" y2="111"/>
	<line class="st3" x1="361" y1="111" x2="363" y2="111"/>
	<line class="st3" x1="368" y1="111" x2="370" y2="111"/>
	<line class="st3" x1="340" y1="116" x2="342" y2="116"/>
	<line class="st3" x1="347" y1="116" x2="349" y2="116"/>
	<line class="st3" x1="354" y1="116" x2="356" y2="116"/>
	<line class="st3" x1="361" y1="116" x2="363" y2="116"/>
	<line class="st3" x1="368" y1="116" x2="370" y2="116"/>
	<line class="st3" x1="340" y1="121" x2="342" y2="121"/>
	<line class="st3" x1="347" y1="121" x2="349" y2="121"/>
	<line class="st3" x1="354" y1="121" x2="356" y2="121"/>
	<line class="st3" x1="361" y1="121" x2="363" y2="121"/>
	<line class="st3" x1="368" y1="121" x2="370" y2="121"/>
	<line class="st3" x1="340" y1="126" x2="342" y2="126"/>
	<line class="st3" x1="347" y1="126" x2="349" y2="126"/>
	<line class="st3" x1="354" y1="126" x2="356" y2="126"/>
	<line class="st3" x1="361" y1="126" x2="363" y2="126"/>
	<line class="st3" x1="368" y1="126" x2="370" y2="126"/>
	<path class="st2" d="M419.6,116h-0.2c-1.3,0-2.4-1.1-2.4-2.4v-5.2c0-1.3,1.1-2.4,2.4-2.4h0.2c1.3,0,2.4,1.1,2.4,2.4v5.2
		C422,114.9,420.9,116,419.6,116z"/>
	<path class="st2" d="M450.6,116h-0.2c-1.3,0-2.4-1.1-2.4-2.4v-5.2c0-1.3,1.1-2.4,2.4-2.4h0.2c1.3,0,2.4,1.1,2.4,2.4v5.2
		C453,114.9,451.9,116,450.6,116z"/>
	<path class="st16" d="M440.7,127l-0.8-0.5c0-0.2,0.1-0.4,0.1-0.5s0-0.4-0.1-0.5l0.8-0.5c0.7-0.4,1-1.4,0.6-2.1l-0.5-0.8
		c-0.4-0.7-1.4-1-2.1-0.6L438,122c-0.3-0.2-0.6-0.4-1-0.5v-0.9c0-0.9-0.7-1.5-1.5-1.5h-0.9c-0.9,0-1.5,0.7-1.5,1.5v0.9
		c-0.3,0.2-0.7,0.3-1,0.5l-0.8-0.4c-0.7-0.4-1.7-0.2-2.1,0.6l-0.5,0.8c-0.4,0.7-0.2,1.7,0.6,2.1l0.8,0.5c0,0.2-0.1,0.4-0.1,0.5
		s0,0.4,0.1,0.5l-0.8,0.5c-0.7,0.4-1,1.4-0.6,2.1l0.5,0.8c0.4,0.7,1.4,1,2.1,0.6l0.8-0.4c0.3,0.2,0.6,0.4,1,0.5v0.9
		c0,0.9,0.7,1.5,1.5,1.5h0.9c0.9,0,1.5-0.7,1.5-1.5v-0.9c0.3-0.2,0.7-0.3,1-0.5l0.8,0.4c0.7,0.4,1.7,0.2,2.1-0.6l0.5-0.8
		C441.7,128.4,441.5,127.4,440.7,127z M435,129c-1.7,0-3-1.3-3-3s1.3-3,3-3s3,1.3,3,3S436.7,129,435,129z"/>
	<linearGradient id="SVGID_40_" gradientUnits="userSpaceOnUse" x1="35" y1="173" x2="35" y2="201">
		<stop  offset="0" style="stop-color:#344BD1"/>
		<stop  offset="1" style="stop-color:#5767FF"/>
	</linearGradient>
	<rect x="11" y="173" class="st46" width="48" height="28"/>
	<linearGradient id="SVGID_41_" gradientUnits="userSpaceOnUse" x1="115" y1="176" x2="115" y2="202">
		<stop  offset="0" style="stop-color:#344BD1"/>
		<stop  offset="1" style="stop-color:#5767FF"/>
	</linearGradient>
	<rect x="94" y="176" class="st47" width="42" height="26"/>
	<path class="st2" d="M59,174H11v-1.3c0-1.5,1.2-2.7,2.7-2.7h42.6c1.5,0,2.7,1.2,2.7,2.7V174z"/>
	<path class="st2" d="M59,200v1.3c0,1.5-1.2,2.7-2.7,2.7H13.7c-1.5,0-2.7-1.2-2.7-2.7V200"/>
	<linearGradient id="SVGID_42_" gradientUnits="userSpaceOnUse" x1="35" y1="204" x2="35" y2="209">
		<stop  offset="0" style="stop-color:#344BD1"/>
		<stop  offset="1" style="stop-color:#5767FF"/>
	</linearGradient>
	<path class="st48" d="M47,209c-2.2,0-3-2.8-3-5H26c0,2.2-0.8,5-3,5H47z"/>
	<path class="st2" d="M50.5,212h-31c-0.8,0-1.5-0.7-1.5-1.5l0,0c0-0.8,0.7-1.5,1.5-1.5h31c0.8,0,1.5,0.7,1.5,1.5l0,0
		C52,211.3,51.3,212,50.5,212z"/>
	<line class="st3" x1="18" y1="180" x2="26" y2="180"/>
	<line class="st1" x1="18" y1="184" x2="22" y2="184"/>
	<line class="st3" x1="52" y1="194" x2="26" y2="194"/>
	<line class="st3" x1="34" y1="189" x2="34" y2="193"/>
	<line class="st3" x1="39" y1="185" x2="39" y2="193"/>
	<line class="st3" x1="44" y1="188" x2="44" y2="193"/>
	<line class="st3" x1="49" y1="181" x2="49" y2="193"/>
	<line class="st3" x1="29" y1="191" x2="29" y2="193"/>
	<path class="st2" d="M136,176H94c-1.1,0-2-0.9-2-2l0,0c0-1.1,0.9-2,2-2h42c1.1,0,2,0.9,2,2l0,0C138,175.1,137.1,176,136,176z"/>
	<path class="st2" d="M136,206H94c-1.1,0-2-0.9-2-2l0,0c0-1.1,0.9-2,2-2h42c1.1,0,2,0.9,2,2l0,0C138,205.1,137.1,206,136,206z"/>
	<path class="st2" d="M121.5,217h-13c-0.8,0-1.5-0.7-1.5-1.5l0,0c0-0.8,0.7-1.5,1.5-1.5h13c0.8,0,1.5,0.7,1.5,1.5l0,0
		C123,216.3,122.3,217,121.5,217z"/>
	<g>
		<polyline class="st1" points="102,197 106,197 125,197 128,197 		"/>
		<line class="st1" x1="109" y1="188" x2="109" y2="197"/>
		<line class="st1" x1="113" y1="189" x2="113" y2="197"/>
		<line class="st1" x1="117" y1="185" x2="117" y2="197"/>
		<line class="st1" x1="121" y1="189" x2="121" y2="197"/>
		<line class="st1" x1="105" y1="193" x2="105" y2="197"/>
		<line class="st1" x1="125" y1="182" x2="125" y2="197"/>
		<polyline class="st3" points="102,193 105,193 109,188 113,189 117,185 121,189 125,181 128,181 		"/>
	</g>
	
		<linearGradient id="SVGID_43_" gradientUnits="userSpaceOnUse" x1="195" y1="629" x2="195" y2="580" gradientTransform="matrix(1 0 0 -1 0 800)">
		<stop  offset="0" style="stop-color:#344BD1"/>
		<stop  offset="1" style="stop-color:#5767FF"/>
	</linearGradient>
	<path class="st49" d="M211.6,220h-33.1c-1.9,0-3.5-1.6-3.5-3.5v-42c0-1.9,1.6-3.5,3.5-3.5h33c1.9,0,3.5,1.6,3.5,3.5v41.9
		C215.1,218.4,213.5,220,211.6,220z"/>
	<path class="st2" d="M206.9,169h-2.1c-1.1,0-2.2-0.6-2.8-1.5l0,0c-0.6-0.9-1.7-1.5-2.8-1.5h-8.4c-1.1,0-2.2,0.6-2.8,1.5l0,0
		c-0.6,0.9-1.7,1.5-2.8,1.5h-2.1c-1.7,0-3.1,1.4-3.1,3.1v1.9c0,0.6,0.4,1,1,1h28c0.6,0,1-0.4,1-1v-1.9
		C210,170.4,208.6,169,206.9,169z"/>
	<line class="st10" x1="183" y1="183" x2="200" y2="183"/>
	<line class="st1" x1="183" y1="187" x2="196" y2="187"/>
	<line class="st1" x1="183" y1="191" x2="196" y2="191"/>
	<circle class="st2" cx="215" cy="202" r="11"/>
	<polyline class="st3" points="209,203 211,203 214,197 216,207 219,202 221,202 	"/>
	<line class="st10" x1="183" y1="198" x2="190" y2="198"/>
	<line class="st1" x1="183" y1="202" x2="196" y2="202"/>
	<line class="st1" x1="183" y1="206" x2="196" y2="206"/>
	<line class="st1" x1="183" y1="210" x2="196" y2="210"/>
	<line class="st3" x1="275" y1="176" x2="275" y2="177"/>
	<line class="st3" x1="257" y1="195" x2="256" y2="195"/>
	<line class="st3" x1="294" y1="195" x2="293" y2="195"/>
	<line class="st3" x1="275" y1="213" x2="275" y2="214"/>
	<path class="st1" d="M275,187c4.4,0,8,3.6,8,8s-3.6,8-8,8s-8-3.6-8-8"/>
	<path class="st1" d="M275,182c7.2,0,13,5.8,13,13s-5.8,13-13,13s-13-5.8-13-13"/>
	<circle class="st3" cx="275" cy="195" r="3"/>
	<line class="st3" x1="275" y1="182" x2="275" y2="192"/>
	<line class="st3" x1="272" y1="195" x2="262" y2="195"/>
	<linearGradient id="SVGID_44_" gradientUnits="userSpaceOnUse" x1="336" y1="186" x2="374" y2="186">
		<stop  offset="0" style="stop-color:#344BD1"/>
		<stop  offset="1" style="stop-color:#5767FF"/>
	</linearGradient>
	<path class="st50" d="M355.8,172.8l-1.6-1.6c-1.4-1.4-3.3-2.2-5.3-2.2H340c-2.2,0-4,1.8-4,4v26c0,2.2,1.8,4,4,4h30c2.2,0,4-1.8,4-4
		v-20c0-2.2-1.8-4-4-4h-8.9C359.1,175,357.2,174.2,355.8,172.8z"/>
	<path class="st2" d="M359,206v-8c0-0.6-0.4-1-1-1h-6c-0.6,0-1,0.4-1,1v8h-4.6c-0.5,0-0.8,0.6-0.5,1.1l8.6,9.4
		c0.2,0.3,0.7,0.3,0.9,0l8.6-9.4c0.4-0.4,0.1-1.1-0.5-1.1H359z"/>
	<path class="st16" d="M362,187h-1.2c0.1-0.3,0.2-0.6,0.2-1c0-1.7-1.3-3-3-3c-0.6,0-1.1,0.2-1.5,0.4c-0.8-1.4-2.2-2.4-4-2.4
		c-2.5,0-4.5,2-4.5,4.5c0,0.5,0.1,1,0.3,1.5H348c-1.1,0-2,0.9-2,2s0.9,2,2,2h14c1.1,0,2-0.9,2-2S363.1,187,362,187z"/>
	<line class="st3" x1="265.5" y1="178.5" x2="266" y2="179.4"/>
	<line class="st3" x1="259.4" y1="204" x2="258.5" y2="204.5"/>
	<line class="st3" x1="291.5" y1="185.5" x2="290.6" y2="186"/>
	<line class="st3" x1="284" y1="210.6" x2="284.5" y2="211.5"/>
	<line class="st3" x1="258.5" y1="185.5" x2="259.4" y2="186"/>
	<line class="st3" x1="266" y1="210.6" x2="265.5" y2="211.5"/>
	<line class="st3" x1="284.5" y1="178.5" x2="284" y2="179.4"/>
	<line class="st3" x1="290.6" y1="204" x2="291.5" y2="204.5"/>
	<linearGradient id="SVGID_45_" gradientUnits="userSpaceOnUse" x1="35" y1="298" x2="35" y2="284">
		<stop  offset="0" style="stop-color:#344BD1"/>
		<stop  offset="1" style="stop-color:#5767FF"/>
	</linearGradient>
	<path class="st51" d="M40,298H30c-1.1,0-2-0.9-2-2v-10c0-1.1,0.9-2,2-2h10c1.1,0,2,0.9,2,2v10C42,297.1,41.1,298,40,298z"/>
	<linearGradient id="SVGID_46_" gradientUnits="userSpaceOnUse" x1="51" y1="298" x2="51" y2="284">
		<stop  offset="0" style="stop-color:#344BD1"/>
		<stop  offset="1" style="stop-color:#5767FF"/>
	</linearGradient>
	<path class="st52" d="M56,298H46c-1.1,0-2-0.9-2-2v-10c0-1.1,0.9-2,2-2h10c1.1,0,2,0.9,2,2v10C58,297.1,57.1,298,56,298z"/>
	<linearGradient id="SVGID_47_" gradientUnits="userSpaceOnUse" x1="19" y1="298" x2="19" y2="284">
		<stop  offset="0" style="stop-color:#344BD1"/>
		<stop  offset="1" style="stop-color:#5767FF"/>
	</linearGradient>
	<path class="st53" d="M24,298H14c-1.1,0-2-0.9-2-2v-10c0-1.1,0.9-2,2-2h10c1.1,0,2,0.9,2,2v10C26,297.1,25.1,298,24,298z"/>
	<linearGradient id="SVGID_48_" gradientUnits="userSpaceOnUse" x1="27" y1="282" x2="27" y2="268">
		<stop  offset="0" style="stop-color:#344BD1"/>
		<stop  offset="1" style="stop-color:#5767FF"/>
	</linearGradient>
	<path class="st54" d="M32,282H22c-1.1,0-2-0.9-2-2v-10c0-1.1,0.9-2,2-2h10c1.1,0,2,0.9,2,2v10C34,281.1,33.1,282,32,282z"/>
	<linearGradient id="SVGID_49_" gradientUnits="userSpaceOnUse" x1="43" y1="282" x2="43" y2="268">
		<stop  offset="0" style="stop-color:#344BD1"/>
		<stop  offset="1" style="stop-color:#5767FF"/>
	</linearGradient>
	<path class="st55" d="M48,282H38c-1.1,0-2-0.9-2-2v-10c0-1.1,0.9-2,2-2h10c1.1,0,2,0.9,2,2v10C50,281.1,49.1,282,48,282z"/>
	<linearGradient id="SVGID_50_" gradientUnits="userSpaceOnUse" x1="35" y1="266" x2="35" y2="252">
		<stop  offset="0" style="stop-color:#344BD1"/>
		<stop  offset="1" style="stop-color:#5767FF"/>
	</linearGradient>
	<path class="st56" d="M40,266H30c-1.1,0-2-0.9-2-2v-10c0-1.1,0.9-2,2-2h10c1.1,0,2,0.9,2,2v10C42,265.1,41.1,266,40,266z"/>
	<line class="st3" x1="32" y1="257" x2="38" y2="257"/>
	<line class="st1" x1="32" y1="261" x2="35" y2="261"/>
	<line class="st3" x1="24" y1="273" x2="30" y2="273"/>
	<line class="st1" x1="24" y1="277" x2="27" y2="277"/>
	<line class="st3" x1="40" y1="273" x2="46" y2="273"/>
	<line class="st1" x1="40" y1="277" x2="43" y2="277"/>
	<line class="st3" x1="16" y1="289" x2="22" y2="289"/>
	<line class="st1" x1="16" y1="293" x2="19" y2="293"/>
	<line class="st3" x1="32" y1="289" x2="38" y2="289"/>
	<line class="st1" x1="32" y1="293" x2="35" y2="293"/>
	<line class="st3" x1="48" y1="289" x2="54" y2="289"/>
	<line class="st1" x1="48" y1="293" x2="51" y2="293"/>
	<linearGradient id="SVGID_51_" gradientUnits="userSpaceOnUse" x1="115" y1="295" x2="115" y2="256">
		<stop  offset="0" style="stop-color:#344BD1"/>
		<stop  offset="1" style="stop-color:#5767FF"/>
	</linearGradient>
	<path class="st57" d="M127.8,284.2l-7.3-1.8c-0.9-0.2-1.5-1-1.5-1.9V279l1.7-1c1.8-1.1,3-2.9,3.3-5c0,0,0,0,0.1,0c1.1,0,2-2.3,2-4
		s-0.9-3-2-3v-1c0-5-4-9-9-9s-9,4-9,9v1c-1.1,0-2,1.3-2,3s0.9,4,2,4c0,0,0,0,0.1,0c0.3,2.1,1.4,3.9,3.3,5l1.7,1v1.4
		c0,0.9-0.6,1.7-1.5,1.9l-7.3,1.8c-1.9,0.5-3.2,2.2-3.2,4.1v4.7c0,1.1,0.9,2,2,2H129c1.1,0,2-0.9,2-2v-4.7
		C131,286.4,129.7,284.7,127.8,284.2z"/>
	<path class="st3" d="M109.3,264c0.6-2,2.1-3.6,4-4.4"/>
	<linearGradient id="SVGID_52_" gradientUnits="userSpaceOnUse" x1="195" y1="278" x2="195" y2="240">
		<stop  offset="0" style="stop-color:#344BD1"/>
		<stop  offset="1" style="stop-color:#5767FF"/>
	</linearGradient>
	<path class="st58" d="M207.8,268.2l-7.3-1.8c-0.9-0.2-1.5-1-1.5-1.9V263l1.7-1c1.8-1.1,3-2.9,3.3-5c0,0,0,0,0.1,0c1.1,0,2-2.3,2-4
		s-0.9-3-2-3v-1c0-5-4-9-9-9s-9,4-9,9v1c-1.1,0-2,1.3-2,3s0.9,4,2,4c0,0,0,0,0.1,0c0.3,2.1,1.4,3.9,3.3,5l1.7,1v1.4
		c0,0.9-0.6,1.7-1.5,1.9l-7.3,1.8c-1.9,0.5-3.2,2.2-3.2,4.1v3.7c0,1.1,0.9,2,2,2H209c1.1,0,2-0.9,2-2v-3.7
		C211,270.4,209.7,268.7,207.8,268.2z"/>
	<path class="st3" d="M189.3,248c0.6-2,2.1-3.6,4-4.4"/>
	<path class="st2" d="M181.4,295.9l-3.6-0.9c-0.4-0.1-0.8-0.5-0.8-1v-0.6l0.8-0.5c0.9-0.5,1.5-1.5,1.6-2.5c0,0,0,0,0,0
		c0.6,0,1-1.2,1-2s-0.4-1.5-1-1.5v-0.5c0-2.5-2-4.5-4.5-4.5s-4.5,2-4.5,4.5v0.5c-0.6,0-1,0.7-1,1.5s0.4,2,1,2c0,0,0,0,0,0
		c0.1,1,0.7,2,1.6,2.5l0.8,0.5v0.6c0,0.5-0.3,0.9-0.8,1l-3.6,0.9c-0.9,0.2-1.6,1.1-1.6,2v2c0,0.6,0.5,1,1,1h14c0.6,0,1-0.5,1-1v-2
		C183,297,182.3,296.2,181.4,295.9z"/>
	<path class="st2" d="M201.4,295.9l-3.6-0.9c-0.4-0.1-0.8-0.5-0.8-1v-0.6l0.8-0.5c0.9-0.5,1.5-1.5,1.6-2.5c0,0,0,0,0,0
		c0.6,0,1-1.2,1-2s-0.4-1.5-1-1.5v-0.5c0-2.5-2-4.5-4.5-4.5s-4.5,2-4.5,4.5v0.5c-0.6,0-1,0.7-1,1.5s0.4,2,1,2c0,0,0,0,0,0
		c0.1,1,0.7,2,1.6,2.5l0.8,0.5v0.6c0,0.5-0.3,0.9-0.8,1l-3.6,0.9c-0.9,0.2-1.6,1.1-1.6,2v2c0,0.6,0.5,1,1,1h14c0.6,0,1-0.5,1-1v-2
		C203,297,202.3,296.2,201.4,295.9z"/>
	<path class="st2" d="M221.4,295.9l-3.6-0.9c-0.4-0.1-0.8-0.5-0.8-1v-0.6l0.8-0.5c0.9-0.5,1.5-1.5,1.6-2.5c0,0,0,0,0,0
		c0.6,0,1-1.2,1-2s-0.4-1.5-1-1.5v-0.5c0-2.5-2-4.5-4.5-4.5s-4.5,2-4.5,4.5v0.5c-0.6,0-1,0.7-1,1.5s0.4,2,1,2c0,0,0,0,0,0
		c0.1,1,0.7,2,1.6,2.5l0.8,0.5v0.6c0,0.5-0.3,0.9-0.8,1l-3.6,0.9c-0.9,0.2-1.6,1.1-1.6,2v2c0,0.6,0.5,1,1,1h14c0.6,0,1-0.5,1-1v-2
		C223,297,222.3,296.2,221.4,295.9z"/>
	<path class="st16" d="M173,285"/>
	<linearGradient id="SVGID_53_" gradientUnits="userSpaceOnUse" x1="351" y1="245" x2="351" y2="245">
		<stop  offset="0" style="stop-color:#344BD1"/>
		<stop  offset="1" style="stop-color:#5767FF"/>
	</linearGradient>
	<path class="st59" d="M351,245"/>
	<linearGradient id="SVGID_54_" gradientUnits="userSpaceOnUse" x1="355" y1="249.2399" x2="355" y2="303">
		<stop  offset="0" style="stop-color:#344BD1"/>
		<stop  offset="1" style="stop-color:#5767FF"/>
	</linearGradient>
	<path class="st60" d="M368.1,259.3l-10.6-9.1c-1.4-1.2-3.6-1.2-5,0l-10.6,9.1c-1.2,1.1-1.9,2.6-1.9,4.2v35.5c0,2.2,1.7,3.9,3.9,3.9
		h22.2c2.2,0,3.9-1.7,3.9-3.9v-35.5C370,261.9,369.3,260.4,368.1,259.3z M355,268c-2.8,0-5-2.2-5-5s2.2-5,5-5s5,2.2,5,5
		S357.8,268,355,268z"/>
	<path class="st1" d="M355,262c14,6,23,2,23-3"/>
	<line class="st3" x1="349" y1="277" x2="361" y2="277"/>
	<line class="st1" x1="349" y1="281" x2="361" y2="281"/>
	<line class="st1" x1="349" y1="285" x2="361" y2="285"/>
	<line class="st1" x1="349" y1="289" x2="361" y2="289"/>
	<line class="st1" x1="349" y1="293" x2="361" y2="293"/>
	<linearGradient id="SVGID_55_" gradientUnits="userSpaceOnUse" x1="276" y1="298" x2="276" y2="261">
		<stop  offset="0" style="stop-color:#344BD1"/>
		<stop  offset="1" style="stop-color:#5767FF"/>
	</linearGradient>
	<path class="st61" d="M296,298h-40c-2.8,0-5-2.2-5-5v-32h50v32C301,295.8,298.8,298,296,298z"/>
	<path class="st2" d="M301,261h-50v-4c0-2.8,2.2-5,5-5h40c2.8,0,5,2.2,5,5V261z"/>
	<circle class="st16" cx="257.5" cy="256.5" r="1.5"/>
	<circle class="st16" cx="262.5" cy="256.5" r="1.5"/>
	<circle class="st16" cx="267.5" cy="256.5" r="1.5"/>
	<line class="st3" x1="259" y1="269" x2="263" y2="269"/>
	<line class="st3" x1="289" y1="269" x2="293" y2="269"/>
	<line class="st3" x1="279" y1="269" x2="283" y2="269"/>
	<line class="st3" x1="269" y1="269" x2="273" y2="269"/>
	<line class="st1" x1="259" y1="274" x2="263" y2="274"/>
	<line class="st1" x1="289" y1="274" x2="293" y2="274"/>
	<line class="st1" x1="279" y1="274" x2="283" y2="274"/>
	<line class="st1" x1="269" y1="274" x2="273" y2="274"/>
	<line class="st1" x1="259" y1="279" x2="263" y2="279"/>
	<line class="st1" x1="289" y1="279" x2="293" y2="279"/>
	<line class="st1" x1="279" y1="279" x2="283" y2="279"/>
	<line class="st1" x1="269" y1="279" x2="273" y2="279"/>
	<line class="st1" x1="259" y1="284" x2="263" y2="284"/>
	<line class="st1" x1="289" y1="284" x2="293" y2="284"/>
	<line class="st1" x1="279" y1="284" x2="283" y2="284"/>
	<line class="st1" x1="269" y1="284" x2="273" y2="284"/>
	<line class="st1" x1="259" y1="289" x2="263" y2="289"/>
	<line class="st1" x1="289" y1="289" x2="293" y2="289"/>
	<line class="st1" x1="279" y1="289" x2="283" y2="289"/>
	<line class="st1" x1="269" y1="289" x2="273" y2="289"/>
	
		<linearGradient id="SVGID_56_" gradientUnits="userSpaceOnUse" x1="434.8" y1="501" x2="434.8" y2="549" gradientTransform="matrix(1 0 0 -1 0 800)">
		<stop  offset="0" style="stop-color:#344BD1"/>
		<stop  offset="1" style="stop-color:#5767FF"/>
	</linearGradient>
	<path class="st62" d="M457,280.8l-0.8-0.4c-4.1-2.4-4.1-8.3,0-10.7l0.8-0.4c1-0.6,1.3-1.8,0.7-2.8l-4-6.9c-0.6-1-1.8-1.3-2.8-0.7
		l-0.8,0.4c-4.1,2.4-9.3-0.6-9.3-5.3v-1c0-1.1-0.9-2-2-2h-8c-1.1,0-2,0.9-2,2v0.9c0,4.8-5.1,7.7-9.3,5.3l-0.8-0.4
		c-1-0.6-2.2-0.2-2.8,0.7l-4,6.9c-0.6,1-0.2,2.2,0.7,2.8l0.8,0.4c4.1,2.4,4.1,8.3,0,10.7l-0.8,0.4c-1,0.6-1.3,1.8-0.7,2.8l4,6.9
		c0.6,1,1.8,1.3,2.8,0.7l0.8-0.4c4.1-2.4,9.3,0.6,9.3,5.3v1c0,1.1,0.9,2,2,2h8c1.1,0,2-0.9,2-2v-0.9c0-4.8,5.1-7.7,9.3-5.3l0.8,0.4
		c1,0.6,2.2,0.2,2.8-0.7l4-6.9C458.3,282.6,458,281.4,457,280.8z M435,287c-6.6,0-12-5.4-12-12s5.4-12,12-12s12,5.4,12,12
		S441.6,287,435,287z"/>
	<circle class="st2" cx="435" cy="275" r="14"/>
	
		<linearGradient id="SVGID_57_" gradientUnits="userSpaceOnUse" x1="435" y1="513" x2="435" y2="537" gradientTransform="matrix(1 0 0 -1 0 800)">
		<stop  offset="0" style="stop-color:#344BD1"/>
		<stop  offset="1" style="stop-color:#5767FF"/>
	</linearGradient>
	<circle class="st63" cx="435" cy="275" r="12"/>
	<polyline class="st3" points="431,273 429,275 431,277 	"/>
	<polyline class="st3" points="439,277 441,275 439,273 	"/>
	<line class="st3" x1="436" y1="271" x2="434" y2="279"/>
</g>
</svg>
