<?xml version="1.0" encoding="utf-8"?>
<!-- Generator: Adobe Illustrator 24.0.2, SVG Export Plug-In . SVG Version: 6.00 Build 0)  -->
<svg version="1.1" id="Layer_1" xmlns="http://www.w3.org/2000/svg" xmlns:xlink="http://www.w3.org/1999/xlink" x="0px" y="0px"
	 width="34px" height="34px" viewBox="0 0 34 34" style="enable-background:new 0 0 34 34;" xml:space="preserve">
<style type="text/css">
	.st0{fill:none;stroke:#FFFFFF;stroke-width:2;stroke-linecap:round;stroke-linejoin:round;stroke-miterlimit:10;}
</style>
<path class="st0" d="M32,17c-2.4,0-4.3-1.8-4.6-4.1c-1.2,0.7-2.5,1-3.9,1c-4.4,0-8-3.6-8-8c0-1.9,0.6-3.6,1.7-4.9h-0.1
	C8.2,1,1,8.2,1,17s7.2,16,16,16s16-7.2,16-16v-0.1C32.7,17,32.3,17,32,17z"/>
<circle class="st0" cx="23.3" cy="5.2" r="0.8"/>
<circle class="st0" cx="18.2" cy="25.2" r="0.8"/>
<circle class="st0" cx="24.7" cy="21.2" r="0.8"/>
<circle class="st0" cx="11.5" cy="21.2" r="0.8"/>
<circle class="st0" cx="11.7" cy="14.1" r="0.8"/>
<circle class="st0" cx="31.5" cy="7" r="0.8"/>
<path class="st0" d="M10.7,6.8C7.3,8.9,5,12.7,5,17c0,1.3,0.2,2.6,0.6,3.8"/>
</svg>
