<?xml version="1.0" encoding="utf-8"?>
<!-- Generator: Adobe Illustrator 22.1.0, SVG Export Plug-In . SVG Version: 6.00 Build 0)  -->
<svg version="1.1" id="Layer_1" xmlns="http://www.w3.org/2000/svg" xmlns:xlink="http://www.w3.org/1999/xlink" x="0px" y="0px"
	 width="16px" height="16px" viewBox="0 0 16 16" style="enable-background:new 0 0 16 16;" xml:space="preserve">
<style type="text/css">
	.st0{fill:#6B6D7A;}
</style>
<g>
	<path class="st0" d="M8,2c3.3,0,6,2.7,6,6c0,3.3-2.7,6-6,6c-3.3,0-6-2.7-6-6C2,4.7,4.7,2,8,2 M8,1L8,1C4.2,1,1,4.2,1,8v0
		c0,3.8,3.2,7,7,7h0c3.8,0,7-3.1,7-7v0C15,4.2,11.9,1,8,1L8,1z"/>
</g>
<g>
	<path class="st0" d="M8,4.7c0.3,0,0.5,0,0.8,0.1S9.2,5,9.4,5.2c0.2,0.1,0.3,0.3,0.4,0.5s0.1,0.4,0.1,0.6c0,0.3-0.1,0.6-0.3,0.9
		C9.4,7.5,9.2,7.7,9,8C8.8,8.1,8.7,8.2,8.6,8.3S8.4,8.5,8.4,8.6S8.3,8.7,8.2,8.8c0,0.1,0,0.2,0,0.3c0,0.1,0,0.3,0.1,0.4L7.3,9.6
		c0-0.1,0-0.2-0.1-0.3s0-0.2,0-0.3c0-0.1,0-0.3,0.1-0.4c0-0.1,0.1-0.2,0.1-0.3C7.5,8.2,7.6,8.1,7.7,8C7.8,7.9,7.9,7.8,8,7.7
		c0.1-0.1,0.2-0.2,0.3-0.3C8.4,7.2,8.5,7.1,8.5,7s0.1-0.2,0.1-0.3s0.1-0.2,0.1-0.3c0-0.2-0.1-0.4-0.2-0.5C8.4,5.7,8.2,5.6,7.9,5.6
		c-0.2,0-0.3,0-0.4,0.1C7.3,5.7,7.2,5.8,7,5.9L6.6,5.2C6.8,5,7,4.9,7.3,4.8S7.8,4.7,8,4.7z M7.2,10.9c0-0.2,0.1-0.4,0.2-0.5
		c0.1-0.1,0.3-0.2,0.5-0.2c0.2,0,0.3,0.1,0.5,0.2c0.1,0.1,0.2,0.3,0.2,0.5c0,0.2-0.1,0.4-0.2,0.5c-0.1,0.1-0.3,0.2-0.5,0.2
		c-0.2,0-0.3-0.1-0.5-0.2S7.2,11.1,7.2,10.9z"/>
</g>
</svg>
