<svg version="1.1" id="Layer_1" xmlns="http://www.w3.org/2000/svg" x="0" y="0" width="160" height="40" xml:space="preserve"><style>.st2{fill:#46474f}</style><path d="M36 40H4c-2.2 0-4-1.8-4-4V4c0-2.2 1.8-4 4-4h32c2.2 0 4 1.8 4 4v32c0 2.2-1.8 4-4 4z" fill="#5767ff"/><path d="M25 11.3c-2 0-3.7.8-5 2.1-1.3-1.3-3-2.1-5-2.1-3.9 0-7 3.1-7 7v8.3c0 1.1.9 2 2 2s2-.9 2-2v-8.3c0-1.7 1.3-3 3-3s3 1.3 3 3v8.3c0 1.1.9 2 2 2s2-.9 2-2v-8.3c0-1.7 1.3-3 3-3s3 1.3 3 3v8.3c0 1.1.9 2 2 2s2-.9 2-2v-8.3c0-3.8-3.1-7-7-7z" fill="#fff"/><path class="st2" d="M67 14c-1.6 0-3.1.7-4 1.9-.9-1.2-2.4-1.9-4-1.9-2.8 0-5 2.1-5 4.8V25c0 .6.4 1 1 1s1-.4 1-1v-6.3c0-1.5 1.3-2.8 3-2.8s3 1.2 3 2.8V25c0 .6.4 1 1 1s1-.4 1-1v-6.3c0-1.5 1.3-2.8 3-2.8s3 1.2 3 2.8V25c0 .6.4 1 1 1s1-.4 1-1v-6.3c0-2.6-2.2-4.7-5-4.7zM111 14c-2.8 0-5 2.3-5 5.1V25c0 .6.4 1 1 1s1-.4 1-1v-5.9c0-1.7 1.3-3.1 3-3.1s3 1.4 3 3.1c0 .6.4 1 1 1s1-.4 1-1c0-2.8-2.2-5.1-5-5.1zM76 14c-.6 0-1 .4-1 1v10c0 .6.4 1 1 1s1-.4 1-1V15c0-.6-.4-1-1-1zM136 24h-1.9c-1.7 0-3.1-1.5-3.1-3.3V16h3c.6 0 1-.4 1-1s-.4-1-1-1h-3v-3c0-.6-.4-1-1-1s-1 .4-1 1v9.7c0 2.9 2.3 5.3 5.1 5.3h1.9c.6 0 1-.4 1-1s-.4-1-1-1zM148 14c-.6 0-1 .4-1 1v.5c-1.1-1-2.5-1.5-4-1.5-3.3 0-6 2.7-6 6s2.7 6 6 6c1.5 0 2.9-.6 4-1.5v.5c0 .6.4 1 1 1s1-.4 1-1V15c0-.6-.4-1-1-1zm-5 10c-2.2 0-4-1.8-4-4s1.8-4 4-4 4 1.8 4 4-1.8 4-4 4zM121 16.4c.5-.2 1-.4 1.5-.4 1.3 0 2.2.4 2.7 1 .3.5.9.6 1.4.3.5-.3.6-.9.3-1.4-.8-1.3-2.3-1.9-4.3-1.9-.9 0-1.7.2-2.5.6-1.2.6-1.9 1.8-1.8 3.1.1 1.3 1 2.4 2.4 2.8l3.2 1c.6.2.9.7 1 1.1 0 .2 0 .8-.6 1.1-.5.3-1 .4-1.6.4-1.3 0-2.2-.4-2.7-1-.3-.5-.9-.6-1.4-.3-.5.3-.6.9-.3 1.4.8 1.3 2.3 1.9 4.3 1.9.9 0 1.8-.2 2.5-.6 1.2-.6 1.8-1.8 1.7-3.1-.1-1.3-1.1-2.4-2.4-2.8l-3.2-1c-.6-.2-.9-.6-1-1.1 0-.2.1-.8.8-1.1zM104 19.5c-.3-3.1-2.9-5.5-6-5.5-3.3 0-6 2.7-6 6s2.7 6 6 6c1.7 0 3.3-.7 4.5-2 .4-.4.3-1-.1-1.4s-1-.3-1.4.1c-.8.8-1.8 1.3-3 1.3-1.9 0-3.4-1.3-3.9-3h8.9c.6 0 1-.4 1-1v-.5zm-9.9-.5c.4-1.7 2-3 3.9-3s3.4 1.3 3.9 3h-7.8zM76 10c-.6 0-1 .4-1 1s.4 1 1 1 1-.4 1-1-.4-1-1-1zM85 14c-2.8 0-5 2.3-5 5.1V25c0 .6.4 1 1 1s1-.4 1-1v-5.9c0-1.7 1.3-3.1 3-3.1s3 1.4 3 3.1V25c0 .6.4 1 1 1s1-.4 1-1v-5.9c0-2.8-2.2-5.1-5-5.1zM159 24h-1.9c-1.7 0-3.1-1.5-3.1-3.3V16h3c.6 0 1-.4 1-1s-.4-1-1-1h-3v-3c0-.6-.4-1-1-1s-1 .4-1 1v9.7c0 2.9 2.3 5.3 5.1 5.3h1.9c.6 0 1-.4 1-1s-.4-1-1-1z"/></svg>