<?xml version="1.0" encoding="utf-8"?>
<!-- Generator: Adobe Illustrator 25.3.1, SVG Export Plug-In . SVG Version: 6.00 Build 0)  -->
<svg version="1.1" id="Layer_1" xmlns="http://www.w3.org/2000/svg" xmlns:xlink="http://www.w3.org/1999/xlink" x="0px" y="0px"
	 width="200px" height="40px" viewBox="0 0 200 40" style="enable-background:new 0 0 200 40;" xml:space="preserve">
<style type="text/css">
	.st0{display:none;}
	.st1{display:inline;}
	.st2{display:inline;fill:#E8E9EF;}
	.st3{fill:#FFFFFF;}
</style>
<g id="Layer_2_1_" class="st0">
	<rect class="st1" width="200" height="40"/>
</g>
<g id="Layer_1_1_">
</g>
<g id="Layer_3" class="st0">
	<circle class="st2" cx="220" cy="20" r="20"/>
</g>
<path class="st3" d="M30,13.9c-0.3,0.2-1.2,0.5-2.2,0.6c0.6-0.3,1.4-1.3,1.6-2c-0.6,0.4-1.8,0.8-2.4,0.8l0,0
	c-0.7-0.7-1.7-1.2-2.8-1.2c-2.1,0-3.9,1.7-3.9,3.8c0,0.3,0,0.6,0.1,0.8l0,0c-2.9-0.1-6.1-1.5-8-3.9c-1.1,2-0.2,4.2,1.1,5
	c-0.5,0-1.3-0.1-1.7-0.5c0,1.3,0.7,3.1,3,3.7c-0.5,0.3-1.2,0.2-1.6,0.1c0.1,1.1,1.7,2.6,3.4,2.6c-0.7,0.7-3,2-5.6,1.6
	c1.8,1,3.8,1.7,6.1,1.7c6.3,0,11.1-4.9,10.9-11.1l0,0c0,0,0,0,0-0.1c0,0,0,0,0-0.1C28.8,15.4,29.5,14.8,30,13.9z"/>
<path class="st3" d="M63.7,16.4h-2.4v-1.3c0-0.7,0.6-1,1-1c0.3,0,1.4,0,1.4,0v-3H61c-2.9,0-3.7,2.2-3.7,3.6v1.9h-1.6v3h1.6
	c0,3.9,0,8.5,0,8.5h4c0,0,0-4.7,0-8.5h2L63.7,16.4z"/>
<path class="st3" d="M147.4,13.9c-2.6-1.9-5-1.9-5-1.9l-0.3,0.3c3.1,0.9,4.5,2.3,4.5,2.3c-1.8-1-3.7-1.5-5.4-1.7
	c-1.3-0.1-2.6-0.1-3.6,0c-0.1,0-0.2,0-0.3,0c-0.6,0-2.2,0.3-4.1,1.1c-0.7,0.3-1.1,0.5-1.1,0.5s1.5-1.4,4.7-2.3l-0.2-0.2
	c0,0-2.4,0-5,1.9c0,0-2.6,4.6-2.6,10.4c0,0,1.5,2.6,5.5,2.7c0,0,0.7-0.8,1.2-1.5c-2.3-0.7-3.1-2.1-3.1-2.1s0.2,0.1,0.5,0.3
	c0,0,0,0,0.1,0s0.1,0,0.2,0.1c0.4,0.3,0.9,0.4,1.3,0.6c0.8,0.3,1.6,0.6,2.6,0.8c1.3,0.2,3,0.3,4.7,0c0.9-0.1,1.7-0.4,2.6-0.8
	c0.6-0.3,1.3-0.6,2.1-1.1c0,0-0.9,1.5-3.2,2.1c0.5,0.7,1.2,1.4,1.2,1.4c3.9-0.1,5.5-2.7,5.5-2.8C150,18.5,147.4,13.9,147.4,13.9z
	 M136.2,22.6c-1,0-1.8-0.9-1.8-2s0.8-2,1.8-2s1.8,0.9,1.8,2S137.2,22.6,136.2,22.6z M142.7,22.6c-1,0-1.8-0.9-1.8-2s0.8-2,1.8-2
	s1.8,0.9,1.8,2C144.6,21.7,143.8,22.6,142.7,22.6z"/>
<g>
	<g>
		<path class="st3" d="M190.1,14.3c-0.6-1-1.2-1.2-2.6-1.2c-1.3-0.1-4.6-0.1-7.5-0.1s-6.2,0-7.5,0.1s-2,0.2-2.6,1.2S169,17,169,19.9
			l0,0l0,0l0,0c0,3,0.3,4.7,0.9,5.6c0.6,1,1.2,1.2,2.6,1.2c1.3,0.1,4.6,0.1,7.5,0.1s6.2,0,7.5-0.1s2-0.3,2.6-1.2
			c0.6-1,0.9-2.7,0.9-5.6l0,0l0,0C191,17,190.7,15.3,190.1,14.3z M177.3,23.8v-7.6l6.9,3.8L177.3,23.8z"/>
	</g>
</g>
<path class="st3" d="M90.4,19.6l4.6,1.7l1.8,5.9c0.1,0.4,0.6,0.5,0.9,0.3l2.6-2.1c0.3-0.2,0.7-0.2,0.9,0l4.6,3.5
	c0.3,0.2,0.8,0.1,0.9-0.3l3.4-16.9c0.1-0.4-0.3-0.8-0.7-0.6l-18.8,7.5C89.9,18.8,89.9,19.4,90.4,19.6z M96.4,20.4l9-5.7
	c0.2-0.1,0.3,0.1,0.2,0.3l-7.4,7.1c-0.3,0.2-0.4,0.6-0.5,0.9L97.4,25c0,0.3-0.4,0.3-0.5,0l-1-3.6C95.9,21.1,96.1,20.6,96.4,20.4z"/>
</svg>
