<?xml version="1.0" encoding="utf-8"?>
<!-- Generator: Adobe Illustrator 23.0.1, SVG Export Plug-In . SVG Version: 6.00 Build 0)  -->
<svg version="1.1" id="Layer_1" xmlns="http://www.w3.org/2000/svg" xmlns:xlink="http://www.w3.org/1999/xlink" x="0px" y="0px"
	 width="260px" height="26px" viewBox="0 0 260 26" style="enable-background:new 0 0 260 26;" xml:space="preserve">
<style type="text/css">
	.st0{fill:#46474F;}
</style>
<path id="path21" class="st0" d="M2.7,11.3c0,0,2.4-3.4,7-3.8V6.3C4.5,6.7,0,11.1,0,11.1s2.5,7.3,9.7,8v-1.3
	C4.5,17,2.7,11.3,2.7,11.3z M9.7,15.1v1.2c-4-0.7-5.1-4.8-5.1-4.8s1.9-2.1,5.1-2.4v1.3c0,0,0,0,0,0c-1.7-0.2-3,1.3-3,1.3
	S7.5,14.3,9.7,15.1 M10.7,4c-0.6,0-1,0.4-1,1v1.3c0.2,0,0.3,0,0.5,0c5.9-0.2,9.8,4.8,9.8,4.8s-4.4,5.3-9,5.3c-0.4,0-0.8,0-1.2-0.1
	v1.4c0.3,0,0.6,0.1,1,0.1c4.3,0,7.4-2.2,10.4-4.7c0.5,0.4,2.5,1.4,3,1.8c-2.9,2.4-9.5,4.3-13.3,4.3c-0.4,0-0.7,0-1.1-0.1v1
	c0,0.6,0.4,1,1,1H25c0.6,0,1-0.4,1-1V5c0-0.6-0.4-1-1-1H10.7z M9.7,9.1V7.5c0.2,0,0.3,0,0.5,0c4.3-0.1,7,3.6,7,3.6s-3,4.1-6.2,4.1
	c-0.5,0-0.9-0.1-1.3-0.2v-4.7c1.7,0.2,2,0.9,3,2.6l2.2-1.8c0,0-1.6-2.1-4.3-2.1C10.3,9,10,9,9.7,9.1"/>
<polygon class="st0" points="35.1,8.9 30.2,4 48,4 48,21.8 43.1,16.9 43.1,8.9 "/>
<polygon class="st0" points="35,9.9 30,14.9 30,22 37.1,22 42.1,17 35,17 "/>
</svg>
