<?xml version="1.0" encoding="utf-8"?>
<!-- Generator: Adobe Illustrator 24.0.2, SVG Export Plug-In . SVG Version: 6.00 Build 0)  -->
<svg version="1.1" xmlns="http://www.w3.org/2000/svg" xmlns:xlink="http://www.w3.org/1999/xlink" x="0px" y="0px" width="720px"
	 height="144px" viewBox="0 0 720 144" style="enable-background:new 0 0 720 144;" xml:space="preserve">
<style type="text/css">
	.st0{opacity:0.2;fill:#6A77A5;}
	.st1{fill:none;stroke:#73768B;stroke-width:2;stroke-linecap:round;stroke-linejoin:round;stroke-miterlimit:10;}
	.st2{opacity:0.2;fill:none;stroke:#6A77A5;stroke-width:2;stroke-linecap:round;stroke-linejoin:round;stroke-miterlimit:10;}
	.st3{fill:#FFFFFF;stroke:#73768B;stroke-width:2;stroke-linecap:round;stroke-linejoin:round;stroke-miterlimit:10;}
</style>
<g id="Layer_1">
	<rect x="155" y="18" class="st0" width="50" height="36"/>
	<rect x="247" y="53" class="st0" width="10" height="3"/>
	<path class="st0" d="M267,35.4l0-7.1c0-5.3-2.9-10.2-7.6-12.5C248.1,10.3,237,18.3,237,29v6.4c0,3-1.2,5.8-3.3,7.9l-2,2
		c-0.5,0.5-0.8,1.1-0.8,1.8V49h6h30h6v-1.9c0-0.7-0.3-1.3-0.8-1.8l-2-2C268.2,41.2,267,38.3,267,35.4z"/>
	<path class="st0" d="M93,50h-7.9c-1.2,0-2.1-0.9-2.1-2.1V20.1c0-1.2,0.9-2.1,2.1-2.1H93V50z"/>
	<polygon class="st0" points="45,55 26,55 27,51 44,51 	"/>
	<rect x="7" y="18" class="st0" width="58" height="28"/>
	<path class="st1" d="M61,51H11c-2.2,0-4-1.8-4-4V17c0-2.2,1.8-4,4-4H61c2.2,0,4,1.8,4,4V47C65,49.2,63.2,51,61,51z"/>
	<line class="st1" x1="7" y1="18" x2="65" y2="18"/>
	<line class="st1" x1="7" y1="46" x2="65" y2="46"/>
	<line class="st1" x1="14" y1="59" x2="58" y2="59"/>
	<path class="st1" d="M45,51c0,4.4,2.2,8,5,8"/>
	<path class="st1" d="M27,51c0,4.4-2.2,8-5,8"/>
	<line class="st1" x1="11" y1="22" x2="15" y2="22"/>
	<line class="st1" x1="11" y1="26" x2="18" y2="26"/>
	<line class="st1" x1="11" y1="30" x2="15" y2="30"/>
	<line class="st1" x1="11" y1="34" x2="18" y2="34"/>
	<line class="st1" x1="11" y1="38" x2="16" y2="38"/>
	<line class="st1" x1="11" y1="42" x2="20" y2="42"/>
	<line class="st2" x1="25" y1="63" x2="47" y2="63"/>
	<path class="st1" d="M121,54H95c-1.1,0-2-0.9-2-2V16c0-1.1,0.9-2,2-2H121c1.1,0,2,0.9,2,2V52C123,53.1,122.1,54,121,54z"/>
	<polyline class="st1" points="93,59 96,59 96,54 	"/>
	<polyline class="st1" points="123,59 120,59 120,54 	"/>
	<line class="st1" x1="98" y1="19" x2="106" y2="19"/>
	<line class="st1" x1="98" y1="49" x2="118" y2="49"/>
	<line class="st2" x1="100" y1="57" x2="116" y2="57"/>
	<path class="st1" d="M93,50h-7.9c-1.2,0-2.1-0.9-2.1-2.1V20.1c0-1.2,0.9-2.1,2.1-2.1H93V50z"/>
	<path class="st0" d="M123,18h7.9c1.2,0,2.1,0.9,2.1,2.1v27.8c0,1.2-0.9,2.1-2.1,2.1H123V18z"/>
	<path class="st1" d="M123,18h7.9c1.2,0,2.1,0.9,2.1,2.1v27.8c0,1.2-0.9,2.1-2.1,2.1H123V18z"/>
	<line class="st1" x1="87" y1="23" x2="89" y2="23"/>
	<line class="st1" x1="87" y1="27" x2="89" y2="27"/>
	<line class="st1" x1="87" y1="31" x2="89" y2="31"/>
	<line class="st1" x1="127" y1="23" x2="129" y2="23"/>
	<line class="st1" x1="127" y1="27" x2="129" y2="27"/>
	<line class="st1" x1="127" y1="31" x2="129" y2="31"/>
	<line class="st1" x1="114" y1="19" x2="114" y2="19"/>
	<line class="st1" x1="118" y1="19" x2="118" y2="19"/>
	<line class="st1" x1="110" y1="19" x2="110" y2="19"/>
	<path class="st1" d="M267,35.4l0-5.9c0-8.1-6.2-15-14.3-15.4c-8.6-0.4-15.7,6.5-15.7,15v6.4c0,3-1.2,5.8-3.3,7.9l-2,2
		c-0.5,0.5-0.8,1.1-0.8,1.8v2.7c0,1.8,1.4,3.2,3.2,3.2h2.8h30h2.8c1.8,0,3.2-1.4,3.2-3.2v-2.7c0-0.7-0.3-1.3-0.8-1.8l-2-2
		C268.2,41.2,267,38.3,267,35.4z"/>
	<path class="st1" d="M257,54c0,2.8-2.2,5-5,5s-5-2.2-5-5"/>
	<line class="st1" x1="231" y1="48" x2="273" y2="48"/>
	<line class="st1" x1="252" y1="10" x2="252" y2="14"/>
	<path class="st1" d="M202.1,59h-44.2c-1.6,0-2.9-1.3-2.9-2.9V15.9c0-1.6,1.3-2.9,2.9-2.9h44.2c1.6,0,2.9,1.3,2.9,2.9v40.2
		C205,57.7,203.7,59,202.1,59z"/>
	<line class="st1" x1="160" y1="23" x2="171" y2="23"/>
	<line class="st1" x1="160" y1="27" x2="164" y2="27"/>
	<line class="st1" x1="155" y1="18" x2="205" y2="18"/>
	<line class="st1" x1="155" y1="54" x2="205" y2="54"/>
	<line class="st1" x1="160" y1="49" x2="160" y2="54"/>
	<line class="st1" x1="165" y1="44" x2="165" y2="54"/>
	<line class="st1" x1="170" y1="45" x2="170" y2="54"/>
	<line class="st1" x1="175" y1="49" x2="175" y2="54"/>
	<line class="st1" x1="180" y1="50" x2="180" y2="54"/>
	<line class="st1" x1="185" y1="49" x2="185" y2="54"/>
	<line class="st1" x1="190" y1="45" x2="190" y2="54"/>
	<line class="st1" x1="195" y1="33" x2="195" y2="54"/>
	<line class="st1" x1="200" y1="24" x2="200" y2="54"/>
	<line class="st2" x1="160" y1="63" x2="200" y2="63"/>
</g>
<g id="Layer_2">
	<circle class="st3" cx="36" cy="32" r="9"/>
	<polygon class="st1" points="34,35 34,29 39,32 	"/>
	<circle class="st3" cx="108" cy="34" r="9"/>
	<polygon class="st1" points="106,37 106,31 111,34 	"/>
	<circle class="st3" cx="179" cy="36" r="9"/>
	<polygon class="st1" points="177,39 177,33 182,36 	"/>
	<circle class="st3" cx="252" cy="29" r="9"/>
	<polygon class="st1" points="250,32 250,26 255,29 	"/>
	<path class="st2" d="M230,29.5c0-6.2,2.6-11.8,6.8-15.7"/>
	<path class="st2" d="M266.7,14.3c3.9,3.9,6.3,9.3,6.3,15.2"/>
	<path class="st2" d="M224,29.5c0-7.8,3.3-14.9,8.6-19.9"/>
	<path class="st2" d="M270.9,10.1c5,5,8.1,11.9,8.1,19.4"/>
</g>
</svg>
