<?xml version="1.0" encoding="utf-8"?>
<!-- Generator: Adobe Illustrator 22.1.0, SVG Export Plug-In . SVG Version: 6.00 Build 0)  -->
<svg version="1.1" id="Layer_1" xmlns="http://www.w3.org/2000/svg" xmlns:xlink="http://www.w3.org/1999/xlink" x="0px" y="0px"
	 width="36px" height="360px" viewBox="0 0 36 360" style="enable-background:new 0 0 36 360;" xml:space="preserve">
<style type="text/css">
	.st0{fill:none;stroke:#464850;stroke-width:2;stroke-linecap:round;stroke-linejoin:round;stroke-miterlimit:10;}
	.st1{fill:#FFFFFF;stroke:#464850;stroke-width:2;stroke-linecap:round;stroke-linejoin:round;stroke-miterlimit:10;}
	.st2{fill:#FFFFFF;}
	.st3{fill:none;stroke:#464850;stroke-width:2;stroke-linecap:round;stroke-linejoin:round;}
	.st4{fill:none;stroke:#464850;stroke-width:2;stroke-linecap:round;stroke-linejoin:round;stroke-dasharray:0,3;}
</style>
<rect x="20.3" y="4.3" transform="matrix(0.7071 -0.7071 0.7071 0.7071 0.5442 21.3137)" class="st0" width="11.3" height="11.3"/>
<line class="st0" x1="26" y1="7" x2="23" y2="10"/>
<line class="st0" x1="29" y1="10" x2="26" y2="13"/>
<path class="st0" d="M16,8l12,12L16,32c-3.3,3.3-8.7,3.3-12,0l0,0c-3.3-3.3-3.3-8.7,0-12L16,8z"/>
<line class="st0" x1="16" y1="13" x2="10" y2="19"/>
<line class="st0" x1="8" y1="21" x2="7" y2="22"/>
<polygon class="st0" points="13,53 2,53 2,43 13,41 "/>
<polygon class="st0" points="32,53 16,53 16,40 32,37 "/>
<polygon class="st0" points="13,67 2,64 2,56 13,56 "/>
<polygon class="st0" points="32,71 16,68 16,56 32,56 "/>
<polyline class="st0" points="5,49 5,46 9,45 "/>
<line class="st0" x1="5" y1="59" x2="5" y2="61"/>
<line class="st0" x1="19" y1="43" x2="29" y2="41"/>
<path class="st0" d="M30,103H6c-0.6,0-1-0.4-1-1V78c0-0.6,0.4-1,1-1h24c0.6,0,1,0.4,1,1v24C31,102.6,30.6,103,30,103z"/>
<rect x="8" y="80" class="st0" width="20" height="20"/>
<rect x="8" y="74" class="st0" width="4" height="3"/>
<rect x="16" y="74" class="st0" width="4" height="3"/>
<rect x="24" y="74" class="st0" width="4" height="3"/>
<rect x="8" y="103" class="st0" width="4" height="3"/>
<rect x="16" y="103" class="st0" width="4" height="3"/>
<rect x="24" y="103" class="st0" width="4" height="3"/>
<rect x="30.5" y="80.5" transform="matrix(-1.836970e-16 1 -1 -1.836970e-16 114.5 49.5)" class="st0" width="4" height="3"/>
<rect x="30.5" y="88.5" transform="matrix(-1.836970e-16 1 -1 -1.836970e-16 122.5 57.5)" class="st0" width="4" height="3"/>
<rect x="30.5" y="96.5" transform="matrix(-1.836970e-16 1 -1 -1.836970e-16 130.5 65.5)" class="st0" width="4" height="3"/>
<rect x="1.5" y="80.5" transform="matrix(-1.836970e-16 1 -1 -1.836970e-16 85.5 78.5)" class="st0" width="4" height="3"/>
<rect x="1.5" y="88.5" transform="matrix(-1.836970e-16 1 -1 -1.836970e-16 93.5 86.5)" class="st0" width="4" height="3"/>
<rect x="1.5" y="96.5" transform="matrix(-1.836970e-16 1 -1 -1.836970e-16 101.5 94.5)" class="st0" width="4" height="3"/>
<polyline class="st0" points="18,84 12,84 12,90 "/>
<line class="st0" x1="12" y1="93" x2="12" y2="94"/>
<polygon class="st0" points="28,109 14,109 3,125 15,125 5,143 33,120 21,120 "/>
<polyline class="st0" points="20,112 16,112 13,116 "/>
<polyline class="st0" points="1,145 1,149 35,149 35,145 "/>
<rect x="12" y="152" class="st0" width="12" height="9"/>
<path class="st0" d="M18,179L18,179c-5,0-9-4-9-9v-9h18v9C27,175,23,179,18,179z"/>
<line class="st0" x1="16" y1="155" x2="16" y2="158"/>
<line class="st0" x1="20" y1="155" x2="20" y2="158"/>
<line class="st0" x1="4" y1="161" x2="4" y2="154"/>
<polyline class="st0" points="2,155 4,153 6,155 "/>
<line class="st0" x1="32" y1="161" x2="32" y2="154"/>
<polyline class="st0" points="30,155 32,153 34,155 "/>
<polyline class="st0" points="12,169 12,164 15,164 "/>
<line class="st0" x1="13" y1="172" x2="13" y2="172"/>
<path class="st0" d="M3.5,212.5L3.5,212.5c0.8,0.8,2.2,0.8,3,0L21,198l-3-3L3.5,209.5C2.7,210.3,2.7,211.7,3.5,212.5z"/>
<polyline class="st0" points="25,198 23,200 16,193 18,191 "/>
<path class="st0" d="M26,187l1.5-1.5c0.8-0.8,2.2-0.8,3,0h0c0.8,0.8,0.8,2.2,0,3L29,190"/>
<g>
	<path class="st0" d="M22.2,193.3c4.4,4.4,7.5,9.3,8.6,13.3c0.1,0.5,0.8,0.5,0.9,0.1c2-5.1,0.1-12.3-5.3-17.6
		c-5.4-5.4-12.5-7.3-17.6-5.3c-0.4,0.2-0.4,0.8,0.1,0.9C12.9,185.9,17.7,188.9,22.2,193.3z"/>
</g>
<rect x="1" y="275" class="st0" width="34" height="12"/>
<polyline class="st0" points="23,258 30,258 35,275 1,275 6,258 13,258 "/>
<line class="st0" x1="18" y1="253" x2="18" y2="268"/>
<polyline class="st0" points="13,264 18,269 23,264 "/>
<circle class="st0" cx="5.5" cy="279.5" r="0.5"/>
<circle class="st0" cx="10.5" cy="279.5" r="0.5"/>
<circle class="st0" cx="15.5" cy="279.5" r="0.5"/>
<line class="st0" x1="5" y1="283" x2="23" y2="283"/>
<path class="st1" d="M4.7,243.9l12.9,6.9c0.3,0.2,0.6,0.2,0.9,0l12.9-6.9c0.7-0.4,0.7-1.4,0-1.8l-12.9-6.9c-0.3-0.2-0.6-0.2-0.9,0
	l-12.9,6.9C3.9,242.5,3.9,243.5,4.7,243.9z"/>
<path class="st1" d="M4.7,239.9l12.9,6.9c0.3,0.2,0.6,0.2,0.9,0l12.9-6.9c0.7-0.4,0.7-1.4,0-1.8l-12.9-6.9c-0.3-0.2-0.6-0.2-0.9,0
	l-12.9,6.9C3.9,238.5,3.9,239.5,4.7,239.9z"/>
<path class="st1" d="M4.7,225.9l12.9,6.9c0.3,0.2,0.6,0.2,0.9,0l12.9-6.9c0.7-0.4,0.7-1.4,0-1.8l-12.9-6.9c-0.3-0.2-0.6-0.2-0.9,0
	l-12.9,6.9C3.9,224.5,3.9,225.5,4.7,225.9z"/>
<g>
	<line class="st2" x1="4" y1="229" x2="4" y2="235"/>
	<g>
		<line class="st3" x1="4" y1="229" x2="4" y2="229"/>
		<line class="st4" x1="4" y1="232" x2="4" y2="233.5"/>
		<line class="st3" x1="4" y1="235" x2="4" y2="235"/>
	</g>
</g>
<g>
	<line class="st2" x1="18" y1="237" x2="18" y2="243"/>
	<g>
		<line class="st3" x1="18" y1="237" x2="18" y2="237"/>
		<line class="st4" x1="18" y1="240" x2="18" y2="241.5"/>
		<line class="st3" x1="18" y1="243" x2="18" y2="243"/>
	</g>
</g>
<g>
	<line class="st2" x1="32" y1="229" x2="32" y2="235"/>
	<g>
		<line class="st3" x1="32" y1="229" x2="32" y2="229"/>
		<line class="st4" x1="32" y1="232" x2="32" y2="233.5"/>
		<line class="st3" x1="32" y1="235" x2="32" y2="235"/>
	</g>
</g>
<g>
</g>
<g>
</g>
<g>
</g>
<g>
</g>
<g>
</g>
<g>
</g>
</svg>
