<?xml version="1.0" encoding="utf-8"?>
<!-- Generator: Adobe Illustrator 25.3.1, SVG Export Plug-In . SVG Version: 6.00 Build 0)  -->
<svg version="1.1" id="Layer_1" xmlns="http://www.w3.org/2000/svg" xmlns:xlink="http://www.w3.org/1999/xlink" x="0px" y="0px"
	 width="40px" height="200px" viewBox="0 0 40 200" style="enable-background:new 0 0 40 200;" xml:space="preserve">
<style type="text/css">
	.st0{fill:none;stroke:#46474F;stroke-width:2;stroke-linecap:round;stroke-linejoin:round;stroke-miterlimit:10;}
	.st1{fill:none;stroke:#9D9FB0;stroke-width:2;stroke-linecap:round;stroke-linejoin:round;stroke-miterlimit:10;}
	.st2{fill:#9D9FB0;}
</style>
<g id="Layer_2_1_">
</g>
<g id="Layer_1_1_">
	<line class="st0" x1="19" y1="138" x2="15.8" y2="134.8"/>
	<line class="st0" x1="4" y1="4" x2="12" y2="4"/>
	<line class="st0" x1="15" y1="4" x2="16" y2="4"/>
	<line class="st0" x1="4" y1="8" x2="6" y2="8"/>
	<line class="st0" x1="9" y1="8" x2="16" y2="8"/>
	<line class="st0" x1="4" y1="12" x2="11" y2="12"/>
	<line class="st0" x1="14" y1="12" x2="16" y2="12"/>
	<line class="st0" x1="4" y1="16" x2="6" y2="16"/>
	<line class="st0" x1="9" y1="16" x2="16" y2="16"/>
	<line class="st0" x1="10" y1="41" x2="10" y2="42"/>
	<path class="st0" d="M14.1,76H5.9c-1,0-1.9-0.9-1.8-1.9l0.6-6.5c0.2-0.9,1-1.6,1.9-1.6h6.8c0.9,0,1.7,0.7,1.8,1.6l0.6,6.5
		C15.9,75.1,15.1,76,14.1,76z"/>
	<path class="st0" d="M8,66v-2c0-1.1,0.9-2,2-2l0,0c1.1,0,2,0.9,2,2v2"/>
	<line class="st0" x1="8" y1="71" x2="12" y2="71"/>
	<line class="st0" x1="10" y1="69" x2="10" y2="73"/>
	<path class="st0" d="M15,84H8c-2.8,0-5,2.2-5,5l0,0"/>
	<polyline class="st0" points="14,81 17,84 14,87 	"/>
	<path class="st0" d="M5,96h7c2.8,0,5-2.2,5-5l0,0"/>
	<polyline class="st0" points="6,99 3,96 6,93 	"/>
	<path class="st0" d="M17,102H4c-1.1,0-2,0.9-2,2v12c0,1.1,0.9,2,2,2h13c1.1,0,2-0.9,2-2v-12C19,102.9,18.1,102,17,102z"/>
	<polyline class="st0" points="9,115 9,109 13,112 9,115 	"/>
	<line class="st0" x1="2" y1="106" x2="18" y2="106"/>
	<line class="st0" x1="4" y1="102" x2="7" y2="106"/>
	<line class="st0" x1="9" y1="102" x2="12" y2="106"/>
	<line class="st0" x1="14" y1="102" x2="17" y2="106"/>
	<ellipse class="st0" cx="6.5" cy="123.5" rx="5.5" ry="2.5"/>
	<path class="st0" d="M6,134c-2.8-0.1-5-1.2-5-2.5"/>
	<path class="st0" d="M11.9,135.9c-0.4,1.2-2.7,2.1-5.4,2.1c-3,0-5.5-1.1-5.5-2.5"/>
	<line class="st0" x1="1" y1="124" x2="1" y2="135"/>
	<line class="st0" x1="12" y1="124" x2="12" y2="128.1"/>
	<circle class="st0" cx="13" cy="132" r="4"/>
	<path class="st0" d="M6.5,130c-3,0-5.5-1.1-5.5-2.5"/>
	<path class="st0" d="M16,150l-6,3l-6-3"/>
	<line class="st0" x1="10" y1="153" x2="10" y2="157"/>
	<path class="st0" d="M4,150v4.2c0,0.5,0.3,0.9,0.7,1.1l4.5,2.3c0.5,0.2,1.1,0.2,1.6,0l4.5-2.3c0.4-0.2,0.7-0.7,0.7-1.1V150"/>
	<circle class="st0" cx="10" cy="170" r="8"/>
	<ellipse class="st0" cx="10" cy="170" rx="3" ry="8"/>
	<ellipse class="st0" cx="10" cy="170" rx="8" ry="3"/>
	<path class="st0" d="M10,148l-6-3l4.6-2.3c0.9-0.5,2-0.5,2.9,0L16,145L10,148z"/>
	<line class="st0" x1="10" y1="148" x2="10" y2="152"/>
	<line class="st0" x1="16" y1="145" x2="16" y2="150"/>
	<line class="st0" x1="4" y1="145" x2="4" y2="150"/>
	<path class="st0" d="M13,46v-0.4c0-1.4-1.2-2.6-2.6-2.6H9.6C8.2,43,7,44.2,7,45.6l0,0c0,0.9,0.4,1.7,1.2,2.2l3.7,2.5
		c0.7,0.5,1.2,1.3,1.2,2.2l0,0c0,1.4-1.2,2.6-2.6,2.6H9.6C8.2,55,7,53.8,7,52.4V52"/>
	<line class="st0" x1="10" y1="56" x2="10" y2="57"/>
	<line class="st0" x1="3" y1="196" x2="17" y2="196"/>
	<line class="st0" x1="6" y1="193" x2="6" y2="196"/>
	<line class="st0" x1="10" y1="190" x2="10" y2="196"/>
	<line class="st0" x1="14" y1="191" x2="14" y2="196"/>
	<polyline class="st0" points="3,190 6,190 10,185 14,188 17,184 	"/>
	<ellipse class="st0" cx="11" cy="26" rx="5" ry="3"/>
	<path class="st0" d="M16,30c0,1.7-2.2,3-5,3s-5-1.3-5-3"/>
	<path class="st0" d="M16,34c0,1.7-2.2,3-5,3s-5-1.3-5-3"/>
	<line class="st0" x1="6" y1="34" x2="6" y2="26"/>
	<line class="st0" x1="36" y1="6" x2="34" y2="6"/>
	<line class="st0" x1="36" y1="10" x2="34" y2="10"/>
	<line class="st0" x1="36" y1="14" x2="34" y2="14"/>
	<path class="st0" d="M31,4c0,0.6-0.4,1-1,1s-1-0.4-1-1h-3v12h3c0-0.6,0.4-1,1-1s1,0.4,1,1h3V4H31z"/>
	<line class="st0" x1="29" y1="8" x2="31" y2="8"/>
	<line class="st0" x1="29" y1="12" x2="31" y2="12"/>
	<line class="st0" x1="28" y1="24" x2="28" y2="34"/>
	<line class="st0" x1="32" y1="24" x2="32" y2="34"/>
	<line class="st0" x1="35" y1="27" x2="25" y2="27"/>
	<line class="st0" x1="35" y1="31" x2="25" y2="31"/>
	<circle class="st1" cx="30" cy="50" r="8"/>
	<polyline class="st2" points="28,47 28,42.3 24,44 22.2,48.4 24,50 26,50 28,48 28,47 28,44 29,45 29,47 	"/>
	<polygon class="st2" points="27,52 27,51 28,50 30,50 31,51 32,51 32,52 31,53 31,54 30,55 30,57 28,55 28,53 	"/>
	<polygon class="st2" points="32,48 32,50 33,51 34,51 35,52 35,54 36,55 37,53 37,52 39,50.2 38,47 36,46 35,47 33,47 	"/>
	<polygon class="st2" points="30,43 31,44 31,45 32,46 32,45 33,45 34,44 34,42.5 30.4,42.3 	"/>
	<polyline class="st2" points="27,51 26,50 27,49 28,50 	"/>
	<polygon class="st2" points="35,43 34,44 34,45 33,45 33,46 35,46 36,47 37,45 36,44 	"/>
	<polyline class="st0" points="27,68 30,71 33,68 	"/>
</g>
<path class="st0" d="M31,97h-6c-1.1,0-2-0.9-2-2v-6c0-1.1,0.9-2,2-2h6c1.1,0,2,0.9,2,2v6C33,96.1,32.1,97,31,97z"/>
<path class="st0" d="M27,86v-1c0-1.1,0.9-2,2-2h6c1.1,0,2,0.9,2,2v6c0,1.1-0.9,2-2,2h-1"/>
<line class="st0" x1="28" y1="90" x2="28" y2="94"/>
<line class="st0" x1="30" y1="92" x2="26" y2="92"/>
<polyline class="st0" points="24,108 24,105 36,105 36,108 "/>
<line class="st0" x1="36" y1="108" x2="24" y2="108"/>
<rect x="27" y="103" class="st0" width="6" height="1"/>
<path class="st0" d="M25,108h10v7.9c0,0.6-0.5,1.1-1.1,1.1h-7.8c-0.6,0-1.1-0.5-1.1-1.1C25,115.9,25,108,25,108z"/>
<line class="st0" x1="29" y1="113" x2="29" y2="108"/>
<line class="st0" x1="30" y1="124" x2="30" y2="132"/>
<polyline class="st0" points="28,130 30,132 32,130 "/>
<path class="st0" d="M37,132v2c0,1.1-0.9,2-2,2H25c-1.1,0-2-0.9-2-2v-2"/>
<path class="st0" d="M34.8,157h-9.5c-1.8,0-3.2-1.5-3.2-3.2v-8.5c0-1.8,1.5-3.2,3.2-3.2h9.5c1.8,0,3.2,1.5,3.2,3.2v8.5
	C38,155.5,36.5,157,34.8,157z"/>
<line class="st0" x1="22" y1="147" x2="38" y2="147"/>
<line class="st0" x1="26" y1="141" x2="26" y2="144"/>
<line class="st0" x1="34" y1="141" x2="34" y2="144"/>
<line class="st0" x1="30" y1="141" x2="30" y2="144"/>
<polyline class="st0" points="29,151 30,150 30,154 "/>
</svg>
