<?xml version="1.0" encoding="utf-8"?>
<!-- Generator: Adobe Illustrator 25.2.3, SVG Export Plug-In . SVG Version: 6.00 Build 0)  -->
<svg version="1.1" id="Layer_1" xmlns="http://www.w3.org/2000/svg" xmlns:xlink="http://www.w3.org/1999/xlink" x="0px" y="0px"
	 width="1800px" height="100px" viewBox="0 0 1800 100" style="enable-background:new 0 0 1800 100;" xml:space="preserve">
<style type="text/css">
	.st0{fill:#BBC5FF;}
	.st1{fill:#BBC5FF;stroke:#5767FF;stroke-width:2;stroke-linecap:round;stroke-linejoin:round;stroke-miterlimit:10;}
	.st2{fill:none;stroke:#5767FF;stroke-width:2;stroke-linecap:round;stroke-linejoin:round;stroke-miterlimit:10;}
	.st3{fill:none;stroke:#BBC5FF;stroke-width:2;stroke-linecap:round;stroke-linejoin:round;stroke-miterlimit:10;}
	.st4{fill:#FFFFFF;}
	.st5{fill:#FFFFFF;stroke:#5767FF;stroke-width:2;stroke-linecap:round;stroke-linejoin:round;stroke-miterlimit:10;}
	.st6{fill:none;stroke:#5767FF;stroke-width:2;stroke-linecap:round;stroke-linejoin:round;}
	.st7{fill:none;stroke:#5767FF;stroke-width:2;stroke-linecap:round;stroke-linejoin:round;stroke-dasharray:0.9259,2.7778;}
	.st8{fill:#BBC5FF;stroke:#5767FF;stroke-width:2;stroke-linecap:round;stroke-linejoin:round;stroke-miterlimit:9.999;}
	.st9{fill:none;stroke:#EEF1FF;stroke-width:2;stroke-linecap:round;stroke-linejoin:round;stroke-miterlimit:10;}
	.st10{fill:#5767FF;}
	
		.st11{fill:none;stroke:#BBC5FF;stroke-width:2;stroke-linecap:round;stroke-linejoin:round;stroke-miterlimit:10;stroke-dasharray:1,3;}
	.st12{fill:#FFFFFF;stroke:#5767FF;stroke-width:2;stroke-linecap:round;stroke-linejoin:round;stroke-miterlimit:9.999;}
	
		.st13{opacity:0.7;fill:none;stroke:#5767FF;stroke-width:2;stroke-linecap:round;stroke-linejoin:round;stroke-miterlimit:10;enable-background:new    ;}
	
		.st14{opacity:0.5;fill:none;stroke:#5767FF;stroke-width:2;stroke-linecap:round;stroke-linejoin:round;stroke-miterlimit:10;enable-background:new    ;}
	.st15{fill:none;stroke:#5767FF;stroke-width:2;stroke-linecap:round;stroke-linejoin:round;stroke-dasharray:3.24,4.32;}
	.st16{fill:none;stroke:#FFFFFF;stroke-width:3;stroke-linecap:round;stroke-linejoin:round;stroke-miterlimit:10;}
	.st17{fill:#5767FF;stroke:#5767FF;stroke-width:2;stroke-linecap:round;stroke-linejoin:round;stroke-miterlimit:10;}
</style>
<polyline class="st0" points="1689,61 1689,67 1660,67 1660,61 "/>
<path class="st1" d="M1635.9,4h-6.9c0,2.2-1.8,4-4,4s-4-1.8-4-4h-6.9c-1.1,0-2.1,0.9-2.1,2v38c0,1.1,0.9,2,2.1,2h6.9
	c0-2.2,1.8-4,4-4s4,1.8,4,4h6.9c1.1,0,2.1-0.9,2.1-2V6C1638,4.9,1637.1,4,1635.9,4z"/>
<path class="st0" d="M1639.1,71h-1.1h-1v10h-24V71h-1h-1.1c-1.6,0-2.9,1.3-2.9,2.9V81v0.1v8.2c0,2,1.6,3.6,3.6,3.6h26.7
	c2,0,3.6-1.6,3.6-3.6v-8.2V81v-7.1C1642,72.3,1640.7,71,1639.1,71z"/>
<path class="st1" d="M1487,90h-24c-1.7,0-3-1.3-3-3V63c0-1.7,1.3-3,3-3h24c1.7,0,3,1.3,3,3v24C1490,88.7,1488.7,90,1487,90z"/>
<line class="st2" x1="1475" y1="54" x2="1475" y2="60"/>
<line class="st2" x1="1470" y1="54" x2="1470" y2="60"/>
<line class="st2" x1="1480" y1="54" x2="1480" y2="60"/>
<line class="st2" x1="1465" y1="54" x2="1465" y2="60"/>
<line class="st2" x1="1485" y1="54" x2="1485" y2="60"/>
<line class="st2" x1="1475" y1="90" x2="1475" y2="96"/>
<line class="st2" x1="1470" y1="90" x2="1470" y2="96"/>
<line class="st2" x1="1480" y1="90" x2="1480" y2="96"/>
<line class="st2" x1="1465" y1="90" x2="1465" y2="96"/>
<line class="st2" x1="1485" y1="90" x2="1485" y2="96"/>
<line class="st2" x1="1496" y1="75" x2="1490" y2="75"/>
<line class="st2" x1="1496" y1="70" x2="1490" y2="70"/>
<line class="st2" x1="1496" y1="80" x2="1490" y2="80"/>
<line class="st2" x1="1496" y1="65" x2="1490" y2="65"/>
<line class="st2" x1="1496" y1="85" x2="1490" y2="85"/>
<line class="st2" x1="1460" y1="75" x2="1454" y2="75"/>
<line class="st2" x1="1460" y1="70" x2="1454" y2="70"/>
<line class="st2" x1="1460" y1="80" x2="1454" y2="80"/>
<line class="st2" x1="1460" y1="65" x2="1454" y2="65"/>
<line class="st2" x1="1460" y1="85" x2="1454" y2="85"/>
<path class="st2" d="M1337.6,61h-26.9c-1.5,0-2.7,1.2-2.7,2.7v19.7c0,1.4,1.2,2.6,2.6,2.6h10.7l3.7,4.7l3.7-4.7h10.8
	c1.4,0,2.5-1.2,2.5-2.6V79"/>
<polygon class="st0" points="969,87 975,86 975,93 973.4,94.6 971.6,95 969.8,94 969,92 "/>
<path class="st2" d="M1031,61h-27c-1.7,0-3,1.3-3,3v20c0,1.7,1.3,3,3,3h3v7l7-7h17c1.7,0,3-1.3,3-3V64C1034,62.3,1032.7,61,1031,61z
	"/>
<polyline class="st1" points="1071,83 1071,87 1051,87 1051,64 1055,64 "/>
<polyline class="st1" points="1087,64 1091,64 1091,87 1071,87 1071,83 "/>
<line class="st3" x1="909" y1="90" x2="933" y2="90"/>
<line class="st3" x1="909" y1="60" x2="933" y2="60"/>
<line class="st3" x1="804" y1="92" x2="821" y2="92"/>
<polyline class="st3" points="822,92 838,75 838,92 "/>
<polyline class="st3" points="839,74 822,58 838,58 821,75 "/>
<polyline class="st3" points="804,92 821,75 804,58 804,74 "/>
<line class="st3" x1="838" y1="92" x2="804" y2="75"/>
<line class="st3" x1="804" y1="75" x2="822" y2="58"/>
<circle class="st1" cx="821" cy="75" r="9"/>
<polyline class="st3" points="858,82 858,78 853,78 "/>
<line class="st3" x1="866" y1="83" x2="870" y2="83"/>
<polyline class="st3" points="889,78 884,78 884,82 "/>
<circle class="st1" cx="871" cy="67" r="12"/>
<path class="st4" d="M760.5,55c-5.2,0-9.5,2.2-9.5,5c0,0.1,0,0.3,0,0.4l0,0V65c0,0.1,0,0.3,0,0.4l0,0V70c0,0.1,0,0.3,0,0.4l0,0V75
	c0,0.1,0,0.3,0,0.4l0,0V80c0,0.1,0,0.3,0,0.4l0,0V85c0,2.8,4.3,5,9.5,5s9.5-2.2,9.5-5v-5v-5v-5v-5v-5C770,57.2,765.7,55,760.5,55z"
	/>
<line class="st3" x1="706" y1="77" x2="706" y2="89"/>
<line class="st3" x1="711" y1="77" x2="711" y2="89"/>
<line class="st3" x1="716" y1="73" x2="716" y2="89"/>
<line class="st3" x1="721" y1="77" x2="721" y2="89"/>
<line class="st3" x1="726" y1="72" x2="726" y2="89"/>
<line class="st3" x1="731" y1="70" x2="731" y2="89"/>
<line class="st3" x1="625" y1="57" x2="625" y2="65"/>
<rect x="569" y="57" class="st0" width="18" height="36"/>
<line class="st2" x1="501" y1="75" x2="537" y2="75"/>
<path class="st1" d="M376.5,80h21c0.8,0,1.5-0.7,1.5-1.5v-21c0-0.8-0.7-1.5-1.5-1.5h-21c-0.8,0-1.5,0.7-1.5,1.5v21
	C375,79.3,375.7,80,376.5,80z"/>
<circle class="st1" cx="387" cy="68" r="9"/>
<circle class="st1" cx="387" cy="68" r="5"/>
<polyline class="st2" points="378,59 387,68 396,59 "/>
<polyline class="st2" points="396,77 387,68 378,77 "/>
<line class="st3" x1="133.2" y1="54.8" x2="129.7" y2="63"/>
<circle class="st3" cx="146" cy="88" r="2"/>
<circle class="st3" cx="103" cy="88" r="2"/>
<line class="st3" x1="135" y1="80.7" x2="144.3" y2="86.9"/>
<line class="st3" x1="104.7" y1="86.9" x2="114.8" y2="80.5"/>
<line class="st3" x1="59" y1="88" x2="59" y2="64.1"/>
<circle class="st3" cx="1407" cy="41" r="3"/>
<line class="st3" x1="1409.2" y1="39" x2="1413.8" y2="35"/>
<circle class="st3" cx="1446" cy="25" r="3"/>
<line class="st3" x1="1443" y1="25" x2="1440" y2="25"/>
<path class="st5" d="M1446.5,43.5L1437,34c1.9-2.5,3-5.6,3-9c0-8.3-6.7-15-15-15s-15,6.7-15,15s6.7,15,15,15c3.4,0,6.5-1.1,9-3
	l9.5,9.5c0.8,0.8,2.2,0.8,3,0S1447.3,44.3,1446.5,43.5z"/>
<path class="st1" d="M1393,45h-36c-1.1,0-2-0.9-2-2V33c0-1.1,0.9-2,2-2h36c1.1,0,2,0.9,2,2v10C1395,44.1,1394.1,45,1393,45z"/>
<path class="st1" d="M1314,35v5.7c0,3.3,2.5,6.2,5.8,6.2c3.4,0.1,6.2-2.6,6.2-6v-6"/>
<path class="st1" d="M1122,45h-19c-1.1,0-2-0.9-2-2V7c0-1.1,0.9-2,2-2h19c1.1,0,2,0.9,2,2v36C1124,44.1,1123.1,45,1122,45z"/>
<rect x="1101" y="9" class="st5" width="23" height="32"/>
<rect x="1055" y="11" class="st1" width="26" height="13"/>
<path class="st1" d="M1025,39h-24v-6c0-1.1,0.9-2,2-2h20c1.1,0,2,0.9,2,2V39z"/>
<rect x="1001" y="8" class="st1" width="24" height="11"/>
<path class="st3" d="M917,22.4"/>
<rect x="801" y="11" class="st1" width="32" height="5"/>
<rect x="603" y="9" class="st1" width="5" height="32"/>
<line class="st3" x1="784" y1="14" x2="784" y2="39"/>
<line class="st3" x1="774" y1="26" x2="774" y2="39"/>
<line class="st3" x1="764" y1="21" x2="764" y2="39"/>
<line class="st3" x1="754" y1="29" x2="754" y2="39"/>
<polyline class="st2" points="754,29 764,20 774,26 784,14 "/>
<circle class="st1" cx="724" cy="25" r="12"/>
<path class="st2" d="M679.1,41H653c-1.1,0-2-0.9-2-2V11c0-1.1,0.9-2,2-2h25c1.1,0,2,0.9,2,2v6"/>
<path class="st3" d="M554,35c7.5,0,19.5,0,27,0"/>
<rect x="404" y="13" class="st1" width="24" height="24"/>
<polyline class="st3" points="108,47 108,40 114,40 "/>
<polyline class="st3" points="108,27 108,20 114,20 "/>
<polyline class="st3" points="125,37 125,30 119,30 "/>
<path class="st2" d="M20,38c0,2.8-2.2,5-5,5s-5-2.2-5-5"/>
<line class="st3" x1="15" y1="7" x2="15" y2="12"/>
<path class="st2" d="M25,28v-6c0-5.5-4.5-10-10-10l0,0C9.5,12,5,16.5,5,22v6l0,0c-2.5,1.9-4,4.9-4,8v2h28v-2
	C29,32.9,27.5,29.9,25,28L25,28z"/>
<path class="st1" d="M35,33H20c-2.8,0-5-2.2-5-5l0,0c0-2.8,2.2-5,5-5h15c2.8,0,5,2.2,5,5l0,0C40,30.8,37.8,33,35,33z"/>
<path class="st3" d="M9,21c0-2.8,2.2-5,5-5"/>
<line class="st2" x1="20" y1="28" x2="22" y2="28"/>
<line class="st2" x1="26" y1="28" x2="35" y2="28"/>
<path class="st2" d="M77,41H53c-1.1,0-2-0.9-2-2V11c0-1.1,0.9-2,2-2h24c1.1,0,2,0.9,2,2v28C79,40.1,78.1,41,77,41z"/>
<circle class="st2" cx="61" cy="17" r="2"/>
<line class="st2" x1="63" y1="17" x2="74" y2="17"/>
<line class="st2" x1="56" y1="17" x2="59" y2="17"/>
<circle class="st2" cx="69" cy="25" r="2"/>
<line class="st2" x1="71" y1="25" x2="74" y2="25"/>
<line class="st2" x1="56" y1="25" x2="67" y2="25"/>
<circle class="st2" cx="63" cy="33" r="2"/>
<line class="st2" x1="65" y1="33" x2="74" y2="33"/>
<line class="st2" x1="56" y1="33" x2="61" y2="33"/>
<line class="st3" x1="59" y1="6" x2="71" y2="6"/>
<path class="st3" d="M68,6h-6V4.5C62,3.7,62.7,3,63.5,3h3C67.3,3,68,3.7,68,4.5V6z"/>
<line class="st3" x1="59" y1="44" x2="71" y2="44"/>
<path class="st1" d="M117.5,33h-15c-0.8,0-1.5-0.7-1.5-1.5v-3c0-0.8,0.7-1.5,1.5-1.5h15c0.8,0,1.5,0.7,1.5,1.5v3
	C119,32.3,118.3,33,117.5,33z"/>
<path class="st2" d="M130.5,43h-15c-0.8,0-1.5-0.7-1.5-1.5v-3c0-0.8,0.7-1.5,1.5-1.5h15c0.8,0,1.5,0.7,1.5,1.5v3
	C132,42.3,131.3,43,130.5,43z"/>
<line class="st3" x1="108" y1="3" x2="108" y2="7"/>
<polyline class="st3" points="125,17 125,10 119,10 "/>
<path class="st2" d="M117.5,13h-15c-0.8,0-1.5-0.7-1.5-1.5v-3c0-0.8,0.7-1.5,1.5-1.5h15c0.8,0,1.5,0.7,1.5,1.5v3
	C119,12.3,118.3,13,117.5,13z"/>
<path class="st2" d="M130.5,23h-15c-0.8,0-1.5-0.7-1.5-1.5v-3c0-0.8,0.7-1.5,1.5-1.5h15c0.8,0,1.5,0.7,1.5,1.5v3
	C132,22.3,131.3,23,130.5,23z"/>
<line class="st2" x1="104" y1="10" x2="106" y2="10"/>
<line class="st2" x1="117" y1="20" x2="119" y2="20"/>
<line class="st2" x1="104" y1="30" x2="106" y2="30"/>
<line class="st2" x1="117" y1="40" x2="119" y2="40"/>
<path class="st2" d="M159.5,16h-7c-0.8,0-1.5-0.7-1.5-1.5v-7c0-0.8,0.7-1.5,1.5-1.5h7c0.8,0,1.5,0.7,1.5,1.5v7
	C161,15.3,160.3,16,159.5,16z"/>
<path class="st2" d="M173.5,16h-7c-0.8,0-1.5-0.7-1.5-1.5v-7c0-0.8,0.7-1.5,1.5-1.5h7c0.8,0,1.5,0.7,1.5,1.5v7
	C175,15.3,174.3,16,173.5,16z"/>
<path class="st3" d="M187.5,16h-7c-0.8,0-1.5-0.7-1.5-1.5v-7c0-0.8,0.7-1.5,1.5-1.5h7c0.8,0,1.5,0.7,1.5,1.5v7
	C189,15.3,188.3,16,187.5,16z"/>
<path class="st2" d="M159.5,30h-7c-0.8,0-1.5-0.7-1.5-1.5v-7c0-0.8,0.7-1.5,1.5-1.5h7c0.8,0,1.5,0.7,1.5,1.5v7
	C161,29.3,160.3,30,159.5,30z"/>
<path class="st2" d="M173.5,30h-7c-0.8,0-1.5-0.7-1.5-1.5v-7c0-0.8,0.7-1.5,1.5-1.5h7c0.8,0,1.5,0.7,1.5,1.5v7
	C175,29.3,174.3,30,173.5,30z"/>
<path class="st3" d="M187.5,30h-7c-0.8,0-1.5-0.7-1.5-1.5v-7c0-0.8,0.7-1.5,1.5-1.5h7c0.8,0,1.5,0.7,1.5,1.5v7
	C189,29.3,188.3,30,187.5,30z"/>
<path class="st3" d="M159.5,44h-7c-0.8,0-1.5-0.7-1.5-1.5v-7c0-0.8,0.7-1.5,1.5-1.5h7c0.8,0,1.5,0.7,1.5,1.5v7
	C161,43.3,160.3,44,159.5,44z"/>
<path class="st3" d="M173.5,44h-7c-0.8,0-1.5-0.7-1.5-1.5v-7c0-0.8,0.7-1.5,1.5-1.5h7c0.8,0,1.5,0.7,1.5,1.5v7
	C175,43.3,174.3,44,173.5,44z"/>
<path class="st3" d="M187.5,44h-7c-0.8,0-1.5-0.7-1.5-1.5v-7c0-0.8,0.7-1.5,1.5-1.5h7c0.8,0,1.5,0.7,1.5,1.5v7
	C189,43.3,188.3,44,187.5,44z"/>
<line class="st3" x1="158" y1="39" x2="154" y2="39"/>
<line class="st3" x1="156" y1="41" x2="156" y2="37"/>
<line class="st3" x1="172" y1="39" x2="168" y2="39"/>
<line class="st3" x1="170" y1="41" x2="170" y2="37"/>
<line class="st3" x1="186" y1="39" x2="182" y2="39"/>
<line class="st3" x1="184" y1="41" x2="184" y2="37"/>
<line class="st3" x1="186" y1="25" x2="182" y2="25"/>
<line class="st3" x1="184" y1="27" x2="184" y2="23"/>
<line class="st3" x1="186" y1="11" x2="182" y2="11"/>
<line class="st3" x1="184" y1="13" x2="184" y2="9"/>
<line class="st2" x1="154" y1="9" x2="157" y2="9"/>
<line class="st2" x1="154" y1="12" x2="155" y2="12"/>
<line class="st2" x1="168" y1="9" x2="171" y2="9"/>
<line class="st2" x1="168" y1="12" x2="169" y2="12"/>
<line class="st2" x1="154" y1="23" x2="157" y2="23"/>
<line class="st2" x1="154" y1="26" x2="155" y2="26"/>
<line class="st2" x1="168" y1="23" x2="171" y2="23"/>
<line class="st2" x1="168" y1="26" x2="169" y2="26"/>
<path class="st2" d="M225,40h-22c-1.1,0-2-0.9-2-2V11c0-1.1,0.9-2,2-2h22c1.1,0,2,0.9,2,2v27C227,39.1,226.1,40,225,40z"/>
<circle class="st1" cx="227" cy="25" r="8"/>
<polyline class="st2" points="222,25 224,25 226,22 228,28 230,25 232,25 "/>
<line class="st2" x1="206" y1="14" x2="219" y2="14"/>
<line class="st2" x1="206" y1="18" x2="214" y2="18"/>
<line class="st2" x1="206" y1="22" x2="210" y2="22"/>
<g>
	<g>
		<line class="st6" x1="201" y1="36" x2="201.5" y2="36"/>
		<line class="st7" x1="204.3" y1="36" x2="225.1" y2="36"/>
		<line class="st6" x1="226.5" y1="36" x2="227" y2="36"/>
	</g>
</g>
<line class="st3" x1="208" y1="6" x2="220" y2="6"/>
<path class="st3" d="M217,6h-6V4.5c0-0.8,0.7-1.5,1.5-1.5h3c0.8,0,1.5,0.7,1.5,1.5V6z"/>
<line class="st3" x1="208" y1="43" x2="220" y2="43"/>
<path class="st2" d="M269.3,18h-16.6c-1,0-1.7-0.8-1.7-1.7v-4.6c0-1,0.8-1.7,1.7-1.7h16.6c1,0,1.7,0.8,1.7,1.7v4.6
	C271,17.2,270.2,18,269.3,18z"/>
<line class="st2" x1="255" y1="14" x2="261" y2="14"/>
<line class="st2" x1="265" y1="14" x2="264" y2="14"/>
<path class="st1" d="M269.3,29h-16.6c-1,0-1.7-0.8-1.7-1.7v-4.6c0-1,0.8-1.7,1.7-1.7h16.6c1,0,1.7,0.8,1.7,1.7v4.6
	C271,28.2,270.2,29,269.3,29z"/>
<line class="st2" x1="255" y1="25" x2="261" y2="25"/>
<line class="st2" x1="265" y1="25" x2="264" y2="25"/>
<path class="st2" d="M269.3,40h-16.6c-1,0-1.7-0.8-1.7-1.7v-4.6c0-1,0.8-1.7,1.7-1.7h16.6c1,0,1.7,0.8,1.7,1.7v4.6
	C271,39.2,270.2,40,269.3,40z"/>
<line class="st2" x1="255" y1="36" x2="261" y2="36"/>
<line class="st2" x1="265" y1="36" x2="264" y2="36"/>
<path class="st2" d="M289,12.5L289,12.5c0-0.5,0.2-0.9,0.6-1.2c1-0.8,1.6-2.1,1.3-3.6c-0.3-1.3-1.3-2.3-2.6-2.6
	C286,4.6,284,6.3,284,8.5c0,1.1,0.5,2.1,1.4,2.8c0.4,0.3,0.6,0.7,0.6,1.2l0,0c0,0.8-0.7,1.5-1.5,1.5H284c-1.1,0-2,0.9-2,2v2h11v-2
	c0-1.1-0.9-2-2-2h-0.5C289.7,14,289,13.3,289,12.5z"/>
<path class="st2" d="M289,39.5L289,39.5c0-0.5,0.2-0.9,0.6-1.2c1-0.8,1.6-2.1,1.3-3.6c-0.3-1.3-1.3-2.3-2.6-2.6
	c-2.3-0.5-4.3,1.2-4.3,3.4c0,1.1,0.5,2.1,1.4,2.8c0.4,0.3,0.6,0.7,0.6,1.2l0,0c0,0.8-0.7,1.5-1.5,1.5H284c-1.1,0-2,0.9-2,2v2h11v-2
	c0-1.1-0.9-2-2-2h-0.5C289.7,41,289,40.3,289,39.5z"/>
<polyline class="st3" points="274,23 287,23 287,21 "/>
<polyline class="st3" points="274,27 287,27 287,29 "/>
<path class="st2" d="M303.9,40.1L303.9,40.1c-3.9-3.9-3.9-10.2,0-14.1l12.4-12.4c0.6-0.6,1.5-0.6,2.1,0l12,12c0.6,0.6,0.6,1.5,0,2.1
	L318,40.1C314.2,44,307.8,44,303.9,40.1z"/>
<rect x="323.3" y="9.8" transform="matrix(0.7071 -0.7071 0.7071 0.7071 83.9838 236.3544)" class="st8" width="8" height="14"/>
<path class="st2" d="M308.2,30.2l2.1-2.1c0.8-0.8,2-0.8,2.8,0l0,0c0.8,0.8,0.8,2,0,2.8L311,33"/>
<path class="st2" d="M311,33l2.1-2.1c0.8-0.8,2-0.8,2.8,0l0,0c0.8,0.8,0.8,2,0,2.8l-2.1,2.1"/>
<line class="st2" x1="325.8" y1="13.9" x2="324.4" y2="15.4"/>
<line class="st2" x1="330.1" y1="18.2" x2="328.7" y2="19.6"/>
<polyline class="st3" points="321.6,22.4 317.4,18.2 314.5,21 "/>
<g>
	<polygon class="st2" points="363,12.7 351,15 351,23 363,23 	"/>
	<polygon class="st2" points="367,11.9 367,23 382,23 382,9 	"/>
</g>
<g>
	<polygon class="st2" points="363,37.3 351,35 351,27 363,27 	"/>
	<polygon class="st2" points="367,38.1 367,27 382,27 382,41 	"/>
</g>
<line class="st3" x1="359.3" y1="16.4" x2="354" y2="17.4"/>
<line class="st3" x1="379.3" y1="12.5" x2="369.9" y2="14.3"/>
<line class="st3" x1="354" y1="19" x2="354" y2="17.4"/>
<rect x="408" y="17" class="st5" width="16" height="16"/>
<line class="st2" x1="406" y1="10" x2="406" y2="13"/>
<line class="st2" x1="410" y1="10" x2="410" y2="13"/>
<line class="st2" x1="414" y1="10" x2="414" y2="13"/>
<line class="st2" x1="418" y1="10" x2="418" y2="13"/>
<line class="st2" x1="422" y1="10" x2="422" y2="13"/>
<line class="st2" x1="426" y1="10" x2="426" y2="13"/>
<line class="st2" x1="406" y1="37" x2="406" y2="40"/>
<line class="st2" x1="410" y1="37" x2="410" y2="40"/>
<line class="st2" x1="414" y1="37" x2="414" y2="40"/>
<line class="st2" x1="418" y1="37" x2="418" y2="40"/>
<line class="st2" x1="422" y1="37" x2="422" y2="40"/>
<line class="st2" x1="426" y1="37" x2="426" y2="40"/>
<line class="st2" x1="431" y1="15" x2="428" y2="15"/>
<line class="st2" x1="431" y1="19" x2="428" y2="19"/>
<line class="st2" x1="431" y1="23" x2="428" y2="23"/>
<line class="st2" x1="431" y1="27" x2="428" y2="27"/>
<line class="st2" x1="431" y1="31" x2="428" y2="31"/>
<line class="st2" x1="431" y1="35" x2="428" y2="35"/>
<line class="st2" x1="404" y1="15" x2="401" y2="15"/>
<line class="st2" x1="404" y1="19" x2="401" y2="19"/>
<line class="st2" x1="404" y1="23" x2="401" y2="23"/>
<line class="st2" x1="404" y1="27" x2="401" y2="27"/>
<line class="st2" x1="404" y1="31" x2="401" y2="31"/>
<line class="st2" x1="404" y1="35" x2="401" y2="35"/>
<polyline class="st3" points="412,25 412,21 416,21 "/>
<path class="st2" d="M489,33h-36c-1.1,0-2-0.9-2-2V8c0-1.1,0.9-2,2-2h36c1.1,0,2,0.9,2,2v23C491,32.1,490.1,33,489,33z"/>
<rect x="451" y="11" class="st1" width="40" height="18"/>
<line class="st2" x1="456" y1="40" x2="486" y2="40"/>
<path class="st2" d="M467,33c0,3.9-3.1,7-7,7"/>
<path class="st2" d="M475,33c0,3.9,3.1,7,7,7"/>
<polyline class="st2" points="455,18 455,15 459,15 "/>
<line class="st3" x1="460" y1="44" x2="483" y2="44"/>
<path class="st2" d="M503,37V10.5c0-0.8,0.7-1.5,1.5-1.5h25c0.8,0,1.5,0.7,1.5,1.5V37"/>
<line class="st2" x1="507" y1="13" x2="514" y2="13"/>
<line class="st2" x1="518" y1="13" x2="520" y2="13"/>
<line class="st2" x1="524" y1="13" x2="526" y2="13"/>
<line class="st2" x1="503" y1="17" x2="531" y2="17"/>
<line class="st2" x1="507" y1="29" x2="514" y2="29"/>
<line class="st2" x1="518" y1="29" x2="520" y2="29"/>
<line class="st2" x1="524" y1="29" x2="526" y2="29"/>
<line class="st2" x1="503" y1="25" x2="531" y2="25"/>
<line class="st2" x1="507" y1="37" x2="514" y2="37"/>
<line class="st2" x1="518" y1="37" x2="520" y2="37"/>
<line class="st2" x1="524" y1="37" x2="526" y2="37"/>
<line class="st2" x1="503" y1="33" x2="531" y2="33"/>
<line class="st2" x1="503" y1="40" x2="503" y2="41"/>
<line class="st2" x1="531" y1="40" x2="531" y2="41"/>
<rect x="501" y="16" class="st1" width="32" height="10"/>
<line class="st2" x1="507" y1="21" x2="514" y2="21"/>
<line class="st2" x1="518" y1="21" x2="520" y2="21"/>
<line class="st2" x1="524" y1="21" x2="526" y2="21"/>
<path class="st3" d="M508,5c7.3,0,10.7,0,18,0"/>
<line class="st2" x1="551" y1="32" x2="584" y2="32"/>
<path class="st2" d="M581,32h-27v-4.5c0-7.5,6-13.5,13.5-13.5l0,0c7.5,0,13.5,6,13.5,13.5V32z"/>
<polyline class="st5" points="563,19 563,13 572,13 572,19 "/>
<circle class="st1" cx="567.5" cy="29.5" r="7.5"/>
<circle class="st5" cx="567.5" cy="29.5" r="3.5"/>
<path class="st2" d="M625,41h-22V9h22c1.7,0,3,1.3,3,3v26C628,39.7,626.7,41,625,41z"/>
<line class="st2" x1="601" y1="13" x2="605" y2="13"/>
<line class="st2" x1="601" y1="17" x2="605" y2="17"/>
<line class="st2" x1="601" y1="21" x2="605" y2="21"/>
<line class="st2" x1="601" y1="25" x2="605" y2="25"/>
<line class="st2" x1="601" y1="29" x2="605" y2="29"/>
<line class="st2" x1="601" y1="33" x2="605" y2="33"/>
<line class="st2" x1="601" y1="37" x2="605" y2="37"/>
<path class="st2" d="M618.5,25H615v-5h3.5c1.4,0,2.5,1.1,2.5,2.5l0,0C621,23.9,619.9,25,618.5,25z"/>
<path class="st2" d="M618.5,30H615v-5h3.5c1.4,0,2.5,1.1,2.5,2.5l0,0C621,28.9,619.9,30,618.5,30z"/>
<line class="st2" x1="617" y1="18" x2="617" y2="20"/>
<line class="st2" x1="617" y1="30" x2="617" y2="32"/>
<line class="st2" x1="616" y1="30" x2="614" y2="30"/>
<line class="st2" x1="616" y1="20" x2="614" y2="20"/>
<path class="st3" d="M605,44h21c2.8,0,5-2.2,5-5V11"/>
<path class="st1" d="M694,39l-6.7-6.7c0.7-1.5,0.9-3.2,0.5-5.1c-0.7-3.1-3.2-5.5-6.3-6.1c-1.4-0.3-2.8-0.1-4.1,0.3L683,27l-5,5
	l-5.6-5.6c-0.4,1.2-0.6,2.6-0.3,4.1c0.6,3.1,3,5.6,6.1,6.3c1.8,0.4,3.6,0.2,5.1-0.5L690,43c1.1,1.1,2.9,1.1,4,0S695.1,40.1,694,39z"
	/>
<line class="st2" x1="657" y1="17" x2="674" y2="17"/>
<circle class="st1" cx="668" cy="17" r="2"/>
<line class="st2" x1="657" y1="25" x2="669" y2="25"/>
<circle class="st1" cx="661" cy="25" r="2"/>
<line class="st2" x1="657" y1="33" x2="668" y2="33"/>
<circle class="st1" cx="663" cy="33" r="2"/>
<path class="st3" d="M653,44c7.5,0,18.5,0,26,0"/>
<polygon class="st5" points="722,20 729,20 726,25 729,25 720,32 722,26 719,26 "/>
<circle class="st3" cx="724" cy="25" r="17.5"/>
<circle class="st9" cx="724" cy="25" r="23"/>
<line class="st2" x1="751" y1="39" x2="787" y2="39"/>
<circle class="st5" cx="754" cy="29" r="3"/>
<circle class="st5" cx="764" cy="20" r="3"/>
<circle class="st5" cx="774" cy="26" r="3"/>
<circle class="st5" cx="784" cy="14" r="3"/>
<polyline class="st2" points="833,35 833,38 801,38 801,11 833,11 833,19 "/>
<circle class="st1" cx="833" cy="27" r="8"/>
<line class="st2" x1="805" y1="9" x2="805" y2="13"/>
<line class="st2" x1="809" y1="9" x2="809" y2="13"/>
<line class="st2" x1="813" y1="9" x2="813" y2="13"/>
<line class="st2" x1="817" y1="9" x2="817" y2="13"/>
<line class="st2" x1="821" y1="9" x2="821" y2="13"/>
<line class="st2" x1="825" y1="9" x2="825" y2="13"/>
<line class="st2" x1="829" y1="9" x2="829" y2="13"/>
<polyline class="st2" points="832,23 832,28 835,28 "/>
<line class="st2" x1="805" y1="21" x2="808" y2="21"/>
<line class="st2" x1="812" y1="21" x2="815" y2="21"/>
<line class="st2" x1="819" y1="21" x2="822" y2="21"/>
<line class="st2" x1="805" y1="25" x2="808" y2="25"/>
<line class="st2" x1="812" y1="25" x2="815" y2="25"/>
<line class="st3" x1="819" y1="25" x2="822" y2="25"/>
<line class="st2" x1="805" y1="29" x2="808" y2="29"/>
<line class="st3" x1="812" y1="29" x2="815" y2="29"/>
<line class="st3" x1="819" y1="29" x2="822" y2="29"/>
<line class="st3" x1="805" y1="33" x2="808" y2="33"/>
<line class="st3" x1="812" y1="33" x2="815" y2="33"/>
<line class="st3" x1="819" y1="33" x2="822" y2="33"/>
<path class="st2" d="M881,20h-28c-1.1,0-2-0.9-2-2v-6c0-1.1,0.9-2,2-2h28c1.1,0,2,0.9,2,2v6C883,19.1,882.1,20,881,20z"/>
<polyline class="st2" points="883,15 887,15 887,24 868,24 868,31 "/>
<path class="st1" d="M868,43L868,43c-1.7,0-3-1.3-3-3v-9h6v9C871,41.7,869.7,43,868,43z"/>
<polyline class="st3" points="854,16 854,13 864,13 "/>
<line class="st3" x1="861" y1="40" x2="861" y2="24"/>
<line class="st3" x1="857" y1="34" x2="857" y2="24"/>
<line class="st3" x1="853" y1="29" x2="853" y2="24"/>
<polygon class="st2" points="917,23 906,18 917,13 928,18 "/>
<polyline class="st2" points="906,18 906,31 917,36 928,31 928,18 "/>
<line class="st2" x1="917" y1="23" x2="917" y2="36"/>
<path class="st3" d="M931.8,13.5l-14-6.1c-0.5-0.2-1.1-0.2-1.6,0l-14,6.1c-0.7,0.3-1.2,1-1.2,1.8v18.4c0,0.8,0.5,1.5,1.2,1.8l14,6.1
	c0.5,0.2,1.1,0.2,1.6,0l14-6.1c0.7-0.3,1.2-1,1.2-1.8V15.3C933,14.5,932.5,13.8,931.8,13.5z"/>
<path class="st2" d="M982,30v4c0,1.7-1.3,3-3,3h-25c-1.7,0-3-1.3-3-3V14h28c1.7,0,3,1.3,3,3v4"/>
<path class="st1" d="M977,14h-26v-2c0-1.7,1.3-3,3-3h20c1.7,0,3,1.3,3,3V14z"/>
<path class="st1" d="M982.5,30h-8c-2.5,0-4.5-2-4.5-4.5l0,0c0-2.5,2-4.5,4.5-4.5h8c2.5,0,4.5,2,4.5,4.5l0,0C987,28,985,30,982.5,30z
	"/>
<circle class="st5" cx="974.5" cy="25.5" r="1.5"/>
<polyline class="st3" points="955,23 955,18 962,18 "/>
<line class="st3" x1="953" y1="41" x2="980" y2="41"/>
<line class="st2" x1="1006" y1="27" x2="1020" y2="27"/>
<path class="st2" d="M1023,23h-20c-1.1,0-2-0.9-2-2V7c0-1.1,0.9-2,2-2h20c1.1,0,2,0.9,2,2v14C1025,22.1,1024.1,23,1023,23z"/>
<path class="st2" d="M1010,23c0,2.2-1.3,4-3,4"/>
<path class="st2" d="M1016,23c0,2.2,1.3,4,3,4"/>
<line class="st2" x1="1025" y1="39" x2="1025" y2="45"/>
<line class="st2" x1="1001" y1="44" x2="1001" y2="37.8"/>
<circle class="st10" cx="1005" cy="35" r="1"/>
<circle class="st10" cx="1008" cy="35" r="1"/>
<circle class="st10" cx="1011" cy="35" r="1"/>
<line class="st2" x1="1014" y1="35" x2="1021" y2="35"/>
<circle class="st2" cx="1068" cy="37" r="3"/>
<line class="st2" x1="1056" y1="37" x2="1065" y2="37"/>
<line class="st2" x1="1071" y1="37" x2="1080" y2="37"/>
<line class="st2" x1="1062" y1="30" x2="1075" y2="30"/>
<path class="st2" d="M1079,27h-22c-1.1,0-2-0.9-2-2V10c0-1.1,0.9-2,2-2h22c1.1,0,2,0.9,2,2v15C1081,26.1,1080.1,27,1079,27z"/>
<polyline class="st2" points="1058,16 1058,14 1063,14 "/>
<line class="st2" x1="1067" y1="11" x2="1069" y2="11"/>
<line class="st2" x1="1053" y1="37" x2="1051" y2="37"/>
<line class="st2" x1="1085" y1="37" x2="1083" y2="37"/>
<path class="st1" d="M1115,16L1115,16c0.1,0.9-0.2,1.6-0.5,2.1c-0.4,0.5-0.8,1-1.5,0.9c-0.1-0.9,0.2-1.5,0.6-2
	C1113.8,16.5,1114.4,16.1,1115,16z"/>
<path class="st1" d="M1119,28.8C1119,28.9,1119,28.9,1119,28.8c-0.3,1-0.8,1.8-1.3,2.6c-0.5,0.6-1.1,1.7-2.2,1.7
	c-0.9,0-1.5-0.6-2.6-0.6c-1,0-1.6,0.6-2.6,0.6c-0.1,0-0.3,0-0.3,0c-0.7-0.1-1.3-0.6-1.6-1.1c-1.2-1.5-2.2-3.3-2.3-5.7
	c0-0.3,0-0.5,0-0.7c0.1-1.7,0.9-3.1,2.1-3.8c0.6-0.4,1.4-0.6,2.3-0.6c0.3,0.1,0.8,0.2,1.1,0.3c0.3,0.1,0.8,0.4,1.1,0.4
	c0.3,0,0.5-0.2,0.8-0.3c0.8-0.3,1.5-0.6,2.6-0.5c1.2,0.2,2.1,0.7,2.6,1.6c-1,0.6-1.8,1.7-1.7,3.3C1117,27.4,1117.9,28.3,1119,28.8z"
	/>
<polyline class="st3" points="1105,15 1105,13 1110,13 "/>
<path class="st1" d="M1172,45h-19c-1.1,0-2-0.9-2-2V7c0-1.1,0.9-2,2-2h19c1.1,0,2,0.9,2,2v36C1174,44.1,1173.1,45,1172,45z"/>
<rect x="1151" y="9" class="st5" width="23" height="32"/>
<polyline class="st3" points="1155,15 1155,13 1160,13 "/>
<path class="st1" d="M1169,30h-13c0-3.6,2.9-6.5,6.5-6.5S1169,26.4,1169,30z"/>
<line class="st2" x1="1157" y1="21" x2="1159" y2="24"/>
<line class="st2" x1="1168" y1="21" x2="1166" y2="24"/>
<g>
	<path class="st0" d="M1215.1,47c-0.6,0-1-0.4-1-1v-2.1c-1.5-0.3-2.9-0.9-4.2-1.7l-1.5,1.5c-0.2,0.2-0.4,0.3-0.7,0.3
		c-0.3,0-0.5-0.1-0.7-0.3l-2.7-2.7c-0.2-0.2-0.3-0.4-0.3-0.7s0.1-0.5,0.3-0.7l1.5-1.5c-0.8-1.3-1.4-2.7-1.7-4.2h-2.1
		c-0.6,0-1-0.4-1-1v-3.8c0-0.6,0.4-1,1-1h2.1c0.3-1.5,0.9-2.9,1.7-4.2l-1.5-1.5c-0.2-0.2-0.3-0.4-0.3-0.7s0.1-0.5,0.3-0.7l2.7-2.7
		c0.2-0.2,0.4-0.3,0.7-0.3l0,0c0.3,0,0.5,0.1,0.7,0.3l1.5,1.5c1.3-0.8,2.7-1.4,4.2-1.7V16c0-0.6,0.4-1,1-1h3.8c0.6,0,1,0.4,1,1v2.1
		c1.5,0.3,2.9,0.9,4.2,1.7l1.5-1.5c0.2-0.2,0.4-0.3,0.7-0.3c0.3,0,0.5,0.1,0.7,0.3l2.7,2.7c0.2,0.2,0.3,0.4,0.3,0.7
		s-0.1,0.5-0.3,0.7l-1.5,1.5c0.8,1.3,1.4,2.7,1.7,4.2h2.1c0.6,0,1,0.4,1,1v3.8c0,0.6-0.4,1-1,1h-2.1c-0.3,1.5-0.9,2.9-1.7,4.2
		l1.5,1.5c0.2,0.2,0.3,0.4,0.3,0.7s-0.1,0.5-0.3,0.7l-2.7,2.7c-0.2,0.2-0.4,0.3-0.7,0.3l0,0c-0.3,0-0.5-0.1-0.7-0.3l-1.5-1.5
		c-1.3,0.8-2.7,1.4-4.2,1.7V46c0,0.6-0.4,1-1,1H1215.1z"/>
	<path class="st10" d="M1218.9,16v3c2,0.3,3.8,1.1,5.3,2.2l2.1-2.1l2.7,2.7l-2.1,2.1c1.1,1.5,1.9,3.3,2.2,5.3h3V33h-3
		c-0.3,2-1.1,3.8-2.2,5.3l2.1,2.1l-2.7,2.7l-2.1-2.1c-1.5,1.1-3.3,1.9-5.3,2.2v3h-3.8v-3c-2-0.3-3.8-1.1-5.3-2.2l-2.1,2.1l-2.7-2.7
		l2.1-2.1c-1.1-1.5-1.9-3.3-2.2-5.3h-3v-3.8h3c0.3-2,1.1-3.8,2.2-5.3l-2.1-2.1l2.7-2.7l2.1,2.1c1.5-1.1,3.3-1.9,5.3-2.2v-3H1218.9
		 M1218.9,14h-3.8c-1.1,0-2,0.9-2,2v1.4c-1.1,0.3-2.1,0.7-3,1.3l-1-1c-0.4-0.4-0.9-0.6-1.4-0.6s-1,0.2-1.4,0.6l-2.7,2.7
		c-0.4,0.4-0.6,0.9-0.6,1.4s0.2,1,0.6,1.4l1,1c-0.5,1-1,2-1.3,3h-1.4c-1.1,0-2,0.9-2,2V33c0,1.1,0.9,2,2,2h1.4
		c0.3,1.1,0.7,2.1,1.3,3l-1,1c-0.4,0.4-0.6,0.9-0.6,1.4s0.2,1,0.6,1.4l2.7,2.7c0.4,0.4,0.9,0.6,1.4,0.6s1-0.2,1.4-0.6l1-1
		c1,0.5,2,1,3,1.3V46c0,1.1,0.9,2,2,2h3.8c1.1,0,2-0.9,2-2v-1.4c1.1-0.3,2.1-0.7,3-1.3l1,1c0.4,0.4,0.9,0.6,1.4,0.6s1-0.2,1.4-0.6
		l2.7-2.7c0.4-0.4,0.6-0.9,0.6-1.4s-0.2-1-0.6-1.4l-1-1c0.5-1,1-2,1.3-3h1.4c1.1,0,2-0.9,2-2V29c0-1.1-0.9-2-2-2h-1.4
		c-0.3-1.1-0.7-2.1-1.3-3l1-1c0.4-0.4,0.6-0.9,0.6-1.4s-0.2-1-0.6-1.4l-2.7-2.7c-0.4-0.4-0.9-0.6-1.4-0.6s-1,0.2-1.4,0.6l-1,1
		c-1-0.5-2-1-3-1.3V16C1220.9,14.9,1220,14,1218.9,14L1218.9,14z"/>
</g>
<g>
	<circle class="st4" cx="1217" cy="31" r="9"/>
	<path class="st10" d="M1217,23c4.4,0,8,3.6,8,8s-3.6,8-8,8s-8-3.6-8-8S1212.6,23,1217,23 M1217,21c-5.5,0-10,4.5-10,10
		s4.5,10,10,10s10-4.5,10-10S1222.5,21,1217,21L1217,21z"/>
</g>
<path class="st2" d="M1215,33.1v-4.3c0-0.8,0.9-1.3,1.6-0.8l3.2,2.1c0.6,0.4,0.6,1.3,0,1.7l-3.2,2.1
	C1215.9,34.4,1215,33.9,1215,33.1z"/>
<line class="st3" x1="1217" y1="12" x2="1217" y2="4"/>
<line class="st3" x1="1210" y1="14" x2="1210" y2="8"/>
<line class="st3" x1="1224" y1="14" x2="1224" y2="8"/>
<line class="st3" x1="1203" y1="17" x2="1203" y2="12"/>
<line class="st3" x1="1231" y1="17" x2="1231" y2="12"/>
<path class="st2" d="M1262,44L1262,44c-4.4,0-8-3.6-8-8V22c0-0.6,0.4-1,1-1h14c0.6,0,1,0.4,1,1v14C1270,40.4,1266.4,44,1262,44z"/>
<path class="st3" d="M1259,17c0-1.7,1.3-3,3-3l0,0c1.7,0,3,1.3,3,3"/>
<path class="st3" d="M1255,17c0-3.9,3.1-7,7-7s7,3.1,7,7"/>
<path class="st3" d="M1251,17c0-6.1,4.9-11,11-11s11,4.9,11,11"/>
<circle class="st10" cx="1259.5" cy="32.5" r="1.5"/>
<circle class="st10" cx="1264.5" cy="32.5" r="1.5"/>
<circle class="st10" cx="1259.5" cy="37.5" r="1.5"/>
<circle class="st10" cx="1264.5" cy="37.5" r="1.5"/>
<path class="st1" d="M1269,27h-14c-0.6,0-1-0.4-1-1v-4c0-0.6,0.4-1,1-1h14c0.6,0,1,0.4,1,1v4C1270,26.6,1269.6,27,1269,27z"/>
<line class="st2" x1="1312" y1="35" x2="1328" y2="35"/>
<line class="st2" x1="1312" y1="39" x2="1328" y2="39"/>
<line class="st3" x1="1305" y1="22" x2="1301" y2="22"/>
<line class="st3" x1="1338" y1="22" x2="1334" y2="22"/>
<line class="st3" x1="1319" y1="4" x2="1319" y2="8"/>
<path class="st3" d="M1331,14"/>
<line class="st3" x1="1334" y1="11" x2="1331" y2="14"/>
<line class="st3" x1="1305" y1="11" x2="1308" y2="14"/>
<path class="st2" d="M1330,22.5c0-6.2-5.4-11.1-11.7-10.4c-4.8,0.5-8.7,4.5-9.2,9.3c-0.3,3.2,0.8,6.1,2.7,8.3
	c1.4,1.5,2.2,3.4,2.2,5.4l0,0h12v-1c0-1.8,0.5-3.6,1.7-4.9C1329.1,27.3,1330,25,1330,22.5z"/>
<path class="st10" d="M1316,23"/>
<path class="st3" d="M1313,22.5c0-3.6,2.9-6.5,6.5-6.5"/>
<polyline class="st2" points="1316,26 1319,29 1324.5,23.5 "/>
<polygon class="st5" points="1382,22 1382,5 1368,5 1368,22 1363,22 1375,36 1387,22 "/>
<polyline class="st2" points="1359,37 1359,41 1363,41 "/>
<line class="st2" x1="1391" y1="41" x2="1380" y2="41"/>
<line class="st2" x1="1391" y1="37" x2="1385" y2="37"/>
<polyline class="st3" points="1374,8 1371,8 1371,14 "/>
<line class="st3" x1="1364" y1="5" x2="1364" y2="15"/>
<line class="st3" x1="1386" y1="5" x2="1386" y2="15"/>
<line class="st3" x1="1390" y1="5" x2="1390" y2="10"/>
<line class="st3" x1="1360" y1="5" x2="1360" y2="10"/>
<circle class="st1" cx="1425" cy="25" r="11"/>
<circle class="st5" cx="1425" cy="25" r="5"/>
<circle class="st2" cx="1442" cy="7" r="3"/>
<circle class="st2" cx="1404" cy="5" r="3"/>
<circle class="st2" cx="1425" cy="46" r="3"/>
<line class="st2" x1="1435.3" y1="14.1" x2="1439.9" y2="9.2"/>
<line class="st2" x1="1428.4" y1="21.4" x2="1432.5" y2="17"/>
<line class="st2" x1="1417" y1="17.4" x2="1421.4" y2="21.6"/>
<line class="st2" x1="1406.2" y1="7.1" x2="1414.1" y2="14.7"/>
<line class="st2" x1="1425" y1="40" x2="1425" y2="43"/>
<line class="st2" x1="1425" y1="30" x2="1425" y2="36"/>
<line class="st2" x1="1436" y1="25" x2="1430" y2="25"/>
<line class="st2" x1="1416.8" y1="32.3" x2="1421.3" y2="28.3"/>
<path class="st2" d="M1495,13h-40c-1.1,0-2-0.9-2-2V7c0-1.1,0.9-2,2-2h40c1.1,0,2,0.9,2,2v4C1497,12.1,1496.1,13,1495,13z"/>
<line class="st2" x1="1457" y1="9" x2="1479" y2="9"/>
<polyline class="st2" points="1490,9 1491,10 1493,8 "/>
<path class="st2" d="M1495,24h-40c-1.1,0-2-0.9-2-2v-4c0-1.1,0.9-2,2-2h40c1.1,0,2,0.9,2,2v4C1497,23.1,1496.1,24,1495,24z"/>
<line class="st2" x1="1457" y1="20" x2="1470" y2="20"/>
<polyline class="st2" points="1490,20 1491,21 1493,19 "/>
<path class="st2" d="M1467.4,35H1455c-1.1,0-2-0.9-2-2v-4c0-1.1,0.9-2,2-2h27.1"/>
<line class="st3" x1="1457" y1="31" x2="1465" y2="31"/>
<path class="st11" d="M1495,46h-40c-1.1,0-2-0.9-2-2v-4c0-1.1,0.9-2,2-2h40c1.1,0,2,0.9,2,2v4C1497,45.1,1496.1,46,1495,46z"/>
<path class="st11" d="M1485.1,27h9.9c1.1,0,2,0.9,2,2v4c0,1.1-0.9,2-2,2h-24.9"/>
<path class="st2" d="M1522,16h-17c-1.1,0-2,0.9-2,2v27c0,1.1,0.9,2,2,2h27c1.1,0,2-0.9,2-2V28"/>
<rect x="1520.6" y="14.6" transform="matrix(0.7071 -0.7071 0.7071 0.7071 434.4448 1087.9425)" class="st8" width="19.8" height="9.9"/>
<line class="st2" x1="1524" y1="26" x2="1537" y2="13"/>
<polyline class="st2" points="1520,23 1517,26 1513,37 1524,33 1527,30 "/>
<line class="st2" x1="1516" y1="31" x2="1519" y2="34"/>
<polyline class="st1" points="1544,13 1547,10 1540,3 1537.5,5.5 "/>
<polyline class="st3" points="1507,26 1507,20 1511,20 "/>
<rect x="1536.9" y="3.2" transform="matrix(0.7071 -0.7071 0.7071 0.7071 442.9803 1091.4486)" class="st12" width="4.2" height="15.6"/>
<path class="st2" d="M40,93H8c-1.1,0-2-0.9-2-2V60c0-1.1,0.9-2,2-2h32c1.1,0,2,0.9,2,2v31C42,92.1,41.1,93,40,93z"/>
<line class="st2" x1="6" y1="89" x2="42" y2="89"/>
<circle class="st10" cx="11.5" cy="72.5" r="1.5"/>
<circle class="st10" cx="17.5" cy="72.5" r="1.5"/>
<circle class="st10" cx="23.5" cy="72.5" r="1.5"/>
<circle class="st10" cx="11.5" cy="78.5" r="1.5"/>
<circle class="st10" cx="17.5" cy="78.5" r="1.5"/>
<circle class="st10" cx="23.5" cy="78.5" r="1.5"/>
<circle class="st10" cx="11.5" cy="84.5" r="1.5"/>
<circle class="st10" cx="17.5" cy="84.5" r="1.5"/>
<circle class="st10" cx="23.5" cy="84.5" r="1.5"/>
<rect x="6" y="62" class="st1" width="36" height="6"/>
<line class="st2" x1="39" y1="65" x2="36" y2="65"/>
<circle class="st1" cx="42" cy="78" r="7"/>
<line class="st3" x1="10" y1="96" x2="39" y2="96"/>
<line class="st2" x1="42" y1="74" x2="42" y2="78"/>
<line class="st2" x1="40" y1="76" x2="44" y2="76"/>
<line class="st2" x1="40" y1="81" x2="44" y2="81"/>
<ellipse class="st2" cx="64.5" cy="60" rx="9.5" ry="5"/>
<path class="st3" d="M59.7,60c0.9-0.5,2.5-1,4.8-1"/>
<path class="st2" d="M55,60.4V65c0,2.8,4.3,5,9.5,5s9.5-2.2,9.5-5v-5"/>
<path class="st2" d="M55,65.4V70c0,2.8,4.3,5,9.5,5s9.5-2.2,9.5-5v-5"/>
<path class="st2" d="M55,70.4V75c0,2.8,4.3,5,9.5,5s9.5-2.2,9.5-5v-5"/>
<path class="st2" d="M55,75.4V80c0,2.8,4.3,5,9.5,5s9.5-2.2,9.5-5v-5"/>
<path class="st2" d="M55,80.4V85c0,2.8,4.3,5,9.5,5s9.5-2.2,9.5-5v-5"/>
<circle class="st1" cx="82" cy="82" r="13"/>
<circle class="st5" cx="82" cy="82" r="9"/>
<line class="st2" x1="82" y1="77" x2="82" y2="87"/>
<path class="st5" d="M83.5,82H80v-3h3.5c0.8,0,1.5,0.7,1.5,1.5l0,0C85,81.3,84.3,82,83.5,82z"/>
<path class="st5" d="M83.5,85H80v-3h3.5c0.8,0,1.5,0.7,1.5,1.5l0,0C85,84.3,84.3,85,83.5,85z"/>
<circle class="st2" cx="106" cy="56" r="4"/>
<line class="st2" x1="108.9" y1="58.7" x2="116.3" y2="65.8"/>
<circle class="st2" cx="114" cy="94" r="4"/>
<circle class="st2" cx="145" cy="62" r="4"/>
<line class="st2" x1="135.3" y1="67.8" x2="141.6" y2="64.1"/>
<line class="st2" x1="115.9" y1="90.5" x2="119.2" y2="84.5"/>
<circle class="st1" cx="125" cy="74" r="12"/>
<circle class="st3" cx="134" cy="53" r="2"/>
<polyline class="st2" points="117,74 121,74 124,68 126,80 129,74 133,74 "/>
<line class="st2" x1="170" y1="58" x2="175" y2="58"/>
<line class="st3" x1="179" y1="58" x2="181" y2="58"/>
<line class="st3" x1="162" y1="63" x2="167" y2="63"/>
<line class="st13" x1="171" y1="63" x2="188" y2="63"/>
<line class="st13" x1="159" y1="68" x2="172" y2="68"/>
<line class="st2" x1="176" y1="68" x2="192" y2="68"/>
<line class="st2" x1="157" y1="73" x2="185" y2="73"/>
<line class="st3" x1="189" y1="73" x2="194" y2="73"/>
<line class="st13" x1="158" y1="78" x2="177" y2="78"/>
<line class="st3" x1="181" y1="78" x2="193" y2="78"/>
<line class="st3" x1="159" y1="83" x2="162" y2="83"/>
<line class="st2" x1="166" y1="83" x2="192" y2="83"/>
<line class="st2" x1="162" y1="88" x2="172" y2="88"/>
<line class="st13" x1="176" y1="88" x2="189" y2="88"/>
<line class="st2" x1="170" y1="93" x2="174" y2="93"/>
<line class="st3" x1="178" y1="93" x2="181" y2="93"/>
<path class="st2" d="M241,88c0,1.1-0.9,2-2,2h-28c-1.1,0-2-0.9-2-2V62c0-1.1,0.9-2,2-2h28c1.1,0,2,0.9,2,2v6"/>
<line class="st2" x1="210" y1="66" x2="241" y2="66"/>
<circle class="st10" cx="212" cy="63" r="1"/>
<circle class="st10" cx="215" cy="63" r="1"/>
<circle class="st10" cx="218" cy="63" r="1"/>
<line class="st2" x1="213" y1="70" x2="223" y2="70"/>
<line class="st3" x1="213" y1="74" x2="215" y2="74"/>
<line class="st3" x1="226" y1="70" x2="230" y2="70"/>
<line class="st2" x1="218" y1="74" x2="228" y2="74"/>
<line class="st13" x1="213" y1="78" x2="222" y2="78"/>
<line class="st3" x1="225" y1="78" x2="227" y2="78"/>
<polyline class="st2" points="213,82 215,84 213,86 "/>
<g>
	<path class="st0" d="M238.4,87c-0.6,0-1-0.4-1-1v-1.1c-0.2-0.1-0.3-0.1-0.5-0.2l-0.8,0.8c-0.2,0.2-0.5,0.3-0.7,0.3
		s-0.5-0.1-0.7-0.3l-2.3-2.3c-0.4-0.4-0.4-1,0-1.4l0.8-0.8c-0.1-0.1-0.1-0.3-0.2-0.5h-1c-0.6,0-1-0.4-1-1v-3.2c0-0.6,0.4-1,1-1h1.1
		c0.1-0.2,0.1-0.3,0.2-0.5l-0.8-0.8c-0.4-0.4-0.4-1,0-1.4l2.3-2.3c0.2-0.2,0.5-0.3,0.7-0.3s0.5,0.1,0.7,0.3l0.8,0.8
		c0.1-0.1,0.3-0.1,0.5-0.2V70c0-0.6,0.4-1,1-1h3.2c0.6,0,1,0.4,1,1v1.1c0.2,0.1,0.3,0.1,0.5,0.2l0.8-0.8c0.2-0.2,0.5-0.3,0.7-0.3
		s0.5,0.1,0.7,0.3l2.3,2.3c0.4,0.4,0.4,1,0,1.4l-0.8,0.8c0.1,0.1,0.1,0.3,0.2,0.5h1.1c0.6,0,1,0.4,1,1v3.2c0,0.6-0.4,1-1,1h-1.1
		c-0.1,0.2-0.1,0.3-0.2,0.5l0.8,0.8c0.4,0.4,0.4,1,0,1.4l-2.3,2.3c-0.2,0.2-0.5,0.3-0.7,0.3s-0.5-0.1-0.7-0.3l-0.8-0.8
		c-0.1,0.1-0.3,0.1-0.5,0.2V86c0,0.6-0.4,1-1,1H238.4z"/>
	<path class="st10" d="M241.6,70v1.8c0.6,0.2,1.1,0.4,1.6,0.7l1.3-1.3l2.3,2.3l-1.3,1.3c0.3,0.5,0.5,1.1,0.7,1.6h1.8v3.2h-1.8
		c-0.2,0.6-0.4,1.1-0.7,1.6l1.3,1.3l-2.3,2.3l-1.3-1.3c-0.5,0.3-1.1,0.5-1.6,0.7V86h-3.2v-1.8c-0.6-0.2-1.1-0.4-1.6-0.7l-1.3,1.3
		l-2.3-2.3l1.3-1.3c-0.3-0.5-0.5-1.1-0.7-1.6H232v-3.2h1.8c0.2-0.6,0.4-1.1,0.7-1.6l-1.3-1.3l2.3-2.3l1.3,1.3
		c0.5-0.3,1.1-0.5,1.6-0.7V70H241.6 M241.6,68h-3.2c-0.9,0-1.7,0.6-1.9,1.5c-0.3-0.2-0.7-0.3-1-0.3c-0.5,0-1,0.2-1.4,0.6l-2.3,2.3
		c-0.4,0.4-0.6,0.9-0.6,1.4c0,0.4,0.1,0.7,0.3,1c-0.9,0.2-1.5,1-1.5,1.9v3.2c0,0.9,0.6,1.7,1.5,1.9c-0.2,0.3-0.3,0.6-0.3,1
		c0,0.5,0.2,1,0.6,1.4l2.3,2.3c0.4,0.4,0.9,0.6,1.4,0.6c0.3,0,0.7-0.1,1-0.3c0.2,0.9,1,1.5,1.9,1.5h3.2c0.9,0,1.7-0.6,1.9-1.5
		c0.3,0.2,0.7,0.3,1,0.3c0.5,0,1-0.2,1.4-0.6l2.3-2.3c0.4-0.4,0.6-0.9,0.6-1.4c0-0.4-0.1-0.7-0.3-1c0.9-0.2,1.5-1,1.5-1.9v-3.2
		c0-0.9-0.6-1.7-1.5-1.9c0.2-0.3,0.3-0.6,0.3-1c0-0.5-0.2-1-0.6-1.4l-2.3-2.3c-0.4-0.4-0.9-0.6-1.4-0.6c-0.3,0-0.7,0.1-1,0.3
		C243.3,68.6,242.5,68,241.6,68L241.6,68z"/>
</g>
<circle class="st5" cx="240" cy="78" r="3"/>
<circle class="st10" cx="29.5" cy="72.5" r="1.5"/>
<circle class="st10" cx="29.5" cy="78.5" r="1.5"/>
<line class="st2" x1="260" y1="76" x2="290" y2="76"/>
<path class="st1" d="M262,75.9V71c0-5.4,3.3-10,8-12h10c4.7,2,8,6.6,8,12v5L262,75.9z"/>
<path class="st2" d="M286.7,76v2.5c0,6.5-5.2,11.7-11.7,11.7l0,0c-6.5,0-11.7-5.2-11.7-11.7v-2.2"/>
<circle class="st5" cx="275" cy="75" r="6"/>
<circle class="st5" cx="275" cy="75" r="3"/>
<path class="st1" d="M270,64v-6c0-0.6,0.4-1,1-1h8c0.6,0,1,0.4,1,1v6"/>
<path class="st2" d="M270,89.1V92c0,1.1-0.9,2-2,2h-4"/>
<path class="st2" d="M280,89.1V92c0,1.1,0.9,2,2,2h3"/>
<path class="st5" d="M309,66v-4c0-1.1,0.9-2,2-2h28c1.1,0,2,0.9,2,2v4"/>
<circle class="st10" cx="312" cy="63" r="1"/>
<circle class="st10" cx="315" cy="63" r="1"/>
<circle class="st10" cx="318" cy="63" r="1"/>
<path class="st1" d="M310,66h31v2v20c0,1.1-0.9,2-2,2h-28c-1.1,0-2-0.9-2-2V66H310z"/>
<line class="st2" x1="313" y1="70" x2="323" y2="70"/>
<line class="st14" x1="313" y1="74" x2="315" y2="74"/>
<line class="st14" x1="326" y1="70" x2="330" y2="70"/>
<line class="st2" x1="318" y1="74" x2="328" y2="74"/>
<line class="st13" x1="313" y1="78" x2="322" y2="78"/>
<line class="st14" x1="325" y1="78" x2="327" y2="78"/>
<line class="st2" x1="313" y1="86" x2="317" y2="86"/>
<g>
	<line class="st2" x1="355" y1="74" x2="358" y2="74"/>
	<g>
		<path class="st5" d="M383,90h-25V72h25c5,0,9,4,9,9l0,0C392,86,388,90,383,90z"/>
		<polyline class="st2" points="351,69 354,69 354,93 		"/>
		<line class="st2" x1="355" y1="88" x2="358" y2="88"/>
		<line class="st2" x1="361" y1="93" x2="361" y2="90"/>
		<line class="st2" x1="365" y1="93" x2="365" y2="90"/>
		<polyline class="st5" points="367,81 367,76 372,76 367,81 		"/>
		<polyline class="st5" points="367,81 372,81 372,86 367,81 		"/>
		<polyline class="st5" points="367,81 367,86 362,86 367,81 		"/>
		<polyline class="st5" points="367,81 362,81 362,76 367,81 		"/>
		<polyline class="st5" points="381,81 381,76 386,76 381,81 		"/>
		<polyline class="st5" points="381,81 386,81 386,86 381,81 		"/>
		<polyline class="st5" points="381,81 381,86 376,86 381,81 		"/>
		<polyline class="st5" points="381,81 376,81 376,76 381,81 		"/>
	</g>
</g>
<line class="st2" x1="419" y1="75" x2="434" y2="60"/>
<circle class="st1" cx="419" cy="75" r="6"/>
<path class="st2" d="M437,75c0,9.9-8.1,18-18,18s-18-8.1-18-18s8.1-18,18-18c5,0,9.5,2,12.7,5.3"/>
<path class="st2" d="M431,75c0,6.6-5.4,12-12,12s-12-5.4-12-12s5.4-12,12-12c3.3,0,6.3,1.3,8.5,3.5"/>
<polyline class="st2" points="418,77 418,73 421,75 418,77 "/>
<circle class="st0" cx="431" cy="72" r="1"/>
<circle class="st0" cx="430" cy="69" r="1"/>
<circle class="st0" cx="437" cy="72" r="1"/>
<circle class="st0" cx="436" cy="68" r="1"/>
<circle class="st0" cx="434" cy="65" r="1"/>
<path class="st1" d="M451,63v-6c0-1.1,0.9-2,2-2h33c1.1,0,2,0.9,2,2v6"/>
<polyline class="st2" points="451,77 451,63 488,63 488,77 "/>
<path class="st2" d="M488,87.1V93c0,1.1-0.9,2-2,2h-33c-1.1,0-2-0.9-2-2v-6"/>
<line class="st2" x1="451" y1="81" x2="451" y2="83"/>
<line class="st2" x1="488" y1="81" x2="488" y2="83"/>
<line class="st2" x1="452" y1="69" x2="488" y2="69"/>
<line class="st2" x1="452" y1="89" x2="488" y2="89"/>
<line class="st3" x1="454" y1="66" x2="463" y2="66"/>
<line class="st3" x1="454" y1="92" x2="463" y2="92"/>
<line class="st2" x1="452" y1="75" x2="488" y2="75"/>
<line class="st3" x1="454" y1="72" x2="463" y2="72"/>
<path class="st1" d="M543,80h-22c-2.8,0-5-2.2-5-5l0,0c0-2.8,2.2-5,5-5h22c2.8,0,5,2.2,5,5l0,0C548,77.8,545.8,80,543,80z"/>
<line class="st2" x1="543" y1="73" x2="543" y2="77"/>
<line class="st2" x1="545" y1="75" x2="541" y2="75"/>
<path class="st2" d="M537,80.6V89c0,1.1-0.9,2-2,2h-32c-1.1,0-2-0.9-2-2V61c0-1.1,0.9-2,2-2h32c1.1,0,2,0.9,2,2v8.6"/>
<line class="st2" x1="521" y1="75" x2="534" y2="75"/>
<polygon class="st2" points="482,58 483,60 484,58 "/>
<line class="st2" x1="501" y1="67" x2="537" y2="67"/>
<line class="st2" x1="501" y1="83" x2="537" y2="83"/>
<polyline class="st2" points="505,63 506,64 508,62 "/>
<polyline class="st2" points="505,71 506,72 508,70 "/>
<polyline class="st2" points="505,79 506,80 508,78 "/>
<polyline class="st2" points="505,87 506,88 508,86 "/>
<line class="st3" x1="533" y1="63" x2="528" y2="63"/>
<line class="st3" x1="533" y1="87" x2="528" y2="87"/>
<line class="st3" x1="524" y1="63" x2="519" y2="63"/>
<line class="st3" x1="524" y1="87" x2="519" y2="87"/>
<path class="st2" d="M585,93h-32c-1.1,0-2-0.9-2-2V59c0-1.1,0.9-2,2-2h32c1.1,0,2,0.9,2,2v32C587,92.1,586.1,93,585,93z"/>
<line class="st2" x1="569" y1="53" x2="569" y2="97"/>
<polyline class="st2" points="560,72 564,76 560,80 "/>
<polyline class="st2" points="578,80 574,76 578,72 "/>
<g>
	<g>
		<polyline class="st6" points="584,88.5 584,90 582.5,90 		"/>
		<line class="st15" x1="578.2" y1="90" x2="557.7" y2="90"/>
		<polyline class="st6" points="555.5,90 554,90 554,88.5 		"/>
		<line class="st15" x1="554" y1="84.2" x2="554" y2="63.7"/>
		<polyline class="st6" points="554,61.5 554,60 555.5,60 		"/>
		<line class="st15" x1="559.8" y1="60" x2="580.3" y2="60"/>
		<polyline class="st6" points="582.5,60 584,60 584,61.5 		"/>
		<line class="st15" x1="584" y1="65.8" x2="584" y2="86.3"/>
	</g>
</g>
<path class="st1" d="M632,57h-14c-1.7,0-3-1.3-3-3l0,0c0-1.7,1.3-3,3-3h14c1.7,0,3,1.3,3,3l0,0C635,55.7,633.7,57,632,57z"/>
<polyline class="st3" points="620.3,70 611,70 611,76 "/>
<polyline class="st3" points="639,76.1 639,70 630,70 "/>
<polyline class="st3" points="639,82 639,88 625,88 625,93 "/>
<polyline class="st3" points="611,82 611,88 625,88 "/>
<rect x="620" y="65.1" transform="matrix(0.7071 -0.7071 0.7071 0.7071 133.5101 462.4184)" class="st8" width="9.9" height="9.9"/>
<rect x="607" y="76" class="st2" width="8" height="6"/>
<rect x="635" y="76" class="st2" width="8" height="6"/>
<path class="st1" d="M632,99h-14c-1.7,0-3-1.3-3-3l0,0c0-1.7,1.3-3,3-3h14c1.7,0,3,1.3,3,3l0,0C635,97.7,633.7,99,632,99z"/>
<line class="st3" x1="610" y1="79" x2="612" y2="79"/>
<line class="st3" x1="638" y1="79" x2="640" y2="79"/>
<line class="st2" x1="623" y1="96" x2="627" y2="96"/>
<line class="st2" x1="622" y1="54" x2="628" y2="54"/>
<polyline class="st2" points="625,68 627,70 625,72 "/>
<path class="st2" d="M675,89h9.5c2.2-2.7,3.5-6.2,3.5-10c0-8.8-7.2-16-16-16s-16,7.2-16,16c0,3.8,1.3,7.3,3.5,10h9.5"/>
<circle class="st1" cx="672" cy="89" r="3"/>
<line class="st2" x1="672" y1="66" x2="672" y2="63"/>
<line class="st2" x1="682" y1="71" x2="684" y2="69"/>
<line class="st2" x1="659" y1="79" x2="656" y2="79"/>
<path class="st1" d="M678.6,84.2c-0.8,0.8-2,0.8-2.8,0s-0.8-2,0-2.8s7.7-6.4,8.5-5.7C685,76.5,679.4,83.5,678.6,84.2z"/>
<g>
	<path class="st3" d="M664.2,86.1c-3.4-4.3-2.6-10.6,1.7-14s10.6-2.6,14,1.7"/>
	<path class="st3" d="M667.4,83.6c-2-2.6-1.6-6.4,1-8.4s6.4-1.6,8.4,1"/>
	<path class="st3" d="M670.5,81.2c-0.7-0.9-0.5-2.1,0.3-2.8c0.9-0.7,2.1-0.5,2.8,0.3"/>
</g>
<path class="st2" d="M655.8,89c-1.8-2.9-2.8-6.3-2.8-10c0-10.5,8.5-19,19-19s19,8.5,19,19c0,3.7-1,7.1-2.8,10"/>
<circle class="st1" cx="658" cy="65" r="7"/>
<polyline class="st2" points="656,64 658,62 660,64 "/>
<line class="st2" x1="658" y1="68" x2="658" y2="62.3"/>
<line class="st2" x1="701" y1="89" x2="738" y2="89"/>
<polyline class="st2" points="701,82 706,77 711,77 716,72 721,77 738,61 "/>
<circle class="st1" cx="731" cy="68" r="7"/>
<polyline class="st2" points="729,67 731,65 733,67 "/>
<line class="st2" x1="731" y1="71" x2="731" y2="65.3"/>
<path class="st2" d="M708,65L708,65c0-1.1-0.9-2-2-2l0,0c-1.1,0-2,0.9-2,2l0,0c0,0.6,0.3,1.2,0.9,1.4l2.2,1.1
	c0.5,0.3,0.9,0.8,0.9,1.4l0,0c0,1.1-0.9,2-2,2l0,0c-1.1,0-2-0.9-2-2l0,0"/>
<line class="st2" x1="706" y1="61" x2="706" y2="63"/>
<line class="st2" x1="706" y1="71" x2="706" y2="73"/>
<line class="st3" x1="755" y1="88" x2="755" y2="64.1"/>
<ellipse class="st2" cx="760.5" cy="60" rx="9.5" ry="5"/>
<path class="st3" d="M755.7,60c0.9-0.5,2.5-1,4.8-1"/>
<path class="st2" d="M751,60.4V65c0,2.8,4.3,5,9.5,5s9.5-2.2,9.5-5v-5"/>
<path class="st2" d="M751,65.4V70c0,2.8,4.3,5,9.5,5s9.5-2.2,9.5-5v-5"/>
<path class="st2" d="M751,70.4V75c0,2.8,4.3,5,9.5,5s9.5-2.2,9.5-5v-5"/>
<path class="st2" d="M751,75.4V80c0,2.8,4.3,5,9.5,5s9.5-2.2,9.5-5v-5"/>
<path class="st2" d="M751,80.4V85c0,2.8,4.3,5,9.5,5s9.5-2.2,9.5-5v-5"/>
<circle class="st1" cx="778" cy="82" r="13"/>
<circle class="st5" cx="778" cy="82" r="9"/>
<line class="st2" x1="778" y1="77" x2="778" y2="87"/>
<path class="st5" d="M779.5,82H776v-3h3.5c0.8,0,1.5,0.7,1.5,1.5l0,0C781,81.3,780.3,82,779.5,82z"/>
<path class="st5" d="M779.5,85H776v-3h3.5c0.8,0,1.5,0.7,1.5,1.5l0,0C781,84.3,780.3,85,779.5,85z"/>
<line class="st2" x1="871" y1="91" x2="871" y2="79"/>
<circle class="st5" cx="871" cy="67" r="8"/>
<line class="st2" x1="871" y1="62" x2="871" y2="72"/>
<path class="st5" d="M872.5,67H869v-3h3.5c0.8,0,1.5,0.7,1.5,1.5l0,0C874,66.3,873.3,67,872.5,67z"/>
<path class="st5" d="M872.5,70H869v-3h3.5c0.8,0,1.5,0.7,1.5,1.5l0,0C874,69.3,873.3,70,872.5,70z"/>
<polyline class="st2" points="871,87 862,86.9 862,91 "/>
<polyline class="st2" points="880,91 880,83 871,83.1 "/>
<polyline class="st2" points="883,69.1 889,69 889,91 "/>
<polyline class="st2" points="859,69.1 853,69 853,91 "/>
<circle class="st2" cx="889" cy="93" r="2"/>
<circle class="st5" cx="821" cy="75" r="5"/>
<circle class="st2" cx="880" cy="93" r="2"/>
<circle class="st2" cx="862" cy="93" r="2"/>
<circle class="st2" cx="862" cy="93" r="2"/>
<circle class="st2" cx="871" cy="93" r="2"/>
<circle class="st2" cx="871" cy="93" r="2"/>
<circle class="st2" cx="853" cy="93" r="2"/>
<circle class="st2" cx="853" cy="93" r="2"/>
<circle class="st5" cx="838" cy="58" r="2"/>
<circle class="st5" cx="804" cy="58" r="2"/>
<circle class="st5" cx="804" cy="92" r="2"/>
<circle class="st5" cx="804" cy="75" r="3"/>
<circle class="st5" cx="838" cy="75" r="3"/>
<circle class="st5" cx="822" cy="58" r="3"/>
<circle class="st5" cx="822" cy="92" r="3"/>
<circle class="st5" cx="838" cy="92" r="2"/>
<circle class="st1" cx="913" cy="75" r="12"/>
<circle class="st5" cx="913" cy="75" r="8"/>
<line class="st2" x1="913" y1="71" x2="913" y2="79"/>
<polyline class="st5" points="917,77 909,77 909,73 917,73 "/>
<circle class="st1" cx="929" cy="75" r="12"/>
<circle class="st5" cx="929" cy="75" r="8"/>
<line class="st2" x1="929" y1="70" x2="929" y2="80"/>
<path class="st5" d="M930.5,75H927v-3h3.5c0.8,0,1.5,0.7,1.5,1.5l0,0C932,74.3,931.3,75,930.5,75z"/>
<path class="st5" d="M930.5,78H927v-3h3.5c0.8,0,1.5,0.7,1.5,1.5l0,0C932,77.3,931.3,78,930.5,78z"/>
<polyline class="st2" points="909,63 909,57 933,57 933,63 "/>
<polyline class="st2" points="933,87 933,93 909,93 909,87 "/>
<path class="st5" d="M1071,83h-16V61h11c2.8,0,5,2.2,5,5V83z"/>
<path class="st5" d="M1087,83h-16V66c0-2.8,2.2-5,5-5h11V83z"/>
<line class="st3" x1="1053" y1="90" x2="1069" y2="90"/>
<line class="st3" x1="1073" y1="90" x2="1089" y2="90"/>
<path class="st2" d="M1060,69v-1.5c0-0.8,0.7-1.5,1.5-1.5l0,0c0.8,0,1.5,0.7,1.5,1.5V69"/>
<path class="st2" d="M1063,69v-1.5c0-0.8,0.7-1.5,1.5-1.5l0,0c0.8,0,1.5,0.7,1.5,1.5V69"/>
<line class="st2" x1="1060" y1="73" x2="1066" y2="73"/>
<line class="st2" x1="1078" y1="66" x2="1083" y2="66"/>
<line class="st2" x1="1060" y1="76" x2="1066" y2="76"/>
<line class="st2" x1="1060" y1="79" x2="1066" y2="79"/>
<line class="st2" x1="1075" y1="66" x2="1075" y2="66"/>
<line class="st2" x1="1078" y1="70" x2="1083" y2="70"/>
<line class="st2" x1="1075" y1="70" x2="1075" y2="70"/>
<line class="st2" x1="1078" y1="74" x2="1083" y2="74"/>
<line class="st2" x1="1075" y1="74" x2="1075" y2="74"/>
<line class="st2" x1="1078" y1="78" x2="1083" y2="78"/>
<line class="st2" x1="1075" y1="78" x2="1075" y2="78"/>
<g>
	<polygon class="st0" points="1025,78 1025,73 1032.5,65.5 1037.6,70.4 1030.3,78 	"/>
	<polygon class="st4" points="1032.5,65.5 1036,62 1041,67 1037.6,70.4 	"/>
	<polygon class="st2" points="1036,62 1041,67 1030,78 1025,78 1025,73 	"/>
	<line class="st2" x1="1033" y1="66" x2="1037" y2="70"/>
</g>
<line class="st2" x1="1006" y1="66" x2="1024" y2="66"/>
<line class="st2" x1="1006" y1="70" x2="1022" y2="70"/>
<line class="st2" x1="1006" y1="74" x2="1020" y2="74"/>
<line class="st2" x1="1006" y1="78" x2="1020" y2="78"/>
<line class="st2" x1="1006" y1="82" x2="1029" y2="82"/>
<line class="st3" x1="1016" y1="90" x2="1032" y2="90"/>
<path class="st2" d="M983,72c0-6.5-5.6-11.7-12.3-10.9c-5,0.6-9.1,4.7-9.7,9.7c-0.5,4.3,1.6,8.2,4.8,10.3c1.9,1.3,3.1,3.5,3.1,5.8
	V92c0,1.7,1.3,3,3,3l0,0c1.7,0,3-1.3,3-3v-5.1c0-2.3,1.1-4.5,3.1-5.8C981,79.2,983,75.8,983,72z"/>
<line class="st2" x1="967" y1="91" x2="977" y2="89"/>
<line class="st2" x1="967" y1="88" x2="977" y2="86"/>
<line class="st2" x1="972" y1="58" x2="972" y2="55"/>
<line class="st2" x1="986" y1="72" x2="989" y2="72"/>
<line class="st2" x1="955" y1="72" x2="958" y2="72"/>
<line class="st2" x1="981.9" y1="81.9" x2="984.3" y2="84.3"/>
<line class="st2" x1="959.7" y1="59.7" x2="962.1" y2="62.1"/>
<line class="st2" x1="981.9" y1="62.1" x2="984.3" y2="59.7"/>
<line class="st2" x1="959.7" y1="84.3" x2="962.1" y2="81.9"/>
<path class="st2" d="M972,76v-2c1.7,0,3-1.3,3-3l0,0c0-1.7-1.3-3-3-3l0,0c-1.7,0-3,1.3-3,3l0,0"/>
<circle class="st10" cx="972" cy="79" r="1"/>
<path class="st3" d="M964,72c0-4.4,3.6-8,8-8"/>
<path class="st16" d="M1557.5,30.5V18.8c0-5.7,4.6-10.3,10.3-10.3h10.7"/>
<polyline class="st16" points="1575.5,4.5 1579.5,8.5 1575.5,12.5 "/>
<path class="st16" d="M1594.8,13.5h-6.7c-0.9,0-1.7-0.8-1.7-1.7V5.2c0-0.9,0.8-1.7,1.7-1.7h6.7c0.9,0,1.7,0.8,1.7,1.7v6.7
	C1596.5,12.7,1595.7,13.5,1594.8,13.5z"/>
<path class="st16" d="M1591.5,20.5v11.7c0,5.7-5.6,10.3-11.3,10.3h-9.7"/>
<polyline class="st16" points="1573.5,46.5 1569.5,42.5 1573.5,38.5 "/>
<path class="st16" d="M1554.2,37.5h6.7c0.9,0,1.7,0.8,1.7,1.7v6.7c0,0.9-0.8,1.7-1.7,1.7h-6.7c-0.9,0-1.7-0.8-1.7-1.7v-6.7
	C1552.5,38.3,1553.3,37.5,1554.2,37.5z"/>
<line class="st16" x1="1567.5" y1="31.5" x2="1579.5" y2="20.5"/>
<line class="st16" x1="1568" y1="20" x2="1579" y2="32"/>
<path class="st1" d="M1109.1,82h7.7c0.6,0,1.1,0.5,1.1,1.1v7.7c0,0.6-0.5,1.1-1.1,1.1h-7.7c-0.6,0-1.1-0.5-1.1-1.1v-7.7
	C1108,82.5,1108.5,82,1109.1,82z"/>
<path class="st5" d="M1113.1,78h7.7c0.6,0,1.1,0.5,1.1,1.1v7.7c0,0.6-0.5,1.1-1.1,1.1h-7.7c-0.6,0-1.1-0.5-1.1-1.1v-7.7
	C1112,78.5,1112.5,78,1113.1,78z"/>
<path class="st5" d="M1133.1,58h7.7c0.6,0,1.1,0.5,1.1,1.1v7.7c0,0.6-0.5,1.1-1.1,1.1h-7.7c-0.6,0-1.1-0.5-1.1-1.1v-7.7
	C1132,58.5,1132.5,58,1133.1,58z"/>
<path class="st2" d="M1128,63h-7c-2.2,0-4,1.8-4,4v6"/>
<polyline class="st2" points="1114,71 1117,74 1120,71 "/>
<path class="st3" d="M1126,83h7c2.2,0,4-1.8,4-4v-6"/>
<polyline class="st3" points="1140,75 1137,72 1134,75 "/>
<polyline class="st2" points="1137,61 1135,61 1135,63 "/>
<polyline class="st2" points="1117,81 1115,81 1115,83 "/>
<path class="st2" d="M1169.3,68h-16.6c-1,0-1.7-0.8-1.7-1.7v-4.6c0-1,0.8-1.7,1.7-1.7h16.6c1,0,1.7,0.8,1.7,1.7v4.6
	C1171,67.2,1170.2,68,1169.3,68z"/>
<line class="st2" x1="1155" y1="64" x2="1161" y2="64"/>
<line class="st2" x1="1165" y1="64" x2="1164" y2="64"/>
<path class="st1" d="M1169.3,79h-16.6c-1,0-1.7-0.8-1.7-1.7v-4.6c0-1,0.8-1.7,1.7-1.7h16.6c1,0,1.7,0.8,1.7,1.7v4.6
	C1171,78.2,1170.2,79,1169.3,79z"/>
<line class="st2" x1="1155" y1="75" x2="1161" y2="75"/>
<line class="st2" x1="1165" y1="75" x2="1164" y2="75"/>
<path class="st2" d="M1169.3,90h-16.6c-1,0-1.7-0.8-1.7-1.7v-4.6c0-1,0.8-1.7,1.7-1.7h16.6c1,0,1.7,0.8,1.7,1.7v4.6
	C1171,89.2,1170.2,90,1169.3,90z"/>
<line class="st2" x1="1155" y1="86" x2="1161" y2="86"/>
<line class="st2" x1="1165" y1="86" x2="1164" y2="86"/>
<path class="st2" d="M1189,62.5L1189,62.5c0-0.5,0.2-0.9,0.6-1.2c1-0.8,1.6-2.1,1.3-3.6c-0.3-1.3-1.3-2.3-2.6-2.6
	c-2.3-0.5-4.3,1.2-4.3,3.4c0,1.1,0.5,2.1,1.4,2.8c0.4,0.3,0.6,0.7,0.6,1.2l0,0c0,0.8-0.7,1.5-1.5,1.5h-0.5c-1.1,0-2,0.9-2,2v2h11v-2
	c0-1.1-0.9-2-2-2h-0.5C1189.7,64,1189,63.3,1189,62.5z"/>
<path class="st2" d="M1189,89.5L1189,89.5c0-0.5,0.2-0.9,0.6-1.2c1-0.8,1.6-2.1,1.3-3.6c-0.3-1.3-1.3-2.3-2.6-2.6
	c-2.3-0.5-4.3,1.2-4.3,3.4c0,1.1,0.5,2.1,1.4,2.8c0.4,0.3,0.6,0.7,0.6,1.2l0,0c0,0.8-0.7,1.5-1.5,1.5h-0.5c-1.1,0-2,0.9-2,2v2h11v-2
	c0-1.1-0.9-2-2-2h-0.5C1189.7,91,1189,90.3,1189,89.5z"/>
<polyline class="st3" points="1174,73 1187,73 1187,71 "/>
<polyline class="st3" points="1174,77 1187,77 1187,79 "/>
<path class="st2" d="M1231,74h-28c-1.1,0-2-0.9-2-2v-6c0-1.1,0.9-2,2-2h28c1.1,0,2,0.9,2,2v6C1233,73.1,1232.1,74,1231,74z"/>
<polyline class="st2" points="1233,69 1237,69 1237,78 1218,78 1218,85 "/>
<path class="st1" d="M1218,97L1218,97c-1.7,0-3-1.3-3-3v-9h6v9C1221,95.7,1219.7,97,1218,97z"/>
<polyline class="st2" points="1204,70 1204,67 1214,67 "/>
<line class="st3" x1="1211" y1="89" x2="1211" y2="78"/>
<line class="st3" x1="1207" y1="85" x2="1207" y2="78"/>
<line class="st3" x1="1203" y1="82" x2="1203" y2="78"/>
<path class="st2" d="M1283,88c0,1.1-0.9,2-2,2h-28c-1.1,0-2-0.9-2-2V62c0-1.1,0.9-2,2-2h28c1.1,0,2,0.9,2,2v6"/>
<line class="st2" x1="1252" y1="66" x2="1283" y2="66"/>
<circle class="st10" cx="1254" cy="63" r="1"/>
<circle class="st10" cx="1257" cy="63" r="1"/>
<circle class="st10" cx="1260" cy="63" r="1"/>
<line class="st2" x1="1255" y1="70" x2="1265" y2="70"/>
<line class="st3" x1="1255" y1="74" x2="1257" y2="74"/>
<line class="st3" x1="1268" y1="70" x2="1272" y2="70"/>
<line class="st2" x1="1260" y1="74" x2="1270" y2="74"/>
<line class="st13" x1="1255" y1="78" x2="1264" y2="78"/>
<line class="st3" x1="1267" y1="78" x2="1269" y2="78"/>
<polyline class="st2" points="1255,82 1257,84 1255,86 "/>
<g>
	<path class="st0" d="M1280.4,87c-0.6,0-1-0.4-1-1v-1.1c-0.2-0.1-0.3-0.1-0.5-0.2l-0.8,0.8c-0.2,0.2-0.5,0.3-0.7,0.3
		s-0.5-0.1-0.7-0.3l-2.3-2.3c-0.4-0.4-0.4-1,0-1.4l0.8-0.8c-0.1-0.1-0.1-0.3-0.2-0.5h-1c-0.6,0-1-0.4-1-1v-3.2c0-0.6,0.4-1,1-1h1.1
		c0.1-0.2,0.1-0.3,0.2-0.5l-0.8-0.8c-0.4-0.4-0.4-1,0-1.4l2.3-2.3c0.2-0.2,0.5-0.3,0.7-0.3s0.5,0.1,0.7,0.3l0.8,0.8
		c0.1-0.1,0.3-0.1,0.5-0.2V70c0-0.6,0.4-1,1-1h3.2c0.6,0,1,0.4,1,1v1.1c0.2,0.1,0.3,0.1,0.5,0.2l0.8-0.8c0.2-0.2,0.5-0.3,0.7-0.3
		s0.5,0.1,0.7,0.3l2.3,2.3c0.4,0.4,0.4,1,0,1.4l-0.8,0.8c0.1,0.1,0.1,0.3,0.2,0.5h1.1c0.6,0,1,0.4,1,1v3.2c0,0.6-0.4,1-1,1h-1.1
		c-0.1,0.2-0.1,0.3-0.2,0.5l0.8,0.8c0.4,0.4,0.4,1,0,1.4l-2.3,2.3c-0.2,0.2-0.5,0.3-0.7,0.3s-0.5-0.1-0.7-0.3l-0.8-0.8
		c-0.1,0.1-0.3,0.1-0.5,0.2V86c0,0.6-0.4,1-1,1H1280.4z"/>
	<path class="st10" d="M1283.6,70v1.8c0.6,0.2,1.1,0.4,1.6,0.7l1.3-1.3l2.3,2.3l-1.3,1.3c0.3,0.5,0.5,1.1,0.7,1.6h1.8v3.2h-1.8
		c-0.2,0.6-0.4,1.1-0.7,1.6l1.3,1.3l-2.3,2.3l-1.3-1.3c-0.5,0.3-1.1,0.5-1.6,0.7V86h-3.2v-1.8c-0.6-0.2-1.1-0.4-1.6-0.7l-1.3,1.3
		l-2.3-2.3l1.3-1.3c-0.3-0.5-0.5-1.1-0.7-1.6h-1.8v-3.2h1.8c0.2-0.6,0.4-1.1,0.7-1.6l-1.3-1.3l2.3-2.3l1.3,1.3
		c0.5-0.3,1.1-0.5,1.6-0.7V70H1283.6 M1283.6,68h-3.2c-0.9,0-1.7,0.6-1.9,1.5c-0.3-0.2-0.7-0.3-1-0.3c-0.5,0-1,0.2-1.4,0.6l-2.3,2.3
		c-0.4,0.4-0.6,0.9-0.6,1.4c0,0.4,0.1,0.7,0.3,1c-0.9,0.2-1.5,1-1.5,1.9v3.2c0,0.9,0.6,1.7,1.5,1.9c-0.2,0.3-0.3,0.6-0.3,1
		c0,0.5,0.2,1,0.6,1.4l2.3,2.3c0.4,0.4,0.9,0.6,1.4,0.6c0.3,0,0.7-0.1,1-0.3c0.2,0.9,1,1.5,1.9,1.5h3.2c0.9,0,1.7-0.6,1.9-1.5
		c0.3,0.2,0.7,0.3,1,0.3c0.5,0,1-0.2,1.4-0.6l2.3-2.3c0.4-0.4,0.6-0.9,0.6-1.4c0-0.4-0.1-0.7-0.3-1c0.9-0.2,1.5-1,1.5-1.9v-3.2
		c0-0.9-0.6-1.7-1.5-1.9c0.2-0.3,0.3-0.6,0.3-1c0-0.5-0.2-1-0.6-1.4l-2.3-2.3c-0.4-0.4-0.9-0.6-1.4-0.6c-0.3,0-0.7,0.1-1,0.3
		C1285.3,68.6,1284.5,68,1283.6,68L1283.6,68z"/>
</g>
<circle class="st5" cx="1282" cy="78" r="3"/>
<line class="st2" x1="1218" y1="88" x2="1215" y2="88"/>
<line class="st3" x1="1231" y1="60" x2="1231" y2="58"/>
<line class="st3" x1="1227" y1="60" x2="1227" y2="56"/>
<line class="st3" x1="1223" y1="60" x2="1223" y2="53"/>
<g>
	<path class="st10" d="M1397.7,65.1c-1.8-2.1-9.8-2.1-12.4,0c0,0-2,3.8-2,8.6c0,0,1.5,2.2,4.6,2.2l1-2h5c0,0,0.9,1.8,1,2
		c3.1-0.1,5-2.4,5-2.5C1399.7,68.9,1397.7,65.1,1397.7,65.1z M1388.9,71.3c-0.8,0-1.4-0.7-1.4-1.7s0.6-1.7,1.4-1.7s1.4,0.7,1.4,1.7
		S1389.7,71.3,1388.9,71.3z M1394,71.3c-0.8,0-1.4-0.7-1.4-1.7s0.6-1.7,1.4-1.7s1.4,0.7,1.4,1.7C1395.5,70.6,1394.9,71.3,1394,71.3z
		"/>
</g>
<polygon class="st17" points="1332.9,68 1343.9,64 1339.9,75 1338.9,69 "/>
<line class="st2" x1="1312.9" y1="66" x2="1322.9" y2="66"/>
<line class="st3" x1="1326.9" y1="66" x2="1328.9" y2="66"/>
<line class="st2" x1="1312.9" y1="71" x2="1317.9" y2="71"/>
<line class="st3" x1="1321.9" y1="71" x2="1329.9" y2="71"/>
<line class="st2" x1="1312.9" y1="76" x2="1327.9" y2="76"/>
<line class="st3" x1="1331.9" y1="76" x2="1334.9" y2="76"/>
<line class="st2" x1="1312.9" y1="81" x2="1322.9" y2="81"/>
<line class="st3" x1="1326.9" y1="81" x2="1336.9" y2="81"/>
<path class="st2" d="M1386.6,61h-25.9c-1.5,0-2.7,1.2-2.7,2.7v19.7c0,1.4,1.2,2.6,2.6,2.6h10.7l3.7,4.7l3.7-4.7h10.8
	c1.4,0,2.5-1.2,2.5-2.6V79"/>
<line class="st2" x1="1362.9" y1="66" x2="1373.9" y2="66"/>
<line class="st3" x1="1377.9" y1="66" x2="1381.9" y2="66"/>
<line class="st2" x1="1362.9" y1="71" x2="1366.9" y2="71"/>
<line class="st3" x1="1370.9" y1="71" x2="1379.9" y2="71"/>
<line class="st2" x1="1362.9" y1="76" x2="1373.9" y2="76"/>
<line class="st3" x1="1377.9" y1="76" x2="1380.9" y2="76"/>
<line class="st2" x1="1362.9" y1="81" x2="1368.9" y2="81"/>
<line class="st3" x1="1372.9" y1="81" x2="1387.9" y2="81"/>
<path class="st2" d="M1434.6,61h-23.9c-1.5,0-2.7,1.2-2.7,2.7v19.7c0,1.4,1.2,2.6,2.6,2.6h10.7l3.7,4.7l3.7-4.7h10.8
	c1.4,0,2.5-1.2,2.5-2.6V80"/>
<line class="st2" x1="1412.9" y1="66" x2="1418.9" y2="66"/>
<line class="st3" x1="1422.9" y1="66" x2="1430.9" y2="66"/>
<line class="st2" x1="1412.9" y1="71" x2="1423.9" y2="71"/>
<line class="st3" x1="1427.9" y1="71" x2="1430.9" y2="71"/>
<line class="st2" x1="1412.9" y1="76" x2="1414.9" y2="76"/>
<line class="st3" x1="1418.9" y1="76" x2="1434.9" y2="76"/>
<line class="st2" x1="1412.9" y1="81" x2="1427.9" y2="81"/>
<line class="st3" x1="1431.9" y1="81" x2="1437.9" y2="81"/>
<path class="st10" d="M1443.5,69L1443.5,69c-0.8,0-1.5-0.7-1.5-1.5v-4c0-0.8,0.7-1.5,1.5-1.5l0,0c0.8,0,1.5,0.7,1.5,1.5v4
	C1445,68.3,1444.3,69,1443.5,69z"/>
<path class="st10" d="M1439.5,77L1439.5,77c-0.8,0-1.5-0.7-1.5-1.5v-4c0-0.8,0.7-1.5,1.5-1.5l0,0c0.8,0,1.5,0.7,1.5,1.5v4
	C1441,76.3,1440.3,77,1439.5,77z"/>
<path class="st10" d="M1434,67.5L1434,67.5c0-0.8,0.7-1.5,1.5-1.5h4c0.8,0,1.5,0.7,1.5,1.5l0,0c0,0.8-0.7,1.5-1.5,1.5h-4
	C1434.7,69,1434,68.3,1434,67.5z"/>
<path class="st10" d="M1442,71.5L1442,71.5c0-0.8,0.7-1.5,1.5-1.5h4c0.8,0,1.5,0.7,1.5,1.5l0,0c0,0.8-0.7,1.5-1.5,1.5h-4
	C1442.7,73,1442,72.3,1442,71.5z"/>
<path class="st10" d="M1441,65h-1.5c-0.8,0-1.5-0.7-1.5-1.5l0,0c0-0.8,0.7-1.5,1.5-1.5l0,0c0.8,0,1.5,0.7,1.5,1.5V65z"/>
<path class="st10" d="M1446,69v-1.5c0-0.8,0.7-1.5,1.5-1.5l0,0c0.8,0,1.5,0.7,1.5,1.5l0,0c0,0.8-0.7,1.5-1.5,1.5H1446z"/>
<path class="st10" d="M1442,74h1.5c0.8,0,1.5,0.7,1.5,1.5l0,0c0,0.8-0.7,1.5-1.5,1.5l0,0c-0.8,0-1.5-0.7-1.5-1.5V74z"/>
<path class="st10" d="M1437,70v1.5c0,0.8-0.7,1.5-1.5,1.5l0,0c-0.8,0-1.5-0.7-1.5-1.5l0,0c0-0.8,0.7-1.5,1.5-1.5H1437z"/>
<rect x="1465" y="65" class="st5" width="20" height="20"/>
<line class="st2" x1="1475" y1="76" x2="1475" y2="68"/>
<line class="st2" x1="1475" y1="75" x2="1480" y2="75"/>
<circle class="st5" cx="1475" cy="75" r="2"/>
<line class="st2" x1="1467" y1="75" x2="1465" y2="75"/>
<line class="st2" x1="1475" y1="83" x2="1475" y2="85"/>
<line class="st2" x1="1483" y1="75" x2="1485" y2="75"/>
<line class="st2" x1="1508" y1="68" x2="1511" y2="68"/>
<path class="st1" d="M1536,84h-25V66h25c5,0,9,4,9,9l0,0C1545,80,1541,84,1536,84z"/>
<polyline class="st2" points="1504,63 1507,63 1507,87 "/>
<line class="st2" x1="1508" y1="82" x2="1511" y2="82"/>
<line class="st2" x1="1514" y1="87" x2="1514" y2="84"/>
<line class="st2" x1="1518" y1="87" x2="1518" y2="84"/>
<polyline class="st5" points="1520,75 1520,70 1525,70 1520,75 "/>
<polyline class="st5" points="1520,75 1525,75 1525,80 1520,75 "/>
<polyline class="st5" points="1520,75 1520,80 1515,80 1520,75 "/>
<polyline class="st5" points="1520,75 1515,75 1515,70 1520,75 "/>
<polyline class="st5" points="1534,75 1534,70 1539,70 1534,75 "/>
<polyline class="st5" points="1534,75 1539,75 1539,80 1534,75 "/>
<polyline class="st5" points="1534,75 1534,80 1529,80 1534,75 "/>
<polyline class="st5" points="1534,75 1529,75 1529,70 1534,75 "/>
<path class="st2" d="M1586,89h-22c-1.7,0-3-1.3-3-3V64c0-1.7,1.3-3,3-3h22c1.7,0,3,1.3,3,3v22C1589,87.7,1587.7,89,1586,89z"/>
<g>
	<path class="st2" d="M1579,70l-1-1c-1.7-1.7-4.3-1.7-6,0l0,0c-1.7,1.7-1.7,4.3,0,6l3,3"/>
	<path class="st2" d="M1575,72l3,3c1.7,1.7,1.7,4.3,0,6l0,0c-1.7,1.7-4.3,1.7-6,0l-1-1"/>
</g>
<path class="st3" d="M1565,95h-4c-3.3,0-6-2.7-6-6V61c0-3.3,2.7-6,6-6h20"/>
<path class="st3" d="M1586,55h3c3.3,0,6,2.7,6,6v28c0,3.3-2.7,6-6,6h-18.8"/>
<polyline class="st3" points="1580,53 1582,55 1580,57 "/>
<polyline class="st3" points="1571,97 1569,95 1571,93 "/>
<path class="st2" d="M1638.4,93h-26.7c-2,0-3.6-1.6-3.6-3.6V81h34v8.4C1642,91.4,1640.4,93,1638.4,93z"/>
<path class="st2" d="M1613,81V60c0-1.6,1.3-3,3-3h18.1c1.6,0,3,1.3,3,3v21"/>
<path class="st2" d="M1608,81.1v-7.3c0-1.6,1.3-2.9,2.9-2.9h1.1"/>
<path class="st2" d="M1642,81.1v-7.3c0-1.6-1.3-2.9-2.9-2.9h-1.1"/>
<circle class="st2" cx="1625" cy="87" r="2"/>
<line class="st2" x1="1618" y1="63" x2="1632" y2="63"/>
<line class="st2" x1="1618" y1="67" x2="1632" y2="67"/>
<line class="st2" x1="1618" y1="71" x2="1632" y2="71"/>
<line class="st2" x1="1618" y1="75" x2="1632" y2="75"/>
<path class="st5" d="M1632.1,38h-14.2c-0.5,0-0.9-0.4-0.9-0.9v-4.2c0-0.5,0.4-0.9,0.9-0.9h14.2c0.5,0,0.9,0.4,0.9,0.9v4.2
	C1633,37.6,1632.6,38,1632.1,38z"/>
<path class="st5" d="M1632.1,28h-14.2c-0.5,0-0.9-0.4-0.9-0.9v-4.2c0-0.5,0.4-0.9,0.9-0.9h14.2c0.5,0,0.9,0.4,0.9,0.9v4.2
	C1633,27.6,1632.6,28,1632.1,28z"/>
<path class="st5" d="M1632.1,18h-14.2c-0.5,0-0.9-0.4-0.9-0.9v-4.2c0-0.5,0.4-0.9,0.9-0.9h14.2c0.5,0,0.9,0.4,0.9,0.9v4.2
	C1633,17.6,1632.6,18,1632.1,18z"/>
<line class="st2" x1="1641" y1="7" x2="1638" y2="7"/>
<line class="st2" x1="1641" y1="11" x2="1638" y2="11"/>
<line class="st2" x1="1641" y1="15" x2="1638" y2="15"/>
<line class="st2" x1="1641" y1="19" x2="1638" y2="19"/>
<line class="st2" x1="1641" y1="23" x2="1638" y2="23"/>
<line class="st2" x1="1641" y1="27" x2="1638" y2="27"/>
<line class="st2" x1="1641" y1="31" x2="1638" y2="31"/>
<line class="st2" x1="1641" y1="35" x2="1638" y2="35"/>
<line class="st2" x1="1641" y1="39" x2="1638" y2="39"/>
<line class="st2" x1="1641" y1="43" x2="1638" y2="43"/>
<path class="st1" d="M1688.3,44h-26.6c-2.1,0-3.7-1.7-3.7-3.7V9.7c0-2.1,1.7-3.7,3.7-3.7h26.6c2.1,0,3.7,1.7,3.7,3.7v30.6
	C1692,42.3,1690.3,44,1688.3,44z"/>
<circle class="st5" cx="1675" cy="23" r="11"/>
<circle class="st1" cx="1675" cy="23" r="2"/>
<circle class="st17" cx="1662.5" cy="10.5" r="0.5"/>
<circle class="st17" cx="1687.5" cy="10.5" r="0.5"/>
<circle class="st17" cx="1662.5" cy="39.5" r="0.5"/>
<circle class="st17" cx="1687.5" cy="39.5" r="0.5"/>
<path class="st2" d="M1685,90h-21c-2.2,0-4-1.8-4-4V64c0-2.2,1.8-4,4-4h21.1c2.2,0,4,1.8,4,4v22C1689,88.2,1687.2,90,1685,90z"/>
<circle class="st10" cx="1665.5" cy="72.5" r="1.5"/>
<circle class="st10" cx="1671.5" cy="72.5" r="1.5"/>
<circle class="st10" cx="1677.5" cy="72.5" r="1.5"/>
<circle class="st10" cx="1665.5" cy="78.5" r="1.5"/>
<circle class="st10" cx="1671.5" cy="78.5" r="1.5"/>
<circle class="st10" cx="1677.5" cy="78.5" r="1.5"/>
<circle class="st10" cx="1665.5" cy="84.5" r="1.5"/>
<circle class="st10" cx="1671.5" cy="84.5" r="1.5"/>
<circle class="st10" cx="1677.5" cy="84.5" r="1.5"/>
<line class="st2" x1="1685" y1="64" x2="1679" y2="64"/>
<line class="st2" x1="1689" y1="74" x2="1689" y2="78"/>
<circle class="st10" cx="1683.5" cy="72.5" r="1.5"/>
<circle class="st10" cx="1683.5" cy="78.5" r="1.5"/>
<line class="st2" x1="1661" y1="68" x2="1689" y2="68"/>
<path class="st2" d="M1655,76V63.5c0-4.7,3.8-8.5,8.5-8.5h11.5"/>
<polyline class="st2" points="1675,53 1677,55 1675,57 "/>
<path class="st2" d="M1655,76V63.5c0-4.7,3.8-8.5,8.5-8.5h11.5"/>
<polyline class="st2" points="1675,53 1677,55 1675,57 "/>
<path class="st2" d="M1694,74v12.5c0,4.7-3.8,8.5-8.5,8.5H1674"/>
<polyline class="st2" points="1674,97 1672,95 1674,93 "/>
<path class="st2" d="M1694,74v12.5c0,4.7-3.8,8.5-8.5,8.5H1674"/>
<polyline class="st2" points="1674,97 1672,95 1674,93 "/>
<path class="st3" d="M1675,29c-3.3,0-6-2.7-6-6s2.7-6,6-6s6,2.7,6,6"/>
<path class="st5" d="M1687,33.5c0,1.9-1.6,3.5-3.5,3.5c-4.5,0-5.5-10-5.5-10S1687,29,1687,33.5z"/>
<path class="st2" d="M1710.9,39.1L1710.9,39.1c-3.9-3.9-3.9-10.2,0-14.1l12.4-12.4c0.6-0.6,1.5-0.6,2.1,0l12,12
	c0.6,0.6,0.6,1.5,0,2.1L1725,39.1C1721.2,43,1714.8,43,1710.9,39.1z"/>
<polygon class="st8" points="1726.5,13.7 1732.1,8 1742,17.9 1736.4,23.6 "/>
<line class="st2" x1="1732.8" y1="12.9" x2="1731.4" y2="14.4"/>
<line class="st2" x1="1737" y1="17.2" x2="1735.6" y2="18.6"/>
<polyline class="st3" points="1728.6,21.4 1724.4,17.2 1721.5,20 "/>
<polygon class="st2" points="1727,27 1717,27 1718,30 1713,33 1723,33 1722,30 "/>
</svg>
