<?xml version="1.0" encoding="utf-8"?>
<!-- Generator: Adobe Illustrator 25.1.0, SVG Export Plug-In . SVG Version: 6.00 Build 0)  -->
<svg version="1.1" id="Layer_1" xmlns="http://www.w3.org/2000/svg" xmlns:xlink="http://www.w3.org/1999/xlink" x="0px" y="0px"
	 width="720px" height="144px" viewBox="0 0 720 144" style="enable-background:new 0 0 720 144;" xml:space="preserve">
<style type="text/css">
	.st0{fill:#BBC5FF;stroke:#5767FF;stroke-width:2;stroke-linecap:round;stroke-linejoin:round;stroke-miterlimit:10;}
	.st1{fill:#FFFFFF;stroke:#5767FF;stroke-width:2;stroke-linecap:round;stroke-linejoin:round;stroke-miterlimit:10;}
	.st2{fill:none;stroke:#BBC5FF;stroke-width:2;stroke-linecap:round;stroke-linejoin:round;stroke-miterlimit:10;}
	
		.st3{opacity:0.2;fill:none;stroke:#BBC5FF;stroke-width:2;stroke-linecap:round;stroke-linejoin:round;stroke-miterlimit:10;enable-background:new    ;}
	.st4{fill:none;stroke:#5767FF;stroke-width:2;stroke-linecap:round;stroke-linejoin:round;stroke-miterlimit:10;}
	.st5{fill:#5767FF;}
	.st6{fill:#BBC5FF;}
	.st7{fill:#BBC5FF;stroke:#5767FF;stroke-width:2;stroke-linecap:round;stroke-linejoin:round;stroke-miterlimit:9.9991;}
</style>
<circle class="st0" cx="396" cy="108" r="33"/>
<circle class="st1" cx="396" cy="108" r="27"/>
<circle class="st0" cx="324" cy="108" r="33"/>
<circle class="st1" cx="324" cy="108" r="27"/>
<circle class="st0" cx="252" cy="108" r="33"/>
<circle class="st1" cx="252" cy="108" r="27"/>
<circle class="st2" cx="540" cy="36" r="26"/>
<circle class="st3" cx="540" cy="36" r="32"/>
<path class="st1" d="M568.6,61.5l-12.7-13.3c2.6-3.4,4.2-7.6,4.2-12.2c0-11-9-20-20-20s-20,9-20,20s9,20,20,20c3.7,0,7.2-1,10.2-2.8
	l13.3,13.3c1.4,1.4,3.7,1.4,5.1,0C569.9,65.1,569.9,62.9,568.6,61.5z"/>
<line class="st2" x1="451" y1="66" x2="481" y2="36"/>
<polygon class="st0" points="324,54 324,59 289,59 289,17 294,17 "/>
<path class="st1" d="M324,54h-30V12h24c3.3,0,6,2.7,6,6V54z"/>
<polygon class="st0" points="324,54 324,59 359,59 359,17 354,17 "/>
<path class="st1" d="M324,54h30V12h-24c-3.3,0-6,2.7-6,6V54z"/>
<rect x="145" y="15" class="st0" width="70" height="26"/>
<polygon class="st1" points="193,65 191,52 169,52 167,65 "/>
<circle class="st0" cx="36" cy="36" r="32"/>
<circle class="st1" cx="36" cy="36" r="26"/>
<polyline class="st1" points="93,43 93,63 133,63 133,6 93,6 93,16 "/>
<path class="st1" d="M116,43H82c-1.1,0-2-0.9-2-2V18c0-1.1,0.9-2,2-2h34c1.1,0,2,0.9,2,2v23C118,42.1,117.1,43,116,43z"/>
<rect x="80" y="20" class="st0" width="38" height="7"/>
<circle class="st0" cx="87" cy="36" r="3"/>
<line class="st2" x1="137" y1="67" x2="137" y2="10"/>
<line class="st2" x1="97" y1="67" x2="137" y2="67"/>
<line class="st4" x1="98" y1="11" x2="121" y2="11"/>
<line class="st4" x1="125" y1="11" x2="127" y2="11"/>
<line class="st4" x1="98" y1="48" x2="121" y2="48"/>
<line class="st4" x1="98" y1="53" x2="111" y2="53"/>
<line class="st4" x1="98" y1="58" x2="111" y2="58"/>
<circle class="st0" cx="91" cy="36" r="3"/>
<line class="st4" x1="83" y1="23" x2="91" y2="23"/>
<line class="st4" x1="94" y1="23" x2="95" y2="23"/>
<path class="st4" d="M17,24.8c4.1-6.7,11.5-11.2,19.9-11.2"/>
<path class="st4" d="M14.6,30.2c0.2-0.6,0.4-1.1,0.6-1.7"/>
<path class="st4" d="M58.4,35.1C58.4,48,48,58.4,35.1,58.4"/>
<path class="st0" d="M30,46V28c0-0.8,0.9-1.3,1.5-0.9l14.8,9c0.6,0.4,0.6,1.3,0,1.7l-14.8,9C30.9,47.2,30,46.7,30,46z"/>
<line class="st4" x1="149" y1="11" x2="154" y2="11"/>
<line class="st4" x1="202" y1="11" x2="207" y2="11"/>
<circle class="st5" cx="211" cy="11" r="1"/>
<line class="st4" x1="149" y1="20" x2="160" y2="20"/>
<line class="st4" x1="149" y1="24" x2="160" y2="24"/>
<line class="st4" x1="149" y1="28" x2="160" y2="28"/>
<line class="st4" x1="149" y1="32" x2="160" y2="32"/>
<line class="st4" x1="149" y1="36" x2="160" y2="36"/>
<g>
	<path class="st5" d="M213,2c0.5,0,1,0.5,1,1v47c0,0.5-0.5,1-1,1h-66c-0.5,0-1-0.5-1-1V3c0-0.5,0.5-1,1-1H213 M213,0h-66
		c-1.7,0-3,1.4-3,3v47c0,1.7,1.3,3,3,3h66c1.7,0,3-1.3,3-3V3C216,1.4,214.7,0,213,0L213,0z"/>
</g>
<g>
	<path class="st5" d="M199,66c0.5,0,1,0.5,1,1v2c0,0.5-0.5,1-1,1h-38c-0.5,0-1-0.5-1-1v-2c0-0.5,0.5-1,1-1H199 M199,64h-38
		c-1.7,0-3,1.3-3,3v2c0,1.7,1.3,3,3,3h38c1.7,0,3-1.3,3-3v-2C202,65.3,200.7,64,199,64L199,64z"/>
</g>
<line class="st4" x1="145" y1="7" x2="215" y2="7"/>
<g>
	<path class="st5" d="M180,45c-1.1,0-2,0.9-2,2s0.9,2,2,2s2-0.9,2-2S181.1,45,180,45L180,45z"/>
</g>
<polyline class="st4" points="210,20 205,27 200,27 195,23 190,29 185,25 180,31 175,31 170,36 165,36 "/>
<line class="st4" x1="174" y1="20" x2="169" y2="20"/>
<circle class="st5" cx="165" cy="20" r="1"/>
<line class="st4" x1="174" y1="24" x2="169" y2="24"/>
<circle class="st5" cx="165" cy="24" r="1"/>
<line class="st4" x1="189" y1="36" x2="210" y2="36"/>
<line class="st4" x1="185" y1="36" x2="184" y2="36"/>
<path class="st0" d="M221,21v-4c0-2.2,1.8-4,4-4h54c2.2,0,4,1.8,4,4v4"/>
<path class="st1" d="M283,21h-62v34c0,2.2,1.8,4,4,4h44"/>
<circle class="st5" cx="225" cy="17" r="1"/>
<circle class="st5" cx="229" cy="17" r="1"/>
<circle class="st5" cx="233" cy="17" r="1"/>
<polyline class="st4" points="246,36 241,40 246,44 "/>
<polyline class="st4" points="258,44 263,40 258,36 "/>
<line class="st4" x1="249" y1="48" x2="255" y2="32"/>
<path class="st4" d="M225,45v8c0,1.1,0.9,2,2,2h5"/>
<line class="st4" x1="236" y1="55" x2="238" y2="55"/>
<polyline class="st4" points="266,25 279,25 279,27 "/>
<line class="st4" x1="262" y1="25" x2="260" y2="25"/>
<line class="st2" x1="252" y1="64" x2="238" y2="64"/>
<line class="st2" x1="264" y1="64" x2="257" y2="64"/>
<path class="st4" d="M302,28v-4.5c0-1.9,1.6-3.5,3.5-3.5l0,0c1.9,0,3.5,1.6,3.5,3.5V28"/>
<path class="st4" d="M309,28v-4.5c0-1.9,1.6-3.5,3.5-3.5l0,0c1.9,0,3.5,1.6,3.5,3.5V28"/>
<line class="st4" x1="302" y1="36" x2="316" y2="36"/>
<line class="st4" x1="302" y1="41" x2="316" y2="41"/>
<line class="st4" x1="302" y1="46" x2="316" y2="46"/>
<line class="st4" x1="337" y1="36" x2="346" y2="36"/>
<line class="st4" x1="337" y1="41" x2="346" y2="41"/>
<line class="st4" x1="337" y1="46" x2="346" y2="46"/>
<line class="st4" x1="337" y1="21" x2="346" y2="21"/>
<line class="st4" x1="337" y1="26" x2="346" y2="26"/>
<line class="st4" x1="337" y1="31" x2="346" y2="31"/>
<line class="st4" x1="332" y1="36" x2="332.9" y2="36"/>
<line class="st4" x1="332" y1="41" x2="332.9" y2="41"/>
<line class="st4" x1="332" y1="46" x2="332.9" y2="46"/>
<line class="st4" x1="332" y1="21" x2="332.9" y2="21"/>
<line class="st4" x1="332" y1="26" x2="332.9" y2="26"/>
<line class="st4" x1="332" y1="31" x2="332.9" y2="31"/>
<path class="st1" d="M415,24h-46c-1.7,0-3-1.3-3-3V11c0-1.7,1.3-3,3-3h46c1.7,0,3,1.3,3,3v10C418,22.7,416.7,24,415,24z"/>
<polyline class="st4" points="392,40 392,32 426,32 426,14 418,14 "/>
<path class="st0" d="M385,57V40h14v17c0,3.9-3.1,7-7,7l0,0C388.1,64,385,60.9,385,57z"/>
<polyline class="st4" points="370,15 370,12 383,12 "/>
<line class="st4" x1="387" y1="12" x2="389" y2="12"/>
<line class="st4" x1="389" y1="44" x2="389" y2="51"/>
<line class="st2" x1="379" y1="42" x2="379" y2="28"/>
<line class="st2" x1="375" y1="37" x2="375" y2="28"/>
<line class="st2" x1="371" y1="32" x2="371" y2="28"/>
<line class="st2" x1="406" y1="50" x2="406" y2="36"/>
<line class="st2" x1="410" y1="45" x2="410" y2="36"/>
<line class="st2" x1="414" y1="40" x2="414" y2="36"/>
<line class="st2" x1="292" y1="63" x2="320" y2="63"/>
<line class="st2" x1="328" y1="63" x2="356" y2="63"/>
<path class="st4" d="M465.4,42.6"/>
<path class="st4" d="M445.4,22.7"/>
<path class="st1" d="M496,19.4l-2.1-2.1l-7.1,7.1l-7.1-7.1l7.1-7.1L484.6,8c-3.3-0.2-6.7,0.9-9.3,3.5c-3.4,3.4-4.3,8.5-2.8,12.8
	l-31,31.1c-1.9,1.9-1.9,5.1,0,7.1c1.9,1.9,5.1,1.9,7.1,0l31-31.1c4.3,1.6,9.2,0.7,12.8-2.8C495.1,26.1,496.3,22.7,496,19.4z"/>
<path class="st0" d="M494.2,62.4L494.2,62.4c-2.1,2.1-5.6,2.1-7.8,0L465,40.8c-0.8-0.8-0.8-2.1,0-2.8l4.9-4.9c0.8-0.8,2.1-0.8,2.8,0
	l21.4,21.4C496.4,56.6,496.4,60.2,494.2,62.4z"/>
<polygon class="st1" points="443.7,8 440,11.7 445,18.1 447.9,18.1 466.4,36.6 468.5,34.5 450.1,15.9 450.1,13.1 "/>
<line class="st4" x1="469.2" y1="39.4" x2="479.7" y2="49.9"/>
<line class="st4" x1="482.5" y1="52.7" x2="484.6" y2="54.8"/>
<ellipse class="st1" cx="445.4" cy="58.7" rx="1.5" ry="1.5"/>
<circle class="st0" cx="540" cy="36" r="14"/>
<path class="st4" d="M532,36c0-4.4,3.6-8,8-8"/>
<path class="st1" d="M633,54h-37c-2.8,0-5-2.2-5-5V20h42c2.8,0,5,2.2,5,5v24C638,51.8,635.8,54,633,54z"/>
<path class="st0" d="M633,20h-42v-3c0-1.7,1.3-3,3-3h36c1.7,0,3,1.3,3,3V20z"/>
<path class="st0" d="M638,44h-16c-3.9,0-7-3.1-7-7l0,0c0-3.9,3.1-7,7-7h16c1.7,0,3,1.3,3,3v8C641,42.7,639.7,44,638,44z"/>
<circle class="st1" cx="622" cy="37" r="3"/>
<ellipse class="st0" cx="591" cy="55.4" rx="10" ry="6.6"/>
<ellipse class="st0" cx="591" cy="50.5" rx="10" ry="6.6"/>
<ellipse class="st0" cx="591" cy="45.5" rx="10" ry="6.6"/>
<ellipse class="st1" cx="591" cy="40.6" rx="10" ry="6.6"/>
<polyline class="st1" points="595,27 595,24 605,24 "/>
<line class="st2" x1="605" y1="59" x2="634" y2="59"/>
<ellipse class="st1" cx="591" cy="40.5" rx="5" ry="2.5"/>
<line class="st4" x1="637" y1="33" x2="637" y2="41"/>
<line class="st4" x1="634" y1="33" x2="634" y2="41"/>
<line class="st4" x1="605" y1="50" x2="615" y2="50"/>
<line class="st4" x1="609" y1="24" x2="611" y2="24"/>
<circle class="st2" cx="5" cy="117" r="3"/>
<circle class="st2" cx="61" cy="134" r="3"/>
<circle class="st2" cx="50" cy="76" r="3"/>
<circle class="st4" cx="65" cy="89" r="6"/>
<circle class="st4" cx="22" cy="135" r="6"/>
<circle class="st4" cx="11" cy="80" r="6"/>
<line class="st4" x1="52.6" y1="96.5" x2="59.9" y2="92.1"/>
<line class="st4" x1="15.2" y1="84.2" x2="24.3" y2="93.3"/>
<line class="st4" x1="24.8" y1="129.7" x2="28.6" y2="122.3"/>
<line class="st2" x1="44.2" y1="89.5" x2="48.8" y2="78.8"/>
<line class="st2" x1="8" y1="116" x2="20" y2="111.9"/>
<line class="st2" x1="59.1" y1="131.7" x2="48.7" y2="119.7"/>
<circle class="st0" cx="37" cy="106" r="18"/>
<path class="st4" d="M19,135c0-1.7,1.3-3,3-3"/>
<path class="st4" d="M8,80c0-1.7,1.3-3,3-3"/>
<path class="st4" d="M62,89c0-1.7,1.3-3,3-3"/>
<path class="st4" d="M24,106c0-7.2,5.8-13,13-13"/>
<path class="st4" d="M25.7,112.5c-0.5-0.8-0.8-1.6-1.1-2.5"/>
<circle class="st1" cx="37" cy="106" r="8"/>
<line class="st4" x1="65" y1="108.9" x2="66" y2="109"/>
<line class="st4" x1="45" y1="106.8" x2="62" y2="108.6"/>
<line class="st4" x1="42.2" y1="129" x2="38.8" y2="113.8"/>
<line class="st4" x1="44" y1="137" x2="43.2" y2="133.3"/>
<path class="st4" d="M41,106c0,2.2-1.8,4-4,4"/>
<line class="st4" x1="19.1" y1="103.9" x2="12" y2="103"/>
<line class="st4" x1="31" y1="82" x2="32.6" y2="88.5"/>
<path class="st6" d="M86.5,130.2c0.3-0.5,0.5-1.1,0.5-1.7V92.3c-0.2-0.1-0.4-0.1-0.7-0.2c-1-0.3-2.1-0.7-3-1.3
	c-0.4-0.3-0.9-0.6-1.2-1.1c0,0.3-0.1,0.6-0.1,1V128C83.6,128.5,85,129.5,86.5,130.2z"/>
<ellipse class="st4" cx="92.3" cy="85.5" rx="14.3" ry="7.5"/>
<path class="st4" d="M78,86.1V93c0,4.2,6.4,7.5,14.3,7.5s14.3-3.3,14.3-7.5v-7.5"/>
<path class="st4" d="M78,93.6v6.9c0,4.2,6.4,7.5,14.3,7.5s14.3-3.3,14.3-7.5V93"/>
<path class="st4" d="M78,101.1v6.9c0,4.2,6.4,7.5,14.3,7.5s14.3-3.3,14.3-7.5v-7.5"/>
<path class="st4" d="M78,108.6v6.9c0,4.2,6.4,7.5,14.3,7.5s14.3-3.3,14.3-7.5V108"/>
<path class="st4" d="M78,116.1v6.9c0,4.2,6.4,7.5,14.3,7.5s14.3-3.3,14.3-7.5v-7.5"/>
<circle class="st0" cx="118.5" cy="118.5" r="19.5"/>
<circle class="st1" cx="118.5" cy="118.5" r="13.5"/>
<line class="st4" x1="118.5" y1="111" x2="118.5" y2="126"/>
<path class="st1" d="M120.8,118.5h-5.3V114h5.3c1.2,0,2.3,1,2.3,2.3l0,0C123,117.5,122,118.5,120.8,118.5z"/>
<path class="st1" d="M120.8,123h-5.3v-4.5h5.3c1.2,0,2.3,1,2.3,2.3l0,0C123,122,122,123,120.8,123z"/>
<ellipse class="st4" cx="92.3" cy="85.5" rx="14.3" ry="7.5"/>
<ellipse class="st4" cx="92" cy="85.5" rx="9" ry="3.5"/>
<path class="st0" d="M204,103c-1.7,0-3-1.3-3-3l0,0c0-8.1-4.9-15-12-18h-15c-7,3-12,9.9-12,18l0,0c0,1.7-1.3,3-3,3l0,0
	c-0.6,0-1,0.4-1,1v5c0,0.6,0.4,1,1,1h45c0.6,0,1-0.4,1-1v-5C205,103.4,204.6,103,204,103L204,103z"/>
<path class="st4" d="M199,110l0.1,2.2c0,9.8-7.8,17.5-17.6,17.5l0,0c-9.8,0-17.6-7.8-17.6-17.5l0.1-2.2"/>
<circle class="st1" cx="181.5" cy="107" r="11.5"/>
<circle class="st0" cx="181.5" cy="107" r="6.5"/>
<path class="st0" d="M174,89.5v-9c0-0.9,0.6-1.5,1.5-1.5h12c0.9,0,1.5,0.6,1.5,1.5v9"/>
<path class="st4" d="M174,128.1v4.4c0,1.6-1.3,4.5-3,4.5h-6"/>
<path class="st4" d="M189,128.1v4.4c0,1.6,1.3,4.5,3,4.5h4.5"/>
<rect x="384" y="96" class="st0" width="24" height="24"/>
<path class="st4" d="M237.6,122.7L237.6,122.7c-3.9-3.9-3.9-10.2,0-14.1L250,96.2c0.6-0.6,1.5-0.6,2.1,0l12,12
	c0.6,0.6,0.6,1.5,0,2.1l-12.4,12.4C247.9,126.6,241.5,126.6,237.6,122.7z"/>
<rect x="257" y="92.4" transform="matrix(0.7071 -0.7071 0.7071 0.7071 6.1601 213.6963)" class="st7" width="8" height="14"/>
<path class="st4" d="M241.9,112.8l2.1-2.1c0.8-0.8,2-0.8,2.8,0l0,0c0.8,0.8,0.8,2,0,2.8l-2.1,2.1"/>
<path class="st4" d="M244.7,115.6l2.1-2.1c0.8-0.8,2-0.8,2.8,0l0,0c0.8,0.8,0.8,2,0,2.8l-2.1,2.1"/>
<line class="st4" x1="259.5" y1="96.5" x2="258.1" y2="98"/>
<line class="st4" x1="263.8" y1="100.8" x2="262.4" y2="102.2"/>
<polyline class="st2" points="255.3,105 251.1,100.8 248.2,103.6 "/>
<g>
	<polygon class="st4" points="319,95.7 307,98 307,106 319,106 	"/>
	<polygon class="st4" points="323,94.9 323,106 338,106 338,92 	"/>
</g>
<g>
	<polygon class="st4" points="319,120.3 307,118 307,110 319,110 	"/>
	<polygon class="st4" points="323,121.1 323,110 338,110 338,124 	"/>
</g>
<line class="st2" x1="315.3" y1="99.4" x2="310" y2="100.4"/>
<line class="st2" x1="335.3" y1="95.5" x2="325.9" y2="97.3"/>
<line class="st2" x1="310" y1="102" x2="310" y2="100.4"/>
<rect x="388" y="100" class="st1" width="16" height="16"/>
<line class="st4" x1="386" y1="93" x2="386" y2="96"/>
<line class="st4" x1="390" y1="93" x2="390" y2="96"/>
<line class="st4" x1="394" y1="93" x2="394" y2="96"/>
<line class="st4" x1="398" y1="93" x2="398" y2="96"/>
<line class="st4" x1="402" y1="93" x2="402" y2="96"/>
<line class="st4" x1="406" y1="93" x2="406" y2="96"/>
<line class="st4" x1="386" y1="120" x2="386" y2="123"/>
<line class="st4" x1="390" y1="120" x2="390" y2="123"/>
<line class="st4" x1="394" y1="120" x2="394" y2="123"/>
<line class="st4" x1="398" y1="120" x2="398" y2="123"/>
<line class="st4" x1="402" y1="120" x2="402" y2="123"/>
<line class="st4" x1="406" y1="120" x2="406" y2="123"/>
<line class="st4" x1="411" y1="98" x2="408" y2="98"/>
<line class="st4" x1="411" y1="102" x2="408" y2="102"/>
<line class="st4" x1="411" y1="106" x2="408" y2="106"/>
<line class="st4" x1="411" y1="110" x2="408" y2="110"/>
<line class="st4" x1="411" y1="114" x2="408" y2="114"/>
<line class="st4" x1="411" y1="118" x2="408" y2="118"/>
<line class="st4" x1="384" y1="98" x2="381" y2="98"/>
<line class="st4" x1="384" y1="102" x2="381" y2="102"/>
<line class="st4" x1="384" y1="106" x2="381" y2="106"/>
<line class="st4" x1="384" y1="110" x2="381" y2="110"/>
<line class="st4" x1="384" y1="114" x2="381" y2="114"/>
<line class="st4" x1="384" y1="118" x2="381" y2="118"/>
<polyline class="st2" points="392,108 392,104 396,104 "/>
<path class="st4" d="M235,59h44c2.2,0,4-1.8,4-4V21"/>
</svg>
