<svg id="图层_1" data-name="图层 1" xmlns="http://www.w3.org/2000/svg" xmlns:xlink="http://www.w3.org/1999/xlink" viewBox="0 0 40 40"><defs><style>.cls-1,.cls-2,.cls-3{fill:#fff;}.cls-1{opacity:0.4;}.cls-3{opacity:0.7;}.cls-4{opacity:0.35;fill:url(#未命名的渐变_10);}</style><linearGradient id="未命名的渐变_10" x1="29.74" x2="29.74" y2="40" gradientUnits="userSpaceOnUse"><stop offset="0" stop-color="#fff"/><stop offset="0.51" stop-color="#fff" stop-opacity="0"/></linearGradient></defs><title>logo_半透明</title><path class="cls-1" d="M19.49,0,1.7,40h0a10.87,10.87,0,0,0,10-6.38L23,8Z" transform="translate(0)"/><path class="cls-2" d="M1.63,28A2.59,2.59,0,0,0,.21,31.41a2.69,2.69,0,0,0,3.5,1.38L29.35,22.17l-2.13-4.78Z" transform="translate(0)"/><path class="cls-2" d="M36,19.43A2.59,2.59,0,0,0,37.38,16a2.69,2.69,0,0,0-3.5-1.38l-.62.26,2.14,4.78Z" transform="translate(0)"/><path class="cls-3" d="M37.28,40h0L19.49,0h7.12L39,27.69A11.75,11.75,0,0,1,37.28,40Z" transform="translate(0)"/><path class="cls-4" d="M37.28,40h0L19.49,0h7.12L39,27.69A11.75,11.75,0,0,1,37.28,40Z" transform="translate(0)"/></svg>